<?xml version="1.0" standalone="no"?>
<!DOCTYPE svg PUBLIC "-//W3C//DTD SVG 20010904//EN"
 "http://www.w3.org/TR/2001/REC-SVG-20010904/DTD/svg10.dtd">
<svg version="1.0" xmlns="http://www.w3.org/2000/svg"
 width="300.000000pt" height="221.000000pt" viewBox="0 0 300.000000 221.000000"
 preserveAspectRatio="xMidYMid meet">
<metadata>
Created by potrace 1.10, written by Peter Selinger 2001-2011
</metadata>
<g transform="translate(0.000000,221.000000) scale(0.100000,-0.100000)"
fill="#000000" stroke="none">
<path d="M550 1973 c0 -59 -43 -179 -60 -168 -6 3 -11 -6 -11 -22 -1 -21 -3
-23 -7 -8 -3 15 -8 8 -16 -25 -8 -33 -16 -45 -29 -44 -22 2 -22 -3 3 -16 17
-9 22 -7 32 17 7 15 30 55 51 87 24 37 36 67 33 79 -3 11 2 26 10 34 16 16 20
103 4 103 -5 0 -10 -17 -10 -37z"/>
<path d="M627 1984 c8 -4 6 -18 -9 -50 -11 -25 -18 -48 -15 -50 2 -2 24 7 48
21 41 23 40 37 -1 15 -18 -10 -18 -9 -5 24 13 30 13 35 -1 40 -18 7 -35 7 -17
0z"/>
<path d="M642 1880 c-23 -16 -46 -39 -52 -50 -6 -12 -17 -19 -23 -17 -12 4
-47 -34 -47 -51 0 -6 -8 -18 -17 -28 -10 -9 -18 -22 -19 -28 -3 -24 -17 -56
-23 -52 -4 3 -7 -4 -7 -15 0 -40 25 -16 50 49 27 69 66 130 66 102 0 -8 -9
-26 -20 -40 -11 -14 -20 -30 -20 -36 0 -5 -11 -33 -25 -61 -13 -28 -27 -63
-31 -77 -3 -14 -9 -28 -13 -31 -17 -10 0 -122 27 -175 31 -63 50 -68 105 -26
29 21 54 34 163 81 99 43 308 45 439 5 39 -12 83 -21 100 -21 16 0 34 -4 40
-8 5 -5 26 -12 45 -16 19 -4 47 -14 62 -23 27 -16 43 -48 28 -57 -13 -8 13
-53 27 -48 16 6 17 -9 3 -23 -6 -6 -13 -24 -16 -40 -3 -16 -11 -36 -18 -44 -9
-10 -11 -22 -5 -35 9 -20 9 -20 8 0 -2 38 2 40 17 10 11 -22 13 -24 10 -8 -2
13 -1 25 4 28 13 8 20 -37 9 -57 -9 -16 -13 -17 -27 -6 -14 11 -14 9 2 -16 10
-16 14 -31 10 -35 -5 -3 -14 -15 -20 -26 -6 -11 -21 -21 -33 -23 -11 -2 -21
-8 -21 -13 0 -5 -9 -9 -21 -9 -11 0 -29 -5 -40 -10 -27 -15 -187 -60 -229 -65
-19 -3 -85 -7 -146 -10 -97 -5 -120 -3 -178 15 -36 12 -72 23 -79 24 -39 8
-67 19 -67 26 0 4 -11 11 -25 14 -14 4 -23 11 -20 15 7 12 -5 41 -17 41 -5 0
-7 -4 -3 -9 3 -6 -6 -6 -25 -1 -25 7 -33 5 -50 -17 -11 -14 -20 -34 -20 -44 0
-9 -6 -24 -13 -31 -7 -7 -12 -25 -10 -40 1 -15 -2 -30 -7 -33 -6 -4 -5 -14 2
-24 13 -22 3 -55 -15 -48 -6 2 -12 13 -12 24 0 11 -6 27 -14 36 -12 16 -9 21
12 18 13 -2 7 36 -8 49 -8 7 -13 16 -10 20 3 5 1 11 -4 14 -5 4 -10 -19 -10
-54 0 -33 4 -62 10 -65 5 -4 7 -11 3 -16 -3 -5 -1 -16 6 -24 9 -10 7 -20 -6
-39 -14 -22 -14 -29 -3 -43 8 -9 13 -26 11 -37 -3 -20 -3 -20 14 -4 16 15 16
21 4 45 -8 15 -16 31 -18 36 -2 4 4 7 13 7 11 0 15 -5 12 -14 -3 -8 1 -20 8
-26 21 -18 65 -100 54 -100 -6 0 -3 -7 5 -16 9 -8 16 -20 16 -25 0 -5 6 -9 14
-9 17 0 -47 137 -73 157 -14 11 -14 12 -1 13 10 0 11 3 4 8 -12 8 -15 42 -3
42 4 0 11 -10 14 -22 9 -31 68 -162 76 -168 3 -3 18 -31 32 -62 15 -31 32 -60
37 -63 15 -9 13 -3 -25 66 -87 160 -115 229 -121 297 -8 86 23 172 62 172 8 0
37 -18 66 -40 29 -21 74 -45 100 -52 26 -6 48 -16 48 -20 0 -5 4 -7 9 -4 5 3
26 0 47 -7 72 -25 359 -2 426 34 11 6 29 11 41 13 35 4 82 18 87 27 3 4 17 9
30 11 29 4 108 53 131 81 16 19 75 30 94 17 13 -9 45 -20 45 -16 0 8 -52 38
-72 41 -23 5 -37 15 -20 15 6 0 9 7 6 15 -3 8 -11 13 -17 12 -6 -1 -12 4 -13
11 -1 6 -2 15 -3 19 0 4 -6 2 -13 -5 -19 -19 -28 -14 -28 14 0 14 -4 23 -10
19 -14 -9 -12 17 3 35 8 10 35 16 86 18 64 2 72 1 62 -12 -7 -8 -9 -20 -5 -27
5 -8 9 -7 16 5 11 20 24 21 31 1 7 -17 -46 -47 -69 -38 -17 6 -19 23 -1 23 7
1 4 6 -6 15 -24 17 -43 11 -43 -15 0 -18 1 -18 19 -3 17 16 18 16 8 -8 -9 -24
-8 -25 25 -24 29 1 33 -2 28 -18 -4 -14 -2 -18 7 -15 8 3 14 11 14 18 0 7 8
16 18 19 10 4 18 11 17 16 0 6 12 13 27 16 15 4 37 10 47 14 15 7 17 5 11 -6
-7 -12 -6 -12 9 1 17 13 17 14 -1 21 -27 11 -35 10 -28 -2 5 -7 -5 -8 -32 -4
-60 10 -74 16 -68 26 8 13 59 11 72 -2 7 -7 17 -8 29 -1 21 10 31 8 84 -15 19
-9 54 -16 77 -15 24 0 45 -4 49 -9 3 -5 20 -9 37 -9 28 -1 127 -39 102 -40
-19 0 136 -96 345 -213 19 -10 41 -24 48 -29 16 -14 16 0 0 16 -31 29 -164
110 -211 128 -29 10 -57 26 -64 35 -7 8 -34 26 -60 38 l-48 23 52 -2 c29 0 53
-4 53 -7 0 -4 12 -9 26 -12 23 -4 24 -3 10 11 -8 9 -38 17 -68 19 -29 1 -66 7
-83 12 -24 7 -11 10 63 11 50 2 97 4 102 5 6 1 27 3 48 4 30 2 33 4 17 11 -18
8 -18 9 5 9 16 1 21 4 12 9 -6 5 -47 7 -90 6 -42 -2 -99 0 -127 3 -79 9 -27
21 93 22 56 1 102 4 102 7 0 13 -30 34 -47 33 -16 0 -16 -1 2 -9 14 -6 2 -8
-40 -10 -117 -2 -149 -10 -171 -38 -9 -13 -12 -13 -17 2 -4 9 -1 16 5 16 9 0
9 3 0 12 -8 8 -15 8 -27 -2 -14 -11 -13 -14 2 -26 17 -13 17 -13 0 -14 -10 0
-16 -4 -13 -8 2 -4 -11 -6 -30 -4 -18 2 -32 7 -30 11 3 4 -5 8 -17 8 -12 1
-25 -3 -29 -10 -6 -9 -8 -9 -8 1 0 6 -6 12 -14 12 -8 0 -22 7 -30 16 -12 12
-16 12 -16 2 0 -8 -3 -9 -8 -3 -4 6 -36 11 -72 12 -36 1 -76 3 -90 4 -14 1
-35 -1 -46 -5 -14 -4 -27 -1 -37 8 -13 14 -16 14 -21 1 -3 -10 -19 -15 -46
-15 -41 0 -49 7 -29 27 8 8 1 14 -24 24 -20 7 -34 16 -31 21 3 4 16 1 29 -8
13 -9 32 -17 42 -19 10 -2 20 -4 22 -4 2 -1 -2 -7 -8 -14 -8 -10 -7 -14 4 -14
14 0 19 10 16 30 -1 10 27 9 69 -3 19 -5 85 -11 145 -14 148 -8 154 -9 165
-26 8 -12 10 -11 10 6 0 17 7 21 41 22 30 1 38 -1 33 -11 -5 -8 -2 -7 9 2 18
14 23 41 8 41 -6 0 -13 -4 -16 -10 -3 -5 -23 -9 -43 -9 -20 -1 -50 -1 -67 -1
-16 -1 -55 1 -85 4 -30 3 -92 6 -137 7 -45 1 -80 6 -77 11 3 4 13 8 22 8 14 0
15 2 2 10 -9 5 -19 5 -26 -1 -7 -5 -35 -11 -63 -12 -44 -1 -54 2 -68 23 -29
41 -76 80 -98 80 -11 0 -33 7 -49 15 -15 8 -34 15 -41 15 -8 0 -16 8 -18 18
-4 14 -5 14 -6 1 -1 -14 -8 -15 -47 -8 -25 5 -49 11 -54 14 -30 19 -276 33
-345 20 -44 -8 -97 -26 -120 -40 -11 -7 -32 -15 -46 -19 -15 -3 -50 -22 -79
-41 -61 -41 -77 -43 -90 -11 -5 13 -13 25 -19 27 -25 9 -17 135 14 224 19 56
121 246 135 250 22 8 67 45 54 45 -6 0 -29 -13 -52 -30z m1534 -691 c7 -11
-34 -21 -56 -14 -11 4 -18 11 -14 16 6 10 63 9 70 -2z m-611 -118 c-6 -5 -19
-5 -30 -1 -11 5 -14 9 -7 9 6 1 12 9 12 18 0 16 1 16 17 0 11 -10 14 -20 8
-26z m-37 -23 c9 -9 8 -16 -5 -30 -9 -10 -21 -18 -26 -18 -6 0 -3 8 6 18 13
14 14 21 5 30 -7 7 -8 12 -2 12 6 0 15 -5 22 -12z"/>
<path d="M565 1860 c-3 -5 -1 -10 4 -10 6 0 11 5 11 10 0 6 -2 10 -4 10 -3 0
-8 -4 -11 -10z"/>
<path d="M416 1666 c21 -15 30 -14 19 3 -3 6 -14 11 -23 11 -13 0 -13 -2 4
-14z"/>
<path d="M404 1637 c5 -19 3 -26 -4 -22 -6 3 -10 -3 -10 -16 0 -21 -1 -21 -18
-6 -29 26 -32 20 -11 -23 11 -23 24 -38 28 -35 5 3 16 26 25 52 15 43 15 48 0
63 -15 14 -16 13 -10 -13z"/>
<path d="M431 1597 c-6 -8 -8 -16 -5 -20 3 -3 -2 -17 -12 -32 -13 -21 -15 -28
-5 -34 10 -6 9 -10 -3 -14 -15 -6 -20 -57 -6 -57 4 0 5 -13 2 -29 -2 -16 1
-32 9 -36 7 -5 10 -4 5 3 -4 6 0 27 8 47 12 29 13 35 1 35 -11 0 -11 7 0 44 8
24 11 47 8 50 -4 3 2 6 13 6 14 0 16 2 6 9 -11 6 -10 11 3 25 13 13 14 16 2
16 -8 0 -20 -6 -26 -13z"/>
<path d="M320 1580 c0 -5 5 -10 11 -10 5 0 7 5 4 10 -3 6 -8 10 -11 10 -2 0
-4 -4 -4 -10z"/>
<path d="M337 1533 c3 -10 10 -24 16 -30 6 -9 6 -13 -2 -13 -14 0 -14 -33 0
-47 7 -7 7 -13 0 -17 -5 -4 -8 -13 -4 -21 4 -11 -3 -15 -23 -16 -16 0 -38 -4
-49 -9 -14 -6 -4 -9 38 -9 63 -1 62 -2 58 71 -2 20 2 45 7 54 8 14 5 22 -13
36 -29 23 -36 23 -28 1z"/>
<path d="M2499 1493 c-13 -10 -46 -29 -74 -43 -45 -22 -142 -83 -155 -97 -13
-14 49 12 75 31 17 12 50 32 75 44 25 12 61 35 80 51 38 33 37 42 -1 14z"/>
<path d="M2475 1425 c-44 -24 -104 -56 -132 -70 -29 -14 -55 -30 -57 -34 -10
-16 43 -5 65 14 18 16 21 17 16 4 -5 -14 -1 -15 31 -7 20 5 47 12 60 15 12 3
22 9 22 14 0 12 -5 11 -45 -5 -52 -22 -46 5 5 28 22 10 40 22 40 27 0 5 6 9
13 9 6 0 26 11 42 25 41 33 33 31 -60 -20z"/>
<path d="M1057 1443 c-12 -11 -8 -23 9 -23 11 0 14 -6 9 -20 -5 -16 -2 -20 17
-19 16 0 19 2 8 7 -8 4 -15 13 -16 20 -3 36 -5 42 -12 42 -5 0 -12 -3 -15 -7z"/>
<path d="M2665 1440 c-3 -5 -1 -10 4 -10 6 0 11 5 11 10 0 6 -2 10 -4 10 -3 0
-8 -4 -11 -10z"/>
<path d="M845 1432 c-11 -11 -4 -23 20 -32 15 -6 25 -17 25 -30 0 -13 7 -20
19 -20 11 0 25 -2 33 -3 7 -2 9 -2 4 1 -4 2 -2 9 5 14 9 6 5 7 -12 2 -15 -3
-30 -1 -33 5 -4 6 -1 11 6 11 7 0 21 7 31 15 15 10 17 18 8 32 -10 17 -10 17
-11 1 0 -10 -7 -18 -16 -18 -8 0 -12 -4 -9 -10 3 -5 2 -10 -3 -10 -5 0 -14 11
-21 23 -12 22 -34 31 -46 19z"/>
<path d="M1020 1431 c0 -5 -9 -7 -20 -4 -12 3 -20 0 -20 -7 0 -6 9 -14 19 -17
13 -3 18 -11 15 -21 -5 -14 -4 -14 6 1 15 24 21 57 9 57 -5 0 -9 -4 -9 -9z"/>
<path d="M1110 1430 c0 -5 7 -10 16 -10 10 0 14 -7 12 -22 -2 -18 -11 -24 -36
-26 l-33 -3 26 -25 c25 -23 52 -33 41 -15 -7 11 16 59 32 66 6 2 12 0 12 -5 0
-6 8 -10 18 -9 11 0 12 2 4 6 -10 4 -10 8 -1 19 10 12 6 13 -20 8 -23 -5 -32
-2 -37 10 -7 17 -34 22 -34 6z"/>
<path d="M775 1409 c-17 -6 -16 -8 13 -15 23 -5 31 -11 28 -21 -4 -9 -1 -13 6
-11 22 8 20 34 -4 45 -13 5 -32 7 -43 2z"/>
<path d="M438 1403 c7 -3 16 -2 19 1 4 3 -2 6 -13 5 -11 0 -14 -3 -6 -6z"/>
<path d="M711 1383 c-5 -10 -12 -16 -16 -14 -9 5 -103 -37 -111 -50 -8 -13 16
-31 32 -25 13 5 54 -29 54 -44 0 -6 7 -10 15 -10 8 0 15 5 15 11 0 5 -4 8 -9
4 -6 -3 -15 2 -20 12 -28 49 -39 57 -58 42 -16 -12 -16 -11 1 8 10 13 23 20
28 17 5 -3 17 1 26 9 9 8 26 17 38 21 11 3 21 13 21 21 0 19 -4 19 -16 -2z"/>
<path d="M740 1390 c0 -5 5 -10 11 -10 5 0 7 5 4 10 -3 6 -8 10 -11 10 -2 0
-4 -4 -4 -10z"/>
<path d="M1304 1383 c1 -19 -13 -21 -49 -8 -19 6 -19 6 -1 -9 10 -8 15 -20 10
-27 -4 -7 3 -5 15 4 13 8 29 13 36 11 22 -9 26 12 6 30 -18 16 -19 16 -17 -1z"/>
<path d="M965 1380 c3 -5 8 -10 11 -10 2 0 4 5 4 10 0 6 -5 10 -11 10 -5 0 -7
-4 -4 -10z"/>
<path d="M1220 1382 c0 -7 -7 -12 -15 -12 -8 0 -15 -5 -15 -11 0 -5 5 -7 10
-4 6 3 10 0 11 -7 0 -7 5 -2 10 11 5 13 7 26 4 29 -3 3 -5 0 -5 -6z"/>
<path d="M2678 1383 c7 -3 16 -2 19 1 4 3 -2 6 -13 5 -11 0 -14 -3 -6 -6z"/>
<path d="M430 1370 c0 -5 7 -10 15 -10 8 0 15 5 15 10 0 6 -7 10 -15 10 -8 0
-15 -4 -15 -10z"/>
<path d="M756 1360 c-10 -11 -23 -17 -27 -14 -5 3 -9 1 -9 -4 0 -8 52 -25 56
-19 1 1 4 14 8 30 7 31 -1 34 -28 7z"/>
<path d="M858 1373 c7 -3 16 -2 19 1 4 3 -2 6 -13 5 -11 0 -14 -3 -6 -6z"/>
<path d="M360 1359 c-14 -4 -45 -7 -69 -8 -24 -1 -41 -4 -38 -7 3 -4 30 -7 59
-6 55 0 98 -18 98 -42 0 -8 12 -20 28 -26 27 -13 27 -13 26 -113 0 -96 -1
-101 -28 -123 -19 -17 -22 -24 -12 -24 9 0 16 5 16 10 0 6 6 10 13 10 20 0 45
31 50 60 2 14 2 19 0 12 -3 -7 -9 -10 -14 -7 -13 8 -11 102 2 127 10 18 7 24
-22 47 -46 36 -72 62 -66 67 9 10 87 -31 83 -43 -7 -18 15 -28 25 -12 9 15
-25 48 -49 49 -7 0 -10 5 -7 10 4 6 -8 10 -29 10 -19 0 -36 4 -38 8 -1 5 -14
5 -28 1z"/>
<path d="M1383 1362 c4 -6 -1 -13 -10 -16 -10 -3 -4 -4 14 -2 18 1 31 -2 30
-8 -1 -6 8 -12 21 -14 21 -3 22 -1 12 17 -6 12 -17 21 -25 21 -7 0 -21 3 -31
7 -11 4 -15 3 -11 -5z"/>
<path d="M1052 1340 c14 -22 24 -19 15 5 -4 8 -11 15 -17 15 -6 0 -6 -7 2 -20z"/>
<path d="M983 1343 c9 -2 23 -2 30 0 6 3 -1 5 -18 5 -16 0 -22 -2 -12 -5z"/>
<path d="M1490 1346 c0 -2 7 -7 16 -10 8 -3 12 -2 9 4 -6 10 -25 14 -25 6z"/>
<path d="M2536 1341 c-4 -7 -5 -15 -2 -18 9 -9 19 4 14 18 -4 11 -6 11 -12 0z"/>
<path d="M797 1333 c-14 -13 -6 -25 8 -13 10 8 15 9 15 2 0 -6 7 -9 16 -5 13
5 13 7 2 14 -16 10 -32 11 -41 2z"/>
<path d="M697 1311 c12 -10 19 -21 16 -25 -4 -3 11 -6 33 -5 21 0 33 3 26 6
-6 2 -9 10 -5 16 3 7 3 9 -1 5 -4 -3 -23 0 -41 8 -46 19 -55 17 -28 -5z"/>
<path d="M1340 1310 c-13 -11 -18 -20 -12 -20 6 0 14 5 17 10 5 8 11 8 19 1 7
-6 16 -8 19 -4 4 3 7 -1 7 -9 0 -9 7 -19 16 -22 22 -9 24 -8 24 10 0 8 -4 12
-10 9 -5 -3 -10 3 -10 14 0 12 -4 21 -9 21 -5 0 -16 2 -23 5 -8 3 -25 -3 -38
-15z"/>
<path d="M2483 1319 c-18 -5 -33 -13 -33 -18 0 -13 48 -1 61 15 6 8 10 14 8
13 -2 0 -19 -5 -36 -10z"/>
<path d="M890 1306 c0 -9 5 -16 10 -16 6 0 10 4 10 9 0 6 -4 13 -10 16 -5 3
-10 -1 -10 -9z"/>
<path d="M922 1311 c2 -7 7 -12 11 -12 12 1 9 15 -3 20 -7 2 -11 -2 -8 -8z"/>
<path d="M975 1310 c3 -5 8 -10 11 -10 2 0 4 5 4 10 0 6 -5 10 -11 10 -5 0 -7
-4 -4 -10z"/>
<path d="M1196 1308 c3 -4 14 -8 24 -8 10 0 21 4 24 8 3 5 -8 9 -24 9 -16 0
-27 -4 -24 -9z"/>
<path d="M1276 1310 c-19 -6 -19 -7 -1 -13 20 -8 29 -4 24 11 -2 5 -13 6 -23
2z"/>
<path d="M2110 1305 c-7 -8 -16 -12 -21 -9 -19 11 -8 -24 13 -42 12 -10 18
-13 13 -5 -6 10 -4 13 7 9 8 -4 21 -2 29 3 11 7 11 9 1 9 -7 0 -10 5 -7 10 3
6 2 10 -4 10 -5 0 -13 -4 -16 -10 -3 -5 -11 -10 -17 -10 -6 0 -3 9 7 20 10 11
16 22 13 25 -3 3 -11 -1 -18 -10z"/>
<path d="M2400 1299 c0 -11 4 -18 10 -14 5 3 7 12 3 20 -7 21 -13 19 -13 -6z"/>
<path d="M799 1299 c-10 -6 -4 -9 19 -9 17 0 32 2 32 4 0 9 -39 13 -51 5z"/>
<path d="M2218 1289 c-21 -11 -38 -21 -38 -24 0 -8 65 18 78 32 18 17 5 15
-40 -8z"/>
<path d="M544 1292 c-15 -10 -13 -40 3 -46 7 -3 13 0 14 7 0 7 5 1 10 -12 7
-18 14 -22 32 -17 12 3 27 6 34 6 7 0 2 10 -10 23 -12 13 -27 21 -33 19 -6 -2
-14 4 -17 12 -7 17 -16 20 -33 8z m66 -42 c0 -5 -4 -10 -10 -10 -5 0 -10 5
-10 10 0 6 5 10 10 10 6 0 10 -4 10 -10z"/>
<path d="M1150 1290 c0 -5 5 -10 11 -10 5 0 7 5 4 10 -3 6 -8 10 -11 10 -2 0
-4 -4 -4 -10z"/>
<path d="M685 1280 c3 -5 8 -10 11 -10 2 0 4 5 4 10 0 6 -5 10 -11 10 -5 0 -7
-4 -4 -10z"/>
<path d="M865 1279 c-15 -6 -11 -8 18 -8 20 -1 37 1 37 3 0 9 -37 12 -55 5z"/>
<path d="M998 1284 c-3 -3 -18 -6 -32 -8 -15 -1 -25 -7 -24 -12 2 -5 10 -8 18
-6 8 1 23 3 33 4 9 1 17 8 17 15 0 14 -4 16 -12 7z"/>
<path d="M1345 1280 c-3 -5 -1 -10 4 -10 6 0 11 5 11 10 0 6 -2 10 -4 10 -3 0
-8 -4 -11 -10z"/>
<path d="M1437 1247 c-14 -14 -16 -22 -8 -30 7 -7 13 -3 21 14 l10 24 -3 -27
c-2 -15 -1 -32 3 -38 4 -7 9 0 12 18 2 16 -1 36 -6 44 -9 12 -14 11 -29 -5z"/>
<path d="M745 1251 c11 -5 27 -6 35 -4 8 3 4 -4 -10 -16 -30 -24 -24 -26 21
-6 19 8 27 14 19 15 -13 0 -13 1 0 10 11 7 1 10 -35 9 -35 0 -44 -3 -30 -8z"/>
<path d="M1010 1249 c-19 -6 -39 -14 -43 -18 -10 -10 3 -42 15 -35 5 3 4 12
-4 21 -11 14 -9 15 20 11 18 -2 32 0 32 5 0 6 3 7 6 4 4 -4 -1 -18 -10 -31
-10 -16 -12 -27 -6 -31 6 -4 9 -1 8 7 -2 8 4 12 16 10 12 -2 16 1 10 9 -5 9
-1 11 14 7 12 -4 25 -1 30 5 8 14 84 19 76 6 -3 -5 7 -9 21 -9 15 0 24 4 20
10 -3 6 -11 10 -17 10 -6 0 -20 8 -30 17 -18 16 -18 16 -12 0 3 -10 1 -17 -5
-17 -6 0 -11 3 -11 8 0 4 -10 7 -22 8 -13 0 -34 3 -48 7 -14 3 -41 1 -60 -4z"/>
<path d="M1257 1253 c-11 -10 -8 -18 13 -43 24 -27 26 -44 5 -37 -23 9 -28
-11 -5 -23 11 -6 20 -17 20 -25 0 -8 4 -15 8 -15 5 0 7 13 6 28 -1 17 3 29 10
29 8 0 11 -12 8 -31 -4 -29 -3 -30 10 -12 22 29 17 60 -9 64 -15 2 -23 10 -23
23 0 17 -11 24 -34 20 -5 -1 -6 5 -3 14 7 16 4 19 -6 8z"/>
<path d="M830 1244 c0 -3 7 -12 15 -20 13 -13 15 -13 15 -1 0 8 -7 17 -15 21
-8 3 -15 3 -15 0z"/>
<path d="M522 1219 c11 -17 10 -22 -4 -33 -22 -16 -23 -45 -3 -52 10 -4 13
-14 9 -33 -4 -22 -4 -23 6 -8 6 9 18 17 26 17 8 0 17 7 20 15 4 8 15 15 25 15
10 0 19 6 19 14 0 14 -23 16 -36 3 -4 -4 -14 -1 -22 6 -13 10 -15 9 -10 -10 4
-15 2 -23 -7 -23 -20 0 -25 25 -10 48 8 10 11 22 8 26 -3 3 2 6 12 6 18 0 18
1 -1 15 -30 23 -47 20 -32 -6z"/>
<path d="M890 1225 c-8 -9 -8 -15 -2 -15 12 0 26 19 19 26 -2 2 -10 -2 -17
-11z"/>
<path d="M1390 1226 c0 -15 -16 -16 -37 -3 -7 5 -18 5 -25 1 -7 -5 -3 -11 13
-17 48 -19 64 -16 65 9 1 13 -2 24 -7 24 -5 0 -9 -6 -9 -14z"/>
<path d="M2006 1225 c4 -8 8 -15 10 -15 2 0 4 7 4 15 0 8 -4 15 -10 15 -5 0
-7 -7 -4 -15z"/>
<path d="M673 1212 c-4 -18 -11 -22 -32 -19 -14 2 -20 2 -13 0 7 -3 10 -14 6
-29 -4 -15 -2 -24 6 -24 6 0 9 4 6 9 -3 4 7 6 22 3 24 -5 25 -3 14 11 -10 12
-11 21 -2 37 6 12 9 25 5 28 -3 3 -8 -4 -12 -16z"/>
<path d="M704 1208 c-4 -7 -4 -10 1 -6 4 4 14 3 22 -4 7 -6 16 -8 19 -5 3 3
-3 10 -15 16 -15 8 -22 8 -27 -1z"/>
<path d="M820 1210 c0 -5 -12 -10 -27 -10 -21 0 -24 -3 -13 -9 8 -6 18 -7 22
-5 5 3 25 0 44 -6 31 -11 38 -10 53 5 15 16 15 17 -4 13 -11 -3 -32 2 -47 9
-17 8 -28 9 -28 3z"/>
<path d="M1116 1201 c-4 -5 3 -7 14 -4 23 6 26 13 6 13 -8 0 -17 -4 -20 -9z"/>
<path d="M1165 1189 c-4 -6 -5 -12 -2 -15 2 -3 7 2 10 11 7 17 1 20 -8 4z"/>
<path d="M748 1173 c7 -3 16 -2 19 1 4 3 -2 6 -13 5 -11 0 -14 -3 -6 -6z"/>
<path d="M1370 1151 c0 -20 -5 -31 -14 -31 -22 0 -28 -30 -9 -48 15 -16 16
-15 9 12 -6 23 -4 27 8 23 10 -4 16 -1 16 8 0 7 5 17 12 21 7 4 8 3 4 -4 -11
-19 2 -14 24 8 26 26 25 40 -2 39 -13 0 -17 -3 -10 -6 19 -7 14 -19 -8 -20
-11 -1 -18 2 -15 7 3 5 1 11 -5 15 -6 4 -10 -6 -10 -24z"/>
<path d="M716 1161 c-4 -7 -5 -15 -2 -18 9 -9 19 4 14 18 -4 11 -6 11 -12 0z"/>
<path d="M938 1145 c-26 -35 -22 -42 7 -11 26 28 30 36 18 36 -5 0 -16 -11
-25 -25z"/>
<path d="M980 1159 c0 -5 5 -7 10 -4 6 3 10 8 10 11 0 2 -4 4 -10 4 -5 0 -10
-5 -10 -11z"/>
<path d="M1040 1160 c0 -5 5 -10 10 -10 6 0 10 5 10 10 0 6 -4 10 -10 10 -5 0
-10 -4 -10 -10z"/>
<path d="M1216 1154 c-9 -8 -16 -12 -17 -7 0 4 -5 -3 -10 -16 -6 -15 -15 -21
-24 -17 -8 3 -15 1 -15 -3 0 -16 25 -19 43 -6 9 7 17 16 17 20 0 5 7 17 17 27
20 22 11 24 -11 2z"/>
<path d="M1810 1162 c-8 -2 -21 -11 -27 -20 -12 -14 -13 -14 -13 2 0 12 -5 16
-16 12 -9 -3 -18 -6 -21 -6 -2 0 3 -7 12 -16 12 -13 21 -14 38 -7 12 6 31 7
42 3 27 -10 45 -2 45 21 0 21 -16 26 -23 7 -4 -9 -8 -10 -14 -2 -4 6 -15 9
-23 6z"/>
<path d="M1884 1161 c-11 -11 -2 -27 15 -27 11 0 17 4 15 8 -6 9 -2 10 39 12
15 1 27 -3 27 -10 0 -7 -11 -11 -25 -9 -14 1 -25 -2 -25 -6 0 -5 11 -9 25 -9
26 0 53 34 35 45 -10 6 -99 3 -106 -4z"/>
<path d="M790 1153 c-8 -3 -23 -12 -32 -21 -10 -8 -18 -12 -18 -8 0 4 -8 2
-18 -3 -13 -7 -31 -6 -56 1 -29 9 -39 9 -49 -2 -10 -10 -9 -11 2 -5 9 5 12 3
9 -6 -3 -8 -10 -13 -15 -12 -6 1 -16 -9 -23 -22 -7 -14 -17 -25 -22 -25 -13 0
-10 12 9 32 9 11 11 18 5 18 -7 0 -12 -5 -12 -11 0 -6 -7 -8 -16 -5 -12 5 -15
2 -10 -10 4 -12 2 -15 -9 -10 -12 4 -13 2 -3 -14 13 -21 48 -34 48 -18 0 7 5
6 13 -1 18 -14 28 -3 21 23 -3 15 3 29 20 46 31 28 35 16 5 -16 -19 -21 -20
-22 -3 -20 11 2 19 9 19 16 0 7 6 15 13 18 6 2 12 -5 12 -15 0 -15 3 -15 19 6
12 16 21 20 25 12 11 -17 23 -13 29 9 4 15 14 20 36 20 21 0 31 5 31 15 0 16
-5 17 -30 8z"/>
<path d="M1118 1150 c-1 -5 -18 -10 -36 -12 -21 -1 -34 -9 -38 -20 -7 -22 -26
-13 -22 9 2 9 -3 18 -11 21 -10 3 -12 -1 -9 -16 3 -12 -1 -29 -9 -39 -8 -10
-12 -13 -9 -8 5 12 -10 43 -17 35 -3 -3 -8 -15 -11 -27 -6 -17 -4 -22 7 -17
23 8 23 -102 0 -115 -10 -5 -14 -13 -10 -17 4 -4 15 1 25 12 21 22 35 64 21
64 -5 0 -9 13 -9 29 0 32 19 41 78 37 35 -3 43 8 15 19 -17 6 -17 7 0 16 13 8
22 7 33 -1 13 -11 18 -7 15 13 0 4 4 7 10 7 5 0 7 5 4 10 -8 13 -22 13 -27 0z"/>
<path d="M2013 1143 c-7 -2 -13 -11 -13 -18 0 -21 -10 -23 -68 -15 -30 3 -55
3 -59 -3 -3 -5 -20 -6 -37 -3 -18 4 -35 3 -39 0 -3 -4 -21 -8 -39 -9 -18 -1
-52 -5 -75 -9 -39 -7 -43 -6 -43 13 0 20 -13 35 -22 25 -10 -10 17 -53 40 -64
29 -13 35 -13 27 0 -3 6 -3 11 2 11 11 2 109 9 155 12 20 1 39 5 43 8 3 4 21
3 39 -1 19 -4 53 -6 76 -4 24 2 48 0 54 -5 6 -5 16 -10 21 -12 24 -5 55 -23
55 -32 0 -6 3 -7 7 -4 11 12 -49 67 -73 67 -12 0 -29 3 -38 6 -14 5 -14 8 0
21 13 14 17 13 34 -2 10 -9 24 -14 30 -10 8 5 5 11 -7 21 -18 13 -47 17 -70 7z"/>
<path d="M830 1127 l-35 -10 30 -7 c17 -4 34 -3 40 2 5 4 17 8 27 8 10 0 18 5
18 10 0 13 -34 11 -80 -3z"/>
<path d="M2310 1136 c0 -2 9 -6 20 -9 11 -3 20 -1 20 4 0 5 -9 9 -20 9 -11 0
-20 -2 -20 -4z"/>
<path d="M1424 1117 c-6 -18 11 -47 28 -47 10 0 1 39 -13 54 -5 6 -11 2 -15
-7z"/>
<path d="M1705 1120 c-3 -5 -1 -10 4 -10 6 0 11 5 11 10 0 6 -2 10 -4 10 -3 0
-8 -4 -11 -10z"/>
<path d="M1255 1110 c-3 -5 -2 -10 4 -10 5 0 13 5 16 10 3 6 2 10 -4 10 -5 0
-13 -4 -16 -10z"/>
<path d="M2100 1103 c1 -12 48 -44 69 -48 11 -2 29 -13 40 -24 12 -12 26 -21
31 -21 6 0 16 -5 23 -10 86 -72 239 -161 253 -148 6 6 -20 24 -101 68 -33 18
-69 40 -80 50 -11 10 -39 28 -63 39 -24 12 -69 40 -100 62 -57 39 -72 46 -72
32z"/>
<path d="M920 1090 c0 -5 5 -10 10 -10 6 0 10 5 10 10 0 6 -4 10 -10 10 -5 0
-10 -4 -10 -10z"/>
<path d="M778 1083 c7 -3 16 -2 19 1 4 3 -2 6 -13 5 -11 0 -14 -3 -6 -6z"/>
<path d="M1277 1083 c-12 -11 -8 -23 7 -23 8 0 16 7 20 15 5 15 -14 21 -27 8z"/>
<path d="M1380 1087 c0 -3 7 -17 15 -33 16 -31 13 -42 -7 -27 -7 5 -22 9 -33
9 -11 -1 -23 4 -27 9 -5 6 -8 6 -8 -2 0 -6 5 -15 10 -18 6 -4 7 -11 4 -17 -4
-6 2 -6 15 1 18 10 21 9 21 -9 0 -14 6 -20 23 -20 20 1 20 2 5 11 -27 15 -21
26 12 24 21 -1 30 3 31 14 0 10 2 12 6 4 7 -20 19 -15 19 7 0 16 -6 19 -31 17
-20 -1 -30 3 -30 12 0 8 -6 16 -12 19 -7 2 -13 2 -13 -1z"/>
<path d="M2351 1086 c4 -4 31 -14 60 -22 100 -28 114 -33 158 -49 24 -9 46
-14 48 -11 8 8 -113 64 -154 71 -73 13 -118 17 -112 11z"/>
<path d="M710 1069 c0 -5 5 -7 10 -4 6 3 10 8 10 11 0 2 -4 4 -10 4 -5 0 -10
-5 -10 -11z"/>
<path d="M868 1073 c7 -3 16 -2 19 1 4 3 -2 6 -13 5 -11 0 -14 -3 -6 -6z"/>
<path d="M1207 1074 c-9 -10 2 -24 19 -24 8 0 14 7 14 15 0 15 -21 21 -33 9z"/>
<path d="M2268 1068 c5 -5 16 -8 23 -6 8 3 3 7 -10 11 -17 4 -21 3 -13 -5z"/>
<path d="M1143 1063 c-9 -3 -8 -9 4 -21 21 -21 25 -21 29 0 2 18 -13 28 -33
21z"/>
<path d="M700 1043 c-17 -12 -19 -18 -9 -29 16 -19 26 -18 32 5 5 20 21 22 45
8 7 -5 12 -4 12 2 0 6 1 14 3 17 5 14 -63 11 -83 -3z"/>
<path d="M834 1051 c3 -5 -1 -12 -10 -15 -13 -5 -14 -9 -5 -20 10 -11 8 -16
-5 -24 -13 -7 -14 -11 -3 -17 7 -5 14 -4 17 3 2 6 10 8 18 5 8 -3 14 0 14 7 0
6 -4 9 -9 6 -5 -3 -12 2 -15 11 -7 18 9 33 37 33 9 0 17 5 17 10 0 6 -14 10
-31 10 -16 0 -28 -4 -25 -9z"/>
<path d="M2356 1051 c-3 -5 11 -17 32 -26 20 -9 50 -23 66 -31 16 -7 32 -11
37 -8 5 3 9 -2 9 -11 0 -9 4 -14 9 -10 14 8 92 -6 86 -16 -4 -6 36 -19 75 -24
3 0 10 -3 16 -7 6 -4 14 -5 18 -1 8 8 -49 33 -74 33 -10 0 -23 6 -30 14 -6 8
-19 12 -27 9 -9 -4 -21 1 -29 11 -8 11 -27 18 -48 19 -20 1 -36 4 -36 8 0 4
-15 12 -32 19 -18 6 -41 16 -50 21 -10 5 -19 5 -22 0z"/>
<path d="M500 1038 c0 -6 -7 -19 -16 -29 -24 -27 -7 -41 19 -16 26 25 30 44
10 51 -7 3 -13 0 -13 -6z"/>
<path d="M634 1035 c4 -11 2 -22 -6 -27 -10 -6 -9 -8 4 -8 9 0 25 -3 35 -6 17
-5 17 -5 1 9 -10 8 -18 19 -18 25 0 6 -5 14 -12 18 -8 5 -9 2 -4 -11z"/>
<path d="M899 1013 c1 -56 -3 -82 -9 -78 -4 2 -18 -2 -33 -10 -14 -7 -36 -11
-49 -9 -22 4 -22 4 1 -6 17 -7 34 -8 54 -1 24 9 28 8 23 -4 -3 -9 0 -15 9 -15
8 0 16 6 16 13 3 29 7 74 8 97 1 20 3 22 11 10 5 -8 10 -10 10 -5 0 6 -9 18
-20 28 -20 17 -21 17 -21 -20z"/>
<path d="M1190 1041 c0 -5 7 -12 16 -15 14 -5 15 -4 4 9 -14 17 -20 19 -20 6z"/>
<path d="M1060 1036 c0 -2 7 -7 16 -10 8 -3 12 -2 9 4 -6 10 -25 14 -25 6z"/>
<path d="M1263 1025 c0 -8 6 -15 12 -15 7 0 17 -12 24 -27 9 -20 15 -24 21
-14 4 8 13 10 19 7 6 -4 11 -3 11 3 0 5 -9 12 -20 16 -11 3 -19 12 -17 18 1 7
-4 11 -12 9 -7 -1 -19 2 -25 7 -9 8 -13 6 -13 -4z"/>
<path d="M748 992 c-16 -7 -28 -18 -28 -25 0 -8 3 -8 12 1 16 16 28 15 28 -3
0 -16 16 -20 24 -6 4 5 3 18 -1 28 -7 17 -11 17 -35 5z"/>
<path d="M1035 1000 c-3 -5 1 -10 10 -10 9 0 13 5 10 10 -3 6 -8 10 -10 10 -2
0 -7 -4 -10 -10z"/>
<path d="M1103 988 c-1 -11 -7 -24 -14 -28 -8 -5 -6 -11 7 -19 18 -10 18 -10
0 -11 -24 0 -11 -15 22 -25 20 -6 21 -4 13 19 -7 18 -6 28 4 36 8 6 11 19 8
27 -6 14 -8 14 -14 -3 -7 -17 -8 -17 -8 4 -1 28 -16 29 -18 0z"/>
<path d="M1200 988 c-12 -22 -12 -22 6 -6 10 10 15 20 12 24 -4 3 -12 -5 -18
-18z"/>
<path d="M393 985 c-6 -10 -31 -17 -83 -20 -102 -8 -101 -15 3 -15 75 0 88 3
97 19 12 24 -4 39 -17 16z"/>
<path d="M1165 990 c-3 -5 -1 -10 4 -10 6 0 11 5 11 10 0 6 -2 10 -4 10 -3 0
-8 -4 -11 -10z"/>
<path d="M1259 994 c6 -4 7 -14 1 -30 -6 -15 -6 -24 0 -24 6 0 10 9 10 20 0
11 0 23 1 27 0 4 -4 8 -10 10 -7 1 -7 -1 -2 -3z"/>
<path d="M2665 980 c3 -5 13 -10 21 -10 8 0 12 5 9 10 -3 6 -13 10 -21 10 -8
0 -12 -4 -9 -10z"/>
<path d="M670 970 c-12 -7 -7 -12 20 -23 57 -24 83 -30 76 -19 -3 5 -18 13
-33 17 -15 3 -32 13 -37 20 -8 10 -16 12 -26 5z"/>
<path d="M430 960 c-13 -8 -12 -10 3 -10 9 0 16 -3 16 -7 -1 -5 0 -17 1 -28 2
-17 3 -16 9 5 13 42 1 59 -29 40z"/>
<path d="M1002 949 c-23 -21 -29 -39 -13 -39 5 0 13 9 16 20 3 11 11 20 17 20
5 0 8 -7 5 -15 -8 -18 8 -29 27 -18 16 9 12 20 -15 40 -13 10 -20 9 -37 -8z"/>
<path d="M1210 956 c0 -9 5 -16 10 -16 6 0 10 4 10 9 0 6 -4 13 -10 16 -5 3
-10 -1 -10 -9z"/>
<path d="M822 945 c-10 -12 -10 -15 1 -15 8 0 20 7 27 15 17 21 -10 20 -28 0z"/>
<path d="M1152 940 c2 -20 9 -26 36 -28 17 -2 32 1 32 7 0 5 -9 8 -20 6 -12
-2 -26 5 -36 18 l-15 22 3 -25z"/>
<path d="M780 940 c0 -5 5 -10 10 -10 6 0 10 5 10 10 0 6 -4 10 -10 10 -5 0
-10 -4 -10 -10z"/>
<path d="M305 930 c-31 -8 -18 -14 23 -10 16 1 22 -4 22 -19 0 -14 6 -21 20
-21 21 0 27 15 10 25 -16 10 -12 25 5 19 8 -4 15 -1 15 5 0 12 -49 13 -95 1z"/>
<path d="M248 923 c7 -3 16 -2 19 1 4 3 -2 6 -13 5 -11 0 -14 -3 -6 -6z"/>
<path d="M362 828 c1 -24 -3 -53 -10 -65 -8 -15 -9 -23 -2 -23 6 0 16 11 22
25 8 17 14 22 19 14 7 -12 6 -18 -24 -77 -16 -32 -16 -32 4 -21 11 6 27 25 34
42 11 26 11 35 -1 51 -8 11 -14 37 -14 58 0 27 -4 38 -15 38 -12 0 -15 -10
-13 -42z"/>
<path d="M340 719 c0 -5 5 -7 10 -4 6 3 10 8 10 11 0 2 -4 4 -10 4 -5 0 -10
-5 -10 -11z"/>
<path d="M444 618 l-29 -32 28 17 c32 21 37 7 5 -17 -20 -15 -21 -16 -3 -11
11 4 24 7 29 8 4 1 15 -14 22 -33 l14 -35 -5 35 c-3 19 -7 46 -9 60 -5 39 -6
40 -14 40 -5 0 -21 -14 -38 -32z m46 1 c0 -6 -4 -7 -10 -4 -5 3 -10 11 -10 16
0 6 5 7 10 4 6 -3 10 -11 10 -16z"/>
<path d="M520 523 c0 -21 5 -32 12 -30 7 1 19 -18 28 -43 8 -25 18 -48 23 -51
4 -3 10 -30 13 -59 6 -60 9 -69 25 -53 7 7 5 24 -5 53 -8 24 -13 47 -10 52 3
4 0 8 -5 8 -6 0 -11 6 -11 13 0 12 -10 34 -53 112 l-17 30 0 -32z"/>
<path d="M576 495 c14 -19 28 -35 30 -35 2 0 -4 16 -13 35 -9 19 -23 35 -30
35 -9 0 -5 -12 13 -35z"/>
<path d="M607 430 c3 -11 10 -23 16 -27 7 -4 8 0 4 11 -4 10 -7 22 -7 27 0 5
-4 9 -9 9 -5 0 -7 -9 -4 -20z"/>
<path d="M645 407 c4 -13 8 -30 9 -38 13 -60 20 -80 27 -84 9 -6 2 62 -8 79
-4 6 -6 21 -5 32 2 12 -4 24 -13 27 -12 5 -14 1 -10 -16z"/>
<path d="M630 240 c-8 -5 -10 -10 -5 -10 6 0 17 5 25 10 8 5 11 10 5 10 -5 0
-17 -5 -25 -10z"/>
</g>
</svg>
