<?xml version="1.0" standalone="no"?>
<!DOCTYPE svg PUBLIC "-//W3C//DTD SVG 20010904//EN"
 "http://www.w3.org/TR/2001/REC-SVG-20010904/DTD/svg10.dtd">
<svg version="1.0" xmlns="http://www.w3.org/2000/svg"
 width="300.000000pt" height="200.000000pt" viewBox="0 0 300.000000 200.000000"
 preserveAspectRatio="xMidYMid meet">
<metadata>
Created by potrace 1.10, written by Peter Selinger 2001-2011
</metadata>
<g transform="translate(0.000000,200.000000) scale(0.100000,-0.100000)"
fill="#000000" stroke="none">
<path d="M816 1843 c8 -36 39 -79 54 -75 6 1 9 -2 5 -8 -4 -6 -1 -17 5 -25 7
-8 9 -15 5 -15 -4 0 6 -15 22 -33 16 -19 47 -63 68 -98 21 -35 43 -67 49 -71
6 -4 -7 -27 -32 -57 -46 -54 -55 -75 -19 -45 l22 19 -19 -22 c-10 -13 -22 -20
-26 -18 -8 5 -104 -147 -114 -182 -9 -29 -55 -51 -95 -45 -38 5 -39 13 -2 54
60 70 81 155 44 185 -53 41 -293 130 -316 116 -5 -3 -16 2 -23 11 -7 10 -15
17 -18 17 -3 0 -21 6 -40 14 -40 17 -70 20 -43 4 9 -5 17 -16 17 -22 0 -30
287 -140 364 -140 48 0 88 -52 56 -72 -6 -4 -8 -11 -5 -16 4 -5 1 -9 -5 -9 -8
0 -9 7 -5 18 4 9 9 23 12 30 3 7 -2 12 -12 12 -12 0 -15 -5 -10 -22 l7 -23
-17 23 c-14 19 -15 25 -3 39 11 14 11 16 0 12 -16 -5 -73 -106 -93 -164 -19
-55 -56 -86 -86 -72 -17 7 -28 6 -47 -7 -14 -9 -32 -16 -41 -16 -8 0 -15 -5
-15 -10 0 -21 -38 9 -79 62 -22 29 -45 58 -51 65 -28 34 -103 159 -145 243
-48 97 -60 122 -91 198 -26 63 -36 51 -12 -15 31 -89 151 -328 178 -353 7 -7
29 -43 37 -60 8 -20 70 -98 105 -134 33 -34 33 -56 -2 -73 -36 -18 -47 -3 -17
23 31 27 32 30 13 37 -10 4 -13 1 -9 -9 3 -7 1 -14 -5 -14 -18 0 -49 -65 -54
-114 -5 -43 -3 -50 22 -73 37 -33 34 -66 -13 -136 -80 -122 -106 -166 -157
-262 -29 -55 -70 -132 -91 -172 -22 -40 -39 -78 -39 -85 0 -21 16 3 65 97 71
135 118 219 131 232 6 6 17 25 24 42 7 17 16 31 21 31 5 0 9 6 9 13 0 10 95
162 117 186 2 3 9 -1 15 -7 7 -7 24 -12 39 -12 15 0 29 -7 33 -15 6 -17 61
-21 71 -6 11 19 51 -37 84 -115 18 -43 38 -85 43 -91 15 -19 2 -43 -24 -43
-54 0 -238 -45 -238 -58 0 -4 -18 -18 -40 -32 -39 -24 -84 -82 -73 -94 9 -9
93 58 88 71 -2 8 2 10 12 6 12 -5 15 -2 10 10 -8 22 28 43 99 57 101 21 124
23 124 11 0 -6 -6 -12 -12 -13 -7 0 -26 -3 -43 -5 -16 -3 -45 -5 -64 -6 -19
-1 -36 -8 -39 -15 -2 -6 -15 -12 -30 -12 -16 0 -22 -4 -16 -9 8 -9 71 3 204
39 46 12 119 60 126 82 9 30 -7 85 -42 140 -19 29 -34 55 -34 59 0 9 61 18 78
11 7 -2 31 -41 54 -86 38 -76 140 -234 161 -247 8 -6 -117 -180 -135 -187 -4
-2 -8 -11 -8 -21 0 -9 -12 -30 -27 -47 -29 -31 -57 -94 -44 -94 12 0 45 32 71
70 14 19 28 40 32 45 4 6 32 38 62 72 30 34 69 89 86 122 25 50 28 65 20 87
-11 27 -54 85 -99 134 -30 32 -84 110 -76 110 3 0 24 -9 46 -21 25 -12 55 -19
78 -18 26 2 61 -9 131 -43 96 -46 254 -104 278 -102 14 2 16 -12 3 -20 -11 -7
-56 -103 -65 -141 -4 -16 -18 -54 -32 -83 -13 -29 -24 -60 -24 -70 0 -9 -9
-36 -19 -58 -15 -32 -16 -45 -8 -54 7 -7 8 -10 2 -8 -14 8 -38 -19 -25 -27 18
-11 70 51 70 84 0 16 7 36 15 45 14 13 14 16 -1 24 -11 6 -14 16 -9 31 9 30
29 27 21 -4 -13 -52 10 -21 48 62 80 178 94 237 62 272 -26 29 -92 58 -150 66
-35 5 -45 9 -35 16 8 5 11 9 7 9 -3 0 -14 3 -24 7 -12 4 -15 3 -10 -5 10 -16
-16 -16 -32 0 -16 16 -15 33 1 19 10 -8 16 -8 24 0 8 8 20 8 42 -2 21 -9 26
-16 18 -22 -8 -6 -8 -7 3 -4 8 2 33 -2 55 -10 21 -7 46 -11 54 -8 9 3 12 3 8
-1 -4 -4 12 -16 35 -26 49 -22 64 -17 18 7 -18 9 -30 19 -27 21 3 3 19 -2 36
-11 18 -9 36 -13 41 -10 6 3 10 1 10 -4 0 -6 11 -11 25 -11 14 0 25 4 25 10 0
5 -7 7 -15 4 -8 -4 -21 -1 -28 5 -8 6 -22 12 -33 14 -28 6 -74 26 -74 32 0 4
5 3 10 0 6 -3 10 -1 10 4 0 6 -4 11 -10 11 -5 0 -10 5 -10 10 0 13 33 13 46 0
5 -5 21 -11 34 -13 15 -2 25 -11 25 -20 0 -9 7 -22 15 -29 12 -11 12 -10 0 6
-14 18 -13 18 10 11 14 -4 27 -12 28 -16 5 -12 22 -11 22 0 0 5 -9 13 -20 16
-11 3 -20 11 -20 16 0 6 6 7 13 4 6 -4 3 1 -8 10 -17 14 -18 17 -5 25 20 13 4
13 -20 0 -13 -7 -21 -7 -25 0 -3 5 -11 10 -16 10 -6 0 -7 -5 -3 -12 4 -7 3 -8
-5 -4 -6 4 -8 12 -5 18 5 8 1 9 -10 5 -10 -4 -15 -3 -11 3 3 6 1 10 -4 10 -6
0 -11 -5 -11 -11 0 -6 -9 -8 -21 -4 -15 5 -19 4 -15 -4 4 -6 2 -11 -3 -11 -6
0 -11 5 -11 11 0 5 -4 7 -10 4 -5 -3 -15 -3 -21 0 -6 4 1 13 16 21 31 16 38
17 31 6 -4 -7 128 -9 147 -2 17 6 33 6 48 -1 9 -5 22 -3 30 4 7 7 10 8 6 3 -9
-12 11 -36 29 -36 8 0 14 7 14 15 0 8 6 15 13 15 24 0 67 -25 67 -38 0 -10
-10 -7 -35 8 -27 17 -34 18 -29 6 3 -9 11 -16 17 -16 5 0 25 -11 43 -25 34
-26 50 -32 39 -15 -3 6 -2 10 4 10 5 0 13 -4 16 -10 3 -5 11 -10 17 -10 6 0 6
6 -2 15 -7 9 -20 15 -29 14 -35 -3 -44 1 -32 14 8 10 7 17 -1 25 -7 7 -8 12
-2 12 5 0 2 5 -6 10 -12 8 -10 10 9 10 13 0 22 -2 19 -5 -10 -11 74 -85 96
-85 19 0 -1 23 -39 46 -60 35 -51 43 11 10 52 -28 64 -31 64 -18 0 5 -12 13
-27 19 l-28 11 28 1 c30 1 38 21 8 21 -10 0 -24 7 -31 15 -11 13 -6 15 38 15
62 0 112 10 112 21 0 5 -12 7 -27 4 -95 -17 -123 -18 -123 -2 0 9 5 19 10 22
13 8 13 120 0 163 -8 29 -7 33 6 28 9 -3 34 -6 56 -6 35 0 39 -2 28 -15 -9
-11 -24 -14 -49 -10 -34 5 -34 4 -7 -5 37 -12 46 -26 46 -72 0 -53 -16 -88
-40 -88 -11 0 -20 -4 -20 -9 0 -6 12 -6 32 0 17 5 34 7 36 4 2 -2 11 2 19 10
18 19 37 19 96 1 26 -8 47 -10 47 -6 0 5 -6 10 -12 13 -7 3 -3 4 10 4 14 -1
21 -6 18 -14 -3 -8 2 -13 14 -13 29 0 33 -1 53 -12 14 -7 22 -5 34 9 13 16 14
16 9 1 -5 -18 18 -37 44 -36 34 2 51 -3 45 -12 -3 -6 -1 -10 4 -10 6 0 12 6
12 13 1 6 3 23 4 37 l2 24 -20 -24 c-18 -23 -19 -24 -13 -3 6 18 4 20 -14 16
-11 -3 -20 0 -20 6 0 6 -14 11 -31 11 -17 0 -28 4 -24 10 3 5 4 10 0 10 -3 0
-10 -10 -15 -22 -8 -21 -9 -22 -10 -3 -1 20 -1 20 -10 0 -8 -19 -9 -19 -9 3
-1 13 -5 21 -9 18 -4 -3 -28 0 -53 6 -69 16 -73 16 -91 17 -10 1 -18 6 -18 12
0 6 7 9 15 5 18 -7 20 15 3 32 -18 18 -28 14 -28 -11 0 -13 -11 -33 -25 -45
-33 -29 -36 -28 -23 8 6 17 8 44 5 59 -4 20 -2 28 8 28 8 0 12 -4 9 -8 -8 -14
18 -22 27 -8 8 12 10 12 18 0 7 -12 19 -12 77 0 38 7 81 13 97 13 24 1 26 2
10 13 -20 15 -10 16 33 4 29 -8 31 -7 28 13 -4 20 -4 20 7 -1 7 -13 16 -23 21
-23 5 0 4 9 -2 20 -9 16 -8 18 5 14 8 -4 15 -13 15 -21 0 -8 4 -12 9 -9 5 3 7
16 4 29 -4 21 -4 21 12 -3 9 -14 14 -18 11 -9 -5 18 11 39 30 39 7 0 16 -9 19
-20 7 -22 30 -27 41 -8 4 7 3 8 -5 4 -8 -5 -16 3 -24 23 -12 32 -32 47 -42 31
-4 -6 0 -10 7 -11 7 0 4 -4 -7 -8 -12 -5 -23 -4 -27 3 -6 8 -11 7 -17 -3 -5
-7 -14 -10 -20 -7 -6 4 -11 1 -11 -6 0 -9 -3 -9 -10 2 -7 11 -10 11 -10 2 0
-7 -4 -10 -10 -7 -5 3 -10 2 -10 -3 0 -5 -6 -9 -12 -9 -15 0 -59 -8 -138 -23
-102 -19 -109 -20 -115 -10 -4 6 -11 8 -16 5 -5 -4 -9 -1 -9 5 0 6 10 15 23
19 28 11 13 17 -65 26 -57 6 -81 25 -33 25 14 0 25 5 25 10 0 20 -45 9 -63
-15 -14 -19 -15 -29 -7 -44 5 -11 10 -29 10 -39 0 -18 -4 -19 -35 -12 -26 6
-35 5 -35 -5 0 -7 8 -12 18 -11 12 1 17 -6 16 -24 -4 -63 -3 -61 -24 -50 -11
6 -20 7 -20 2 0 -12 38 -22 56 -15 8 3 14 12 14 20 0 8 -4 11 -10 8 -17 -10
-11 11 10 36 22 28 24 19 9 -51 -10 -48 -12 -50 -45 -50 -19 0 -34 -4 -34 -10
0 -5 -7 -10 -15 -10 -16 0 -20 12 -8 24 17 16 24 126 11 174 -8 32 -14 61 -17
95 -1 5 -6 5 -13 1 -7 -4 -24 -9 -38 -10 -14 -1 -19 0 -12 3 6 3 10 8 7 13 -3
4 10 7 28 5 35 -2 67 10 67 25 0 6 -16 3 -36 -5 -43 -18 -47 -18 -39 -5 3 6 1
10 -4 10 -6 0 -16 -9 -23 -21 -7 -11 -28 -27 -45 -36 -18 -8 -30 -19 -27 -24
3 -5 9 -7 13 -5 8 5 9 -4 17 -93 11 -116 -17 -202 -59 -185 -17 6 -17 8 4 30
12 13 19 27 14 31 -4 5 -10 2 -12 -4 -3 -7 -11 -13 -19 -13 -9 0 -12 -4 -9
-10 3 -5 1 -10 -5 -10 -6 0 -9 -4 -5 -9 5 -10 -13 -27 -20 -19 -2 2 2 26 10
53 19 61 19 175 1 219 -8 18 -11 37 -7 42 11 15 45 31 59 27 21 -8 13 -23 -12
-23 -14 0 -27 -4 -31 -9 -11 -18 11 -20 44 -3 33 15 33 16 14 32 -18 14 -19
18 -5 38 9 14 24 22 41 22 l26 -1 -30 -14 c-26 -12 -27 -13 -8 -14 12 -1 25 4
28 9 3 5 11 10 16 10 21 0 -3 -20 -34 -29 -24 -7 -27 -9 -10 -10 20 -1 93 35
93 46 0 2 -10 2 -22 -2 -21 -5 -21 -5 2 9 14 8 28 12 32 10 5 -3 8 0 8 5 0 15
-17 14 -43 -3 -13 -9 -34 -12 -50 -9 -25 5 -26 6 -10 19 24 18 9 17 -28 -2
-19 -9 -29 -21 -25 -29 7 -18 -31 -45 -62 -45 -21 0 -23 2 -12 15 7 9 20 13
29 10 9 -2 23 0 31 5 11 7 11 10 2 10 -7 0 -10 5 -7 10 3 6 2 10 -4 10 -15 0
-23 -17 -11 -23 6 -3 5 -4 -1 -3 -7 1 -14 12 -16 25 -2 18 0 21 17 16 11 -4
20 -2 20 4 0 6 -11 11 -25 11 -22 0 -30 -9 -26 -32 0 -4 -10 -15 -23 -23 -23
-15 -48 -53 -26 -40 11 7 54 -4 47 -12 -3 -2 -24 -7 -46 -9 -36 -4 -41 -2 -41
15 0 11 9 25 20 31 11 6 18 15 15 20 -3 6 0 7 8 4 8 -3 18 -1 21 5 5 7 -9 9
-41 5 -53 -6 -96 -25 -75 -32 8 -2 19 1 25 7 6 6 22 11 37 10 l25 -1 -28 -10
c-21 -7 -26 -15 -22 -29 6 -16 1 -19 -32 -19 -21 0 -45 5 -53 10 -10 6 -11 10
-2 10 6 0 12 4 12 10 0 6 -10 6 -27 -1 -16 -6 -30 -6 -35 -1 -11 11 36 25 60
18 10 -3 32 7 52 24 l35 30 -44 -19 c-24 -10 -54 -18 -67 -16 -13 1 -24 -2
-24 -7 0 -6 -7 -8 -15 -5 -8 4 -17 2 -20 -3 -4 -6 -11 -10 -16 -10 -17 0 2 21
29 32 15 6 30 11 34 10 3 -1 30 5 60 12 52 13 135 20 110 10 -6 -3 -10 -10 -7
-15 3 -5 14 -4 24 3 17 10 17 13 3 29 -15 17 -18 17 -40 3 -23 -15 -24 -15
-17 5 6 20 5 20 -31 -4 -20 -14 -42 -25 -48 -24 -6 0 -3 6 8 12 10 7 28 20 40
31 21 18 21 18 -6 2 -15 -9 -34 -16 -43 -16 -8 0 -15 -7 -15 -15 0 -17 -45
-21 -55 -5 -3 6 3 10 14 10 33 0 131 62 138 88 3 12 0 44 -6 70 -15 59 -110
272 -122 272 -13 0 -12 -5 21 -70 17 -33 30 -66 30 -75 0 -8 4 -15 9 -15 8 0
41 -87 41 -109 0 -6 -5 -11 -11 -11 -6 0 -8 7 -5 16 3 8 2 13 -3 10 -9 -6 -56
93 -47 101 2 3 -8 29 -24 59 -33 65 -47 109 -29 98 19 -11 1 45 -29 93 -15 23
-33 42 -40 43 -9 0 -9 -6 3 -23 8 -13 13 -26 9 -29 -3 -3 4 -21 15 -39 12 -19
21 -44 21 -55 0 -12 14 -49 30 -82 17 -34 30 -69 30 -80 0 -11 14 -45 31 -77
17 -31 28 -59 26 -61 -2 -3 -55 -24 -118 -48 -63 -24 -143 -58 -179 -76 -50
-25 -76 -33 -112 -31 -28 1 -60 -5 -79 -14 -17 -9 -32 -15 -34 -13 -2 2 18 27
46 57 27 29 47 57 43 62 -7 11 -19 -2 -64 -64 -19 -27 -47 -55 -61 -63 -25
-13 -27 -12 -21 8 3 11 13 23 23 25 10 3 15 11 12 19 -4 10 0 12 10 8 13 -4
15 0 11 20 -2 15 0 26 6 26 6 0 8 5 5 10 -3 6 -2 10 4 10 6 0 13 11 17 24 6
24 18 28 42 12 16 -10 40 10 27 21 -4 5 -10 2 -12 -5 -3 -6 -9 -9 -14 -6 -6 3
-5 11 2 20 9 12 15 12 27 2 12 -10 12 -7 -2 14 -19 29 -14 36 25 36 21 0 25
-4 22 -19 -3 -11 -9 -22 -14 -25 -5 -3 -6 1 -3 9 3 8 -1 14 -10 14 -11 0 -13
-5 -5 -19 7 -13 6 -24 -6 -40 -17 -25 -19 -38 -6 -38 4 0 23 31 40 70 30 64
32 73 21 107 -20 66 -51 120 -101 177 -27 30 -49 60 -49 68 0 10 -2 10 -9 -1
-6 -9 -3 -21 10 -34 10 -12 19 -26 19 -31 0 -6 -12 1 -25 17 -13 15 -22 34
-19 42 6 16 -62 125 -78 125 -5 0 -6 -12 -2 -27z m44 -43 c6 -11 9 -20 7 -20
-2 0 -12 9 -22 20 -10 11 -13 20 -7 20 6 0 16 -9 22 -20z m450 -43 c0 -5 -4
-5 -10 -2 -5 3 -10 14 -10 23 0 15 2 15 10 2 5 -8 10 -19 10 -23z m-273 -205
c14 -29 23 -57 21 -64 -2 -6 -10 4 -18 23 -8 19 -17 36 -20 39 -11 10 -70 107
-70 116 0 19 64 -64 87 -114z m-608 -28 c14 -12 -19 -1 -35 12 -18 14 -18 14
6 3 14 -6 27 -13 29 -15z m85 -23 c5 -8 69 -28 119 -38 29 -5 90 -33 85 -38
-6 -7 -240 63 -252 75 -7 7 -1 10 16 10 15 0 29 -4 32 -9z m536 -39 c-25 -4
-35 2 -26 17 5 7 13 7 27 -2 20 -12 20 -12 -1 -15z m420 -87 c0 -8 -2 -15 -4
-15 -2 0 -6 7 -10 15 -3 8 -1 15 4 15 6 0 10 -7 10 -15z m-16 -37 c-3 -4 -12
-1 -20 7 -9 8 -18 15 -22 15 -3 0 -1 -5 6 -12 17 -17 15 -31 -4 -24 -8 3 -13
2 -10 -2 7 -11 -46 -36 -111 -52 -29 -8 -55 -20 -58 -28 -4 -10 -1 -12 12 -7
33 14 61 17 67 7 3 -5 -13 -13 -36 -16 -31 -5 -39 -9 -28 -16 30 -18 2 -19
-55 -1 -33 11 -52 20 -43 20 9 1 20 6 23 11 4 7 -2 9 -19 4 -16 -4 -26 -2 -26
5 0 6 6 11 13 12 37 2 58 6 64 12 3 4 0 7 -8 7 -12 0 -12 2 1 10 9 6 17 5 21
-2 4 -7 13 -6 28 1 12 7 19 16 16 21 -3 4 19 16 47 26 29 9 59 19 67 22 9 3
12 1 7 -6 -12 -19 2 -14 26 10 20 20 22 20 34 3 7 -10 11 -22 8 -27z m-701
-19 c17 -30 17 -33 0 -53 -10 -11 -21 -23 -24 -26 -3 -3 -11 -15 -18 -27 -7
-15 -21 -23 -36 -23 -27 0 -28 4 -15 35 6 13 9 15 9 5 1 -13 2 -13 11 0 6 10
10 11 10 3 0 -7 4 -13 10 -13 5 0 7 7 4 15 -4 8 1 27 10 40 16 25 16 25 -3 13
-11 -6 -18 -15 -15 -19 2 -4 -3 -9 -11 -13 -21 -8 -19 7 6 38 11 14 18 26 14
26 -7 0 18 29 25 30 3 0 13 -14 23 -31z m377 -88 c0 -5 -12 -6 -27 -3 -24 5
-25 6 -8 12 21 8 35 4 35 -9z m-58 -15 c21 -1 41 -6 45 -10 4 -5 -3 -6 -16 -3
-18 4 -21 3 -12 -6 9 -9 16 -9 30 0 13 8 30 9 60 1 22 -6 41 -13 41 -17 0 -3
18 -7 41 -9 47 -3 153 -44 182 -69 31 -28 40 -52 26 -69 -6 -8 -8 -14 -3 -14
5 0 10 -17 12 -38 2 -38 2 -38 -32 -34 -28 3 -34 8 -32 28 1 28 32 33 39 7 3
-12 5 -8 6 9 l1 26 -82 -4 c-55 -3 -78 -1 -68 5 8 5 18 7 22 5 4 -3 8 -1 8 5
0 6 -14 7 -34 4 -28 -4 -37 -1 -48 16 -15 24 -28 27 -28 7 0 -7 15 -21 33 -30
l32 -17 -38 5 c-37 5 -37 5 -32 -27 3 -20 2 -27 -3 -19 -7 10 -11 10 -22 -3
-7 -8 -18 -15 -25 -15 -7 0 -40 -23 -73 -50 -33 -28 -77 -57 -97 -66 -24 -10
-35 -20 -31 -29 3 -8 0 -17 -6 -21 -7 -4 -8 -3 -4 4 4 7 3 12 -3 12 -22 0 -19
-18 6 -29 31 -14 38 -9 24 17 -10 18 -6 23 35 43 38 18 48 19 55 8 7 -12 9
-12 9 1 0 12 2 12 9 1 6 -9 11 -10 15 -2 4 6 2 11 -4 11 -8 0 -7 6 1 21 9 17
13 19 20 8 6 -10 9 -11 9 -1 0 6 7 12 16 12 10 0 14 -6 11 -15 -7 -17 9 -30
18 -15 4 6 1 17 -5 25 -12 14 -6 35 10 35 5 0 7 -8 3 -17 -5 -15 -3 -15 11 2
10 11 14 14 11 7 -5 -10 -2 -13 11 -10 10 2 20 11 22 21 2 12 -1 15 -12 11 -9
-4 -16 -1 -16 6 0 10 24 12 104 7 118 -8 156 -18 156 -45 0 -43 -126 -116
-157 -91 -11 10 -18 9 -31 -5 -16 -16 -15 -17 13 -11 27 5 28 4 7 -5 -13 -5
-28 -8 -32 -5 -5 3 -11 1 -14 -3 -3 -5 -26 -10 -52 -10 -25 -1 -51 -5 -57 -9
-6 -4 -7 -1 -2 8 7 12 6 12 -7 1 -13 -11 -103 -24 -158 -23 -33 0 -150 48
-174 70 -17 16 -26 20 -26 11 0 -10 -3 -11 -11 -3 -8 8 -8 25 -2 55 5 23 6 57
3 75 -9 41 -2 50 40 56 l35 4 -37 1 -36 2 -4 57 c-2 43 1 62 14 77 10 12 17
16 18 9 0 -7 -4 -13 -10 -13 -5 0 -10 -5 -10 -11 0 -6 14 1 31 15 17 14 43 29
57 32 15 3 45 14 67 24 23 11 51 17 65 14 14 -3 42 -6 62 -8z m-310 -139 c3
-76 2 -80 -26 -85 -12 -2 -17 1 -13 10 3 7 8 21 12 31 4 9 3 17 -3 17 -5 0
-15 -13 -22 -30 -10 -25 -18 -30 -46 -30 -32 0 -59 20 -36 28 16 5 15 32 -2
51 -16 19 -27 73 -18 88 11 18 63 19 109 3 l42 -14 3 -69z m692 56 c4 -4 24
-6 45 -4 36 2 73 -20 58 -36 -4 -3 -3 -11 2 -17 4 -6 11 -24 15 -41 7 -29 7
-29 -12 -12 -14 13 -25 15 -42 9 -17 -6 -20 -11 -11 -17 8 -4 17 -2 21 5 5 8
10 -3 15 -29 4 -26 3 -47 -4 -55 -9 -11 -9 -15 1 -19 9 -4 9 -6 1 -6 -6 -1
-15 4 -18 9 -9 15 -22 12 -22 -5 0 -25 31 -28 49 -5 21 26 22 16 6 -45 l-12
-46 -53 2 c-29 1 -53 6 -53 11 0 4 6 8 13 8 26 0 38 41 37 123 -2 103 -9 147
-24 147 -7 0 -21 7 -32 15 -15 12 -16 14 -3 15 9 0 19 -3 23 -7z m312 -40 c-3
-3 1 -18 9 -34 8 -15 15 -47 15 -70 0 -44 -29 -152 -42 -157 -5 -2 -5 -8 -2
-14 4 -6 -2 -6 -14 1 -28 15 -42 14 -42 -4 0 -8 -4 -15 -10 -15 -13 0 -13 36
0 60 8 16 20 86 22 135 0 21 -14 91 -23 108 -11 19 -4 24 41 29 24 3 59 -26
46 -39z m-1283 1 c-3 -19 0 -53 7 -75 11 -32 11 -44 0 -63 -7 -13 -11 -42 -8
-65 2 -26 0 -37 -6 -31 -13 13 -29 13 -21 0 3 -5 0 -7 -9 -4 -8 3 -17 12 -20
20 -3 9 -10 12 -16 9 -9 -6 -40 17 -40 29 0 14 31 4 49 -15 11 -12 25 -18 31
-14 14 9 -23 47 -41 43 -7 -2 -16 13 -21 32 -11 42 4 90 27 90 8 0 15 7 15 15
0 8 7 15 15 15 13 0 17 6 14 26 -1 6 20 23 28 24 1 0 -1 -16 -4 -36z m120 -26
c2 -27 1 -48 -4 -48 -5 0 -9 -7 -9 -15 0 -11 -11 -15 -40 -15 -22 0 -40 3 -40
8 0 4 -3 18 -7 31 -4 17 -3 22 5 17 7 -4 12 -2 12 3 0 6 -6 11 -14 11 -8 0
-12 8 -9 23 4 20 10 23 39 21 24 -2 37 2 41 12 9 24 20 3 26 -48z m-153 42 c0
-5 -2 -10 -4 -10 -3 0 -8 5 -11 10 -3 6 -1 10 4 10 6 0 11 -4 11 -10z m1760
-70 c0 -5 -2 -10 -4 -10 -3 0 -8 5 -11 10 -3 6 -1 10 4 10 6 0 11 -4 11 -10z
m-1840 -25 c-6 -15 -6 -34 0 -49 7 -18 5 -26 -5 -30 -20 -7 -24 3 -20 54 4 55
2 50 20 50 11 0 12 -5 5 -25z m1810 21 c0 -2 -9 -6 -20 -9 -11 -3 -18 -1 -14
4 5 9 34 13 34 5z m-80 -16 c0 -5 -8 -10 -17 -10 -15 0 -16 2 -3 10 19 12 20
12 20 0z m-1489 -47 c-8 -15 -10 -15 -11 -2 0 17 10 32 18 25 2 -3 -1 -13 -7
-23z m659 7 c0 -13 -5 -18 -15 -14 -8 4 -15 12 -15 20 0 8 7 14 15 14 8 0 15
-9 15 -20z m60 0 c0 -9 -9 -16 -20 -17 -13 -1 -20 4 -20 17 0 13 7 18 20 17
11 -1 20 -8 20 -17z m70 -1 c0 -14 -7 -19 -25 -19 -18 0 -25 5 -25 19 0 13 7
19 25 19 18 0 25 -6 25 -19z m180 -3 c0 -14 -4 -28 -10 -31 -6 -4 -10 7 -10
24 0 17 5 31 10 31 6 0 10 -11 10 -24z m-989 -11 c0 -5 2 -21 4 -35 4 -33 -6
-84 -14 -71 -4 5 -26 11 -49 12 -37 3 -42 6 -42 26 0 13 7 37 15 53 12 24 20
28 50 27 19 -1 35 -6 36 -12z m173 0 c3 -8 3 -28 0 -43 -2 -15 -6 -42 -7 -61
-2 -33 -4 -35 -60 -48 -75 -17 -100 -6 -93 40 3 18 8 53 11 80 l6 47 69 0 c51
0 69 -4 74 -15z m428 -36 c-13 -5 -30 -16 -39 -24 -8 -9 -18 -13 -22 -10 -10
11 39 45 63 44 20 0 20 -1 -2 -10z m913 -9 c17 -8 16 -8 -7 -7 -16 1 -28 5
-28 9 0 10 9 9 35 -2z m-1013 -62 c-7 -7 -12 -8 -12 -2 0 14 12 26 19 19 2 -3
-1 -11 -7 -17z m-692 8 c0 -3 -4 -8 -10 -11 -5 -3 -10 -1 -10 4 0 6 5 11 10
11 6 0 10 -2 10 -4z m1465 -7 c-4 -5 1 -20 12 -31 18 -21 18 -21 -12 -14 -16
4 -45 10 -62 13 -48 8 -41 26 8 21 35 -3 38 -2 23 9 -16 12 -15 13 10 13 17 0
25 -4 21 -11z m475 7 c0 -2 -7 -7 -16 -10 -8 -3 -12 -2 -9 4 6 10 25 14 25 6z
m-1631 -94 c7 -13 6 -23 -1 -30 -19 -19 -45 -14 -51 11 -6 21 -5 21 8 3 8 -11
17 -18 19 -15 7 6 -17 35 -34 42 -8 3 -1 6 17 6 22 1 36 -5 42 -17z m173 -32
c12 -17 45 -58 72 -91 37 -46 45 -64 37 -72 -9 -9 -10 -7 -5 8 7 17 6 18 -8 5
-14 -13 -14 -16 0 -26 9 -7 12 -16 7 -25 -5 -8 -4 -10 0 -6 5 4 15 -3 23 -15
13 -22 13 -18 -2 30 -4 13 -3 22 3 22 5 0 13 -10 17 -22 4 -13 12 -26 18 -30
8 -6 6 -11 -4 -18 -12 -8 -12 -10 -1 -10 10 0 9 -6 -5 -27 -10 -16 -26 -44
-35 -63 -10 -20 -36 -51 -58 -70 -23 -19 -41 -40 -41 -46 0 -6 -7 -17 -15 -24
-13 -11 -14 -10 -8 6 7 20 98 142 118 159 7 6 17 20 24 33 11 20 9 25 -19 48
-16 14 -30 30 -30 35 0 6 -9 19 -19 31 -19 19 -18 54 0 42 5 -3 9 0 9 5 0 14
-17 14 -25 1 -9 -14 -28 -1 -22 14 3 7 -3 18 -14 24 -10 6 -21 27 -25 47 -3
19 -10 35 -14 35 -4 0 -15 12 -25 26 -16 25 -16 25 3 15 11 -6 31 -24 44 -41z
m483 40 c3 -5 14 -10 24 -10 10 0 24 -7 31 -15 16 -19 9 -19 -35 2 -29 14 -37
15 -48 3 -9 -9 -9 -11 0 -6 12 7 83 -18 83 -29 0 -8 -82 6 -109 20 l-25 12 30
16 c35 19 41 20 49 7z m-215 -58 c14 -5 59 -15 100 -22 70 -11 190 -55 190
-69 -1 -23 -20 -33 -51 -26 -29 7 -31 9 -14 15 12 4 23 3 27 -4 5 -7 8 -4 8 7
0 14 -6 16 -27 11 -22 -4 -25 -3 -13 5 13 9 13 11 -2 11 -9 0 -19 6 -22 13 -3
6 -3 -1 0 -18 4 -25 3 -27 -6 -12 -6 9 -15 15 -20 12 -4 -3 -29 4 -54 15 -25
10 -53 17 -61 14 -8 -4 -15 -2 -15 4 0 6 -14 13 -31 17 -17 4 -33 13 -36 21
-3 8 -9 11 -14 8 -10 -6 -12 9 -2 19 4 4 9 3 13 -2 3 -5 17 -14 30 -19z m51
11 c13 -15 11 -16 -16 -9 -41 10 -56 26 -23 26 14 0 32 -7 39 -17z m-448 -31
c8 -15 15 -46 16 -70 2 -39 1 -42 -21 -40 -25 3 -38 15 -38 37 0 11 4 9 14 -5
13 -16 17 -17 28 -5 7 8 8 11 2 8 -7 -4 -14 0 -18 8 -3 9 0 15 9 15 12 0 12 6
-2 36 -10 19 -19 31 -21 25 -2 -5 2 -19 8 -30 6 -12 9 -21 6 -21 -2 0 -11 -3
-19 -6 -10 -3 -20 3 -27 16 -10 18 -8 25 12 44 27 26 33 24 51 -12z m707 -113
c0 -28 -15 -23 -16 6 -1 14 2 22 7 19 5 -3 9 -14 9 -25z m-710 -8 c0 -5 -7
-11 -15 -15 -15 -5 -20 5 -8 17 9 10 23 9 23 -2z m-40 -25 c0 -2 -9 -6 -20 -9
-11 -3 -20 -1 -20 4 0 5 9 9 20 9 11 0 20 -2 20 -4z m731 -19 c-6 -6 -11 -19
-11 -29 0 -31 -32 -98 -46 -98 -11 0 -13 7 -8 28 12 47 54 123 65 116 8 -4 7
-10 0 -17z m-1056 -97 c-3 -5 -12 -10 -18 -10 -7 0 -6 4 3 10 19 12 23 12 15
0z m999 -55 c-4 -8 -10 -15 -15 -15 -5 0 -9 -7 -9 -15 0 -8 -4 -15 -10 -15
-14 0 -13 7 6 35 18 27 37 34 28 10z m-533 -168 c-10 -9 -11 -8 -5 6 3 10 9
15 12 12 3 -3 0 -11 -7 -18z m449 -22 c-15 -39 -23 -25 -8 16 6 18 13 29 15
23 2 -6 -1 -24 -7 -39z"/>
<path d="M1313 1325 c-37 -10 -43 -21 -13 -21 11 0 20 4 20 8 0 4 7 8 15 8 8
0 15 -5 15 -12 0 -6 3 -9 6 -5 3 3 2 11 -3 19 -6 10 -16 11 -40 3z"/>
<path d="M1367 1325 c3 -8 9 -12 14 -9 12 7 11 11 -5 17 -10 4 -13 1 -9 -8z"/>
<path d="M1208 1253 c-10 -2 -18 -7 -18 -9 0 -6 30 -37 31 -32 4 20 8 48 6 47
-1 -1 -10 -3 -19 -6z"/>
<path d="M736 1283 c-6 -14 -5 -15 5 -6 7 7 10 15 7 18 -3 3 -9 -2 -12 -12z"/>
<path d="M1018 1193 c-2 -10 5 -25 16 -34 19 -16 21 -16 32 0 7 9 16 13 20 9
4 -4 1 -15 -6 -23 -11 -13 -11 -19 3 -33 10 -9 17 -11 17 -5 0 7 -5 15 -10 18
-6 4 -7 11 -4 17 5 7 12 4 21 -7 13 -18 13 -18 13 0 0 18 1 18 15 -1 13 -17
16 -17 28 -3 6 8 20 18 30 22 13 5 17 1 17 -17 0 -14 3 -32 6 -40 4 -12 2 -15
-9 -10 -8 3 -18 1 -22 -5 -3 -6 1 -11 10 -11 22 0 78 30 71 37 -3 4 3 17 15
29 21 22 21 23 1 18 -11 -3 -25 -18 -32 -32 -10 -24 -13 -25 -21 -9 -6 9 -8
21 -5 26 9 14 -22 34 -40 27 -12 -5 -15 -2 -10 10 5 14 4 15 -9 4 -9 -7 -14
-19 -11 -27 4 -10 1 -11 -12 -5 -9 5 -23 7 -29 5 -7 -3 -13 2 -13 11 0 9 -6
16 -14 16 -8 0 -16 6 -19 13 -2 7 -8 8 -13 3 -5 -5 -4 -11 4 -13 6 -3 9 -9 6
-14 -3 -6 -11 -6 -20 2 -7 6 -12 15 -9 19 3 5 1 11 -4 14 -5 4 -11 -2 -13 -11z"/>
<path d="M964 1185 c-10 -8 -17 -15 -14 -15 45 -10 52 -9 47 4 -3 8 -1 17 6
20 7 3 6 5 -4 5 -8 1 -24 -6 -35 -14z"/>
<path d="M1118 1173 c7 -3 16 -2 19 1 4 3 -2 6 -13 5 -11 0 -14 -3 -6 -6z"/>
<path d="M1230 1160 c0 -5 5 -10 10 -10 6 0 10 5 10 10 0 6 -4 10 -10 10 -5 0
-10 -4 -10 -10z"/>
<path d="M970 1151 c0 -5 10 -13 23 -17 12 -4 41 -20 64 -35 23 -16 46 -29 52
-29 6 0 11 -6 11 -12 0 -7 23 -26 51 -42 29 -16 49 -23 45 -17 -4 7 -2 18 4
26 10 12 8 15 -11 15 -13 0 -30 9 -36 20 -11 16 -9 21 9 34 12 9 19 19 15 23
-4 4 -17 -2 -28 -14 -17 -17 -19 -24 -10 -42 18 -32 -5 -25 -29 10 -12 16 -25
28 -27 25 -3 -3 -18 2 -32 12 -14 10 -39 24 -56 32 -16 8 -33 16 -37 18 -5 2
-8 -1 -8 -7z m225 -129 c-3 -3 -11 0 -18 7 -9 10 -8 11 6 5 10 -3 15 -9 12
-12z"/>
<path d="M1298 1136 c-10 -7 -18 -21 -18 -30 0 -9 -4 -16 -10 -16 -5 0 -10 -4
-10 -10 0 -19 21 -10 30 14 5 13 19 31 32 40 14 10 17 16 8 16 -8 0 -23 -7
-32 -14z"/>
<path d="M932 1133 c-18 -7 14 -43 37 -42 12 0 11 3 -4 9 -19 8 -19 9 3 9 12
1 22 -3 22 -9 0 -5 7 -10 15 -10 16 0 35 -30 35 -54 0 -10 -6 -13 -17 -9 -15
5 -16 3 -6 -7 9 -10 16 -10 25 -2 10 8 13 5 14 -11 2 -20 -2 -22 -53 -19 -42
3 -53 7 -49 18 3 8 1 14 -4 14 -6 0 -10 -6 -10 -12 0 -9 -22 -13 -75 -13 -41
0 -75 -3 -75 -7 0 -5 53 -8 118 -9 64 -1 154 -2 200 -3 78 -2 101 5 66 18 -8
3 -28 3 -42 0 -21 -4 -23 -3 -12 5 11 8 12 13 3 22 -14 14 -43 5 -42 -13 0
-10 2 -10 6 0 2 6 9 12 14 12 4 0 6 -7 3 -15 -6 -15 -33 -21 -35 -7 0 4 -2 17
-3 30 -2 12 2 22 8 22 6 0 2 6 -9 12 -11 6 -27 21 -36 31 -9 11 -27 22 -40 24
-13 2 -25 8 -27 13 -4 11 -10 11 -30 3z"/>
<path d="M1344 1132 c-6 -4 -17 -24 -23 -45 -10 -30 -17 -37 -32 -32 -11 4
-19 2 -19 -4 0 -6 9 -11 19 -11 22 0 53 38 44 53 -3 6 -1 7 6 3 6 -4 9 -16 6
-27 -4 -12 -1 -21 9 -25 21 -8 46 13 39 32 -3 8 0 14 6 14 6 0 11 -11 11 -24
0 -29 12 -39 34 -30 20 8 21 28 1 44 -10 9 -15 9 -15 1 0 -6 5 -11 11 -11 5 0
7 -5 4 -10 -9 -15 -25 -2 -25 20 0 10 -4 21 -9 24 -12 8 -42 -4 -36 -14 6 -10
-5 -40 -15 -40 -4 0 -6 20 -5 45 1 25 1 45 1 45 -1 0 -6 -4 -12 -8z"/>
<path d="M855 1100 c-11 -4 -30 -10 -42 -15 -24 -8 -32 -35 -10 -35 8 0 7 -4
-3 -10 -13 -8 -12 -10 3 -10 14 0 17 5 12 20 -5 17 -2 20 24 20 16 0 33 -4 36
-10 3 -5 1 -10 -4 -10 -6 0 -11 -4 -11 -10 0 -5 7 -10 16 -10 8 0 13 4 9 9 -8
13 35 52 49 44 7 -4 8 -3 1 4 -14 15 -57 22 -80 13z m43 -17 c-10 -2 -28 -2
-40 0 -13 2 -5 4 17 4 22 1 32 -1 23 -4z"/>
<path d="M1120 1100 c0 -5 7 -7 15 -4 8 4 15 8 15 10 0 2 -7 4 -15 4 -8 0 -15
-4 -15 -10z"/>
<path d="M950 1073 c1 -13 50 -45 50 -33 0 6 -7 13 -15 16 -8 4 -12 10 -9 15
3 5 -2 9 -10 9 -9 0 -16 -3 -16 -7z"/>
<path d="M1385 1030 c-3 -5 1 -10 10 -10 9 0 13 5 10 10 -3 6 -8 10 -10 10 -2
0 -7 -4 -10 -10z"/>
<path d="M868 1013 c7 -3 16 -2 19 1 4 3 -2 6 -13 5 -11 0 -14 -3 -6 -6z"/>
<path d="M970 1010 c0 -5 7 -7 15 -4 8 4 15 8 15 10 0 2 -7 4 -15 4 -8 0 -15
-4 -15 -10z"/>
<path d="M1007 962 c-9 -2 -17 -8 -17 -13 0 -6 -4 -7 -10 -4 -5 3 -10 2 -10
-4 0 -5 5 -13 10 -16 6 -3 10 -2 10 3 0 13 48 25 62 16 15 -10 -20 -34 -49
-34 -14 0 -23 -6 -23 -15 0 -8 5 -15 11 -15 5 0 7 5 4 10 -3 6 -1 10 4 10 6 0
11 -4 11 -8 0 -14 -24 -32 -43 -32 -17 0 -18 2 -6 17 13 15 12 15 -8 5 -38
-21 -36 -32 4 -32 26 0 46 7 63 23 14 12 39 28 55 35 17 7 36 21 43 32 15 24
9 26 -13 4 -13 -13 -18 -14 -31 -3 -10 9 -12 14 -4 19 11 7 -29 8 -63 2z"/>
<path d="M798 953 c6 -2 18 -2 25 0 6 3 1 5 -13 5 -14 0 -19 -2 -12 -5z"/>
<path d="M840 941 c0 -5 18 -9 40 -9 22 0 40 3 40 9 0 5 -18 9 -40 9 -22 0
-40 -4 -40 -9z"/>
<path d="M930 940 c0 -6 7 -10 15 -10 8 0 15 2 15 4 0 2 -7 6 -15 10 -8 3 -15
1 -15 -4z"/>
<path d="M1322 925 c21 -16 22 -71 2 -79 -14 -5 -15 -4 -4 9 8 9 8 15 2 15
-21 0 -25 -23 -7 -36 20 -15 50 0 38 19 -4 7 1 8 13 4 18 -7 18 -6 2 7 -20 15
-25 42 -5 29 6 -4 21 -6 32 -4 17 3 17 1 5 -13 -10 -13 -10 -20 -2 -28 9 -9
13 -4 18 20 4 19 13 32 21 32 13 0 13 -3 3 -15 -7 -9 -11 -18 -8 -20 10 -10
30 25 24 40 -6 18 -43 20 -48 3 -3 -9 -12 -9 -36 1 -17 7 -30 16 -28 20 3 4
-4 7 -15 7 -16 0 -17 -3 -7 -11z"/>
<path d="M1263 915 c-3 -9 -18 -22 -34 -31 -19 -9 -29 -22 -29 -37 0 -13 -6
-31 -13 -42 -13 -17 -14 -17 -12 1 0 11 5 26 10 33 5 9 4 12 -3 7 -6 -3 -13
-2 -17 4 -3 5 -14 10 -23 10 -15 0 -15 -1 0 -12 9 -7 18 -24 20 -38 3 -22 8
-25 45 -26 29 0 40 3 34 10 -5 6 -11 20 -14 31 -2 11 -4 8 -2 -7 1 -16 -2 -28
-7 -28 -5 0 -8 17 -6 37 4 45 28 58 28 14 0 -34 15 -48 35 -31 9 7 12 26 9 56
-4 45 7 58 25 27 9 -15 10 -15 11 -2 0 33 -45 53 -57 24z m9 -42 c6 -21 0 -43
-11 -43 -5 0 -8 14 -9 30 -1 32 13 41 20 13z"/>
<path d="M1380 920 c0 -5 5 -10 10 -10 6 0 10 5 10 10 0 6 -4 10 -10 10 -5 0
-10 -4 -10 -10z"/>
<path d="M796 912 c-7 -12 7 -28 32 -34 15 -4 22 -2 22 9 0 8 -4 11 -10 8 -5
-3 -15 -3 -21 1 -8 4 -7 9 2 15 11 7 10 9 -3 9 -9 0 -19 -4 -22 -8z"/>
<path d="M863 913 c15 -2 39 -2 55 0 15 2 2 4 -28 4 -30 0 -43 -2 -27 -4z"/>
<path d="M865 890 c-3 -5 -3 -14 0 -20 9 -15 35 -12 41 5 4 8 9 13 13 11 4 -3
13 -1 21 5 11 6 2 9 -27 9 -23 0 -45 -4 -48 -10z m32 -6 c-3 -3 -12 -4 -19 -1
-8 3 -5 6 6 6 11 1 17 -2 13 -5z"/>
<path d="M1119 833 c-1 -5 -1 -11 0 -15 1 -8 -41 -4 -57 6 -7 4 -12 3 -12 -3
0 -26 66 -36 80 -11 8 13 9 12 10 -4 0 -11 3 -17 6 -13 8 8 -5 47 -17 47 -5 0
-10 -3 -10 -7z"/>
<path d="M1014 804 c-18 -14 -18 -15 4 -4 12 6 22 13 22 15 0 8 -5 6 -26 -11z"/>
<path d="M1015 780 c-3 -6 1 -7 9 -4 18 7 21 14 7 14 -6 0 -13 -4 -16 -10z"/>
<path d="M1050 776 c0 -12 17 -14 40 -6 3 1 14 2 25 1 20 -1 20 -1 0 8 -12 5
-25 5 -32 -1 -9 -7 -13 -7 -13 1 0 6 -4 11 -10 11 -5 0 -10 -6 -10 -14z"/>
<path d="M634 1145 c-7 -17 22 -55 42 -55 43 0 84 44 52 55 -49 15 -89 15 -94
0z m36 -21 c0 -8 5 -14 11 -14 6 0 9 7 5 15 -4 10 1 15 14 15 11 0 20 -3 20
-6 0 -9 -28 -34 -37 -34 -12 0 -42 37 -36 44 9 9 23 -4 23 -20z"/>
<path d="M1500 1101 c13 -9 13 -11 0 -11 -11 0 -9 -4 5 -12 11 -6 23 -15 26
-21 4 -5 8 2 11 15 3 14 0 25 -6 25 -6 0 -20 4 -31 8 -16 5 -17 5 -5 -4z"/>
<path d="M1507 863 c-31 -16 -28 -34 4 -26 19 5 37 30 28 37 -2 1 -16 -4 -32
-11z"/>
<path d="M1700 1105 c0 -15 29 -55 41 -55 5 0 9 9 9 21 0 12 -5 19 -12 16 -7
-2 -18 3 -25 12 -7 9 -13 11 -13 6z"/>
<path d="M1713 1027 c2 -7 10 -12 18 -12 20 0 30 -17 22 -40 -5 -17 -4 -18 11
-6 19 16 21 47 4 57 -21 13 -60 14 -55 1z"/>
<path d="M1753 930 c3 -11 1 -20 -4 -20 -5 0 -9 4 -9 9 0 5 -7 11 -15 15 -10
3 -15 -1 -15 -12 0 -13 8 -18 25 -17 36 0 64 45 29 45 -11 0 -15 -6 -11 -20z"/>
<path d="M1729 888 c-1 -2 -3 -13 -4 -25 -1 -13 2 -20 10 -17 7 3 11 14 8 25
-5 17 -11 24 -14 17z"/>
<path d="M1692 855 c-11 -12 -10 -15 3 -15 8 0 15 7 15 15 0 18 -2 18 -18 0z"/>
<path d="M405 985 c0 -24 3 -41 8 -38 4 2 5 9 2 14 -4 5 -2 9 3 9 18 0 21 40
4 49 -15 8 -17 3 -17 -34z"/>
<path d="M457 1004 c-11 -11 -8 -44 3 -44 15 0 24 30 13 41 -5 5 -12 6 -16 3z"/>
<path d="M570 1071 c0 -5 -9 -13 -20 -16 -23 -7 -25 -15 -7 -39 12 -16 14 -16
31 3 17 19 17 19 -3 14 -13 -3 -21 -1 -21 8 0 7 3 9 7 6 7 -8 33 11 33 24 0 5
-4 9 -10 9 -5 0 -10 -4 -10 -9z"/>
<path d="M551 941 c-17 -17 -19 -24 -9 -35 14 -14 38 -11 38 6 0 5 -4 6 -10 3
-5 -3 -10 0 -10 9 0 8 6 16 13 19 6 2 9 8 5 11 -3 4 -16 -2 -27 -13z"/>
<path d="M506 935 c-3 -8 -1 -15 4 -15 6 0 10 7 10 15 0 8 -2 15 -4 15 -2 0
-6 -7 -10 -15z"/>
<path d="M700 959 c0 -14 26 -40 33 -32 8 8 -11 43 -23 43 -6 0 -10 -5 -10
-11z"/>
<path d="M680 875 c-12 -15 -10 -52 3 -47 4 1 18 2 32 2 16 0 25 6 25 15 0 8
-7 15 -16 15 -8 0 -12 -4 -9 -10 3 -6 -1 -7 -9 -4 -19 7 -21 30 -3 37 7 4 8 6
1 6 -6 1 -17 -6 -24 -14z"/>
<path d="M627 857 c-9 -24 -1 -37 23 -37 13 0 17 5 14 15 -4 8 -10 13 -14 10
-5 -3 -10 3 -12 12 -3 17 -4 17 -11 0z"/>
<path d="M697 684 c6 -15 23 -19 23 -5 0 5 -7 11 -14 14 -10 4 -13 1 -9 -9z"/>
<path d="M2930 1232 c-19 -6 -50 -38 -50 -51 0 -5 10 -7 21 -4 18 5 20 3 14
-16 -4 -13 -2 -21 5 -21 6 0 9 4 6 9 -4 5 0 11 6 14 10 4 11 7 1 18 -15 15
-17 39 -3 39 5 0 7 -8 3 -17 -5 -14 -3 -15 6 -7 17 16 10 42 -9 36z"/>
<path d="M1800 1220 c0 -5 -6 -7 -14 -4 -7 3 -16 -2 -19 -10 -4 -10 -1 -13 7
-10 7 3 26 6 41 7 16 1 30 9 32 17 4 13 3 13 -7 0 -9 -11 -13 -12 -17 -2 -6
14 -23 16 -23 2z"/>
<path d="M2780 1188 c0 -18 -2 -20 -10 -8 -5 8 -12 11 -15 8 -4 -4 3 -15 14
-25 23 -19 27 -33 10 -33 -5 0 -8 4 -5 8 2 4 -3 13 -13 19 -13 8 -17 7 -17 -8
0 -9 4 -15 9 -12 5 3 8 0 6 -6 -8 -24 -24 -6 -24 27 0 21 -5 32 -14 32 -9 0
-12 -8 -9 -24 3 -15 0 -27 -8 -30 -8 -3 -11 0 -8 9 4 10 0 12 -15 8 -18 -5
-19 -7 -5 -20 8 -8 21 -12 29 -9 9 3 12 0 9 -9 -4 -11 2 -13 28 -8 18 3 41 6
50 6 12 1 16 7 13 17 -3 9 0 17 7 17 7 0 21 4 30 8 12 5 20 2 24 -9 3 -9 12
-16 20 -16 19 0 18 16 -1 24 -8 3 -15 17 -15 31 0 30 -16 33 -25 6 -4 -13 -12
-18 -22 -14 -12 5 -14 3 -8 -7 5 -8 3 -11 -6 -8 -8 3 -13 15 -11 26 2 12 -2
22 -7 22 -6 0 -11 -10 -11 -22z"/>
<path d="M1840 1190 c-13 -8 -13 -10 2 -10 9 0 20 5 23 10 8 13 -5 13 -25 0z"/>
<path d="M1881 1187 c-7 -7 -29 -17 -49 -22 -27 -8 -37 -16 -37 -30 0 -16 6
-20 34 -17 18 1 41 7 50 13 12 7 5 9 -26 6 -24 -3 -43 0 -43 4 0 11 11 12 73
9 51 -2 58 6 28 32 -14 12 -22 13 -30 5z"/>
<path d="M1398 1168 c-9 -5 -6 -8 9 -8 12 0 24 4 27 8 7 11 -19 11 -36 0z"/>
<path d="M2627 1167 c-3 -9 -2 -17 3 -17 6 0 10 -8 9 -17 0 -11 -3 -13 -6 -5
-2 6 -13 12 -23 12 -10 0 -22 5 -25 10 -9 15 -28 12 -22 -4 9 -22 -5 -28 -20
-8 -12 16 -13 16 -7 -1 5 -14 1 -17 -22 -17 -43 0 -64 -3 -64 -9 0 -13 16 -27
30 -26 8 0 20 -6 27 -15 6 -8 15 -11 20 -6 4 5 2 11 -4 13 -7 3 -13 12 -13 21
0 10 3 13 8 7 4 -6 18 -11 32 -10 15 0 24 -5 23 -12 -2 -7 4 -13 13 -13 8 0
12 5 9 10 -13 21 -24 70 -14 65 5 -4 9 -15 9 -26 0 -16 5 -19 20 -14 12 4 20
2 20 -5 0 -6 -4 -8 -10 -5 -5 3 -10 1 -10 -4 0 -17 18 -13 29 7 10 16 10 16
11 0 0 -10 4 -18 9 -18 11 0 9 39 -3 58 -4 7 -4 17 0 24 4 6 3 8 -4 4 -5 -3
-12 -1 -14 6 -3 8 -7 6 -11 -5z"/>
<path d="M2828 1133 c6 -2 9 -10 6 -15 -4 -7 -2 -8 4 -4 18 11 14 26 -5 25
-11 0 -13 -3 -5 -6z"/>
<path d="M1600 1096 c0 -19 27 -39 40 -31 8 5 5 13 -9 26 -24 23 -31 24 -31 5z"/>
<path d="M1810 1075 c9 -11 17 -12 31 -4 25 13 24 14 -12 17 -27 2 -30 0 -19
-13z"/>
<path d="M1845 1050 c-3 -5 1 -10 9 -10 9 0 16 5 16 10 0 6 -4 10 -9 10 -6 0
-13 -4 -16 -10z"/>
<path d="M2400 1050 c0 -5 4 -10 9 -10 6 0 13 5 16 10 3 6 -1 10 -9 10 -9 0
-16 -4 -16 -10z"/>
<path d="M1620 1042 c-8 -4 -16 -15 -16 -24 -1 -15 0 -16 22 -1 36 23 31 42
-6 25z"/>
<path d="M1646 1023 c-3 -3 -1 -12 5 -20 9 -10 8 -13 -2 -13 -9 0 -10 -3 -3
-8 6 -4 13 -14 16 -22 3 -8 6 2 6 23 0 36 -9 53 -22 40z"/>
<path d="M2740 1010 c-8 -5 -11 -12 -7 -16 4 -4 13 -2 19 4 15 15 7 24 -12 12z"/>
<path d="M1924 999 c-5 -8 -2 -10 8 -6 9 3 21 0 28 -6 10 -9 11 -9 8 3 -6 19
-34 25 -44 9z"/>
<path d="M2351 993 c-10 -11 -15 -12 -21 -3 -6 9 -9 9 -13 -1 -3 -8 -6 -9 -6
-4 -1 6 -44 9 -115 7 -107 -3 -114 -4 -109 -23 5 -17 15 -19 89 -20 46 -1 110
-2 142 -3 64 -2 84 2 76 15 -3 5 6 9 20 9 18 0 26 -5 26 -17 0 -15 -2 -15 -9
-4 -8 12 -11 12 -25 -1 -14 -14 -13 -16 12 -15 15 1 30 6 34 12 4 6 13 3 21
-9 13 -18 14 -18 21 -1 4 11 1 22 -6 27 -10 6 -8 8 4 8 11 0 20 -10 24 -25 3
-14 10 -25 15 -25 5 0 6 7 3 15 -4 8 -1 15 5 15 6 0 11 -7 11 -15 0 -8 4 -15
9 -15 19 0 -2 39 -23 43 -14 3 -10 5 12 6 21 0 31 -3 27 -9 -9 -14 14 -42 28
-33 6 4 3 9 -9 14 -17 7 -16 8 6 8 20 1 22 3 10 11 -11 7 -6 10 20 9 29 0 31
-2 15 -9 -18 -8 -19 -9 -1 -9 11 -1 16 -6 13 -15 -4 -10 0 -12 16 -8 12 3 16
7 9 10 -14 4 -16 32 -3 32 5 0 13 -10 16 -21 5 -15 9 -18 15 -9 6 9 10 8 19
-6 9 -17 10 -16 11 10 0 21 4 27 16 22 9 -3 17 -6 20 -6 2 0 1 -7 -2 -15 -4
-8 -10 -12 -15 -9 -5 3 -9 0 -9 -6 0 -6 18 -9 45 -8 25 2 45 6 45 11 0 4 -7 7
-15 7 -8 0 -15 5 -15 11 0 7 10 9 25 7 14 -3 25 -1 25 4 0 5 5 6 10 3 6 -3 10
-15 10 -26 0 -10 5 -19 11 -19 6 0 8 9 4 20 -5 15 -2 20 10 20 12 0 16 -6 13
-18 -3 -11 0 -19 7 -19 7 0 15 13 17 28 3 15 1 26 -4 23 -4 -3 -8 4 -8 15 0
12 -4 21 -9 21 -5 0 -7 -10 -3 -22 4 -17 2 -20 -12 -15 -10 4 -19 7 -22 7 -2
0 -1 7 2 15 4 8 1 15 -5 15 -6 0 -10 -6 -9 -12 2 -8 -9 -14 -24 -16 -16 -2
-28 2 -28 8 0 6 5 8 12 4 7 -4 8 -3 4 4 -10 17 -26 15 -26 -2 0 -16 -29 -23
-78 -17 -26 2 -32 7 -28 20 5 13 4 13 -8 -1 -16 -22 -26 -23 -26 -3 0 8 -4 15
-10 15 -5 0 -7 -7 -4 -15 8 -21 -13 -19 -26 3 -11 16 -11 16 -6 0 4 -13 0 -18
-15 -18 -15 0 -19 5 -15 15 3 8 1 15 -4 15 -5 0 -11 -8 -13 -17 -4 -17 -5 -17
-6 0 0 9 -6 17 -12 17 -6 0 -9 -7 -5 -15 4 -10 -1 -15 -16 -15 -17 0 -18 2 -8
15 10 12 10 15 -4 15 -9 0 -16 -7 -16 -15 0 -10 -10 -15 -30 -15 -23 0 -28 4
-24 18 5 16 5 16 -9 0 -8 -10 -25 -18 -38 -18 -17 0 -20 3 -10 9 9 6 10 11 2
15 -6 4 -14 -1 -18 -10 -6 -15 -7 -16 -12 -2 -5 14 -8 14 -20 1z m-221 -23 c0
-5 -5 -10 -11 -10 -5 0 -7 5 -4 10 3 6 8 10 11 10 2 0 4 -4 4 -10z m25 0 c3
-5 1 -10 -4 -10 -6 0 -11 5 -11 10 0 6 2 10 4 10 3 0 8 -4 11 -10z m60 0 c3
-5 -1 -10 -10 -10 -9 0 -13 5 -10 10 3 6 8 10 10 10 2 0 7 -4 10 -10z m55 0
c0 -5 -10 -10 -22 -9 -22 0 -22 1 -3 9 11 5 21 9 23 9 1 1 2 -3 2 -9z m43 -7
c-7 -2 -19 -2 -25 0 -7 3 -2 5 12 5 14 0 19 -2 13 -5z m60 0 c-7 -2 -21 -2
-30 0 -10 3 -4 5 12 5 17 0 24 -2 18 -5z m354 1 c-3 -3 -12 -4 -19 -1 -8 3 -5
6 6 6 11 1 17 -2 13 -5z m73 -24 c0 -5 -4 -10 -10 -10 -5 0 -10 5 -10 10 0 6
5 10 10 10 6 0 10 -4 10 -10z"/>
<path d="M2470 1002 c0 -5 7 -9 15 -9 8 0 15 4 15 9 0 4 -7 8 -15 8 -8 0 -15
-4 -15 -8z"/>
<path d="M2770 1000 c0 -6 7 -10 15 -10 8 0 15 2 15 4 0 2 -7 6 -15 10 -8 3
-15 1 -15 -4z"/>
<path d="M1950 939 c0 -6 -7 -9 -15 -5 -8 3 -15 1 -15 -5 0 -14 42 -7 48 9 2
6 -1 12 -7 12 -6 0 -11 -5 -11 -11z"/>
<path d="M1633 933 c-12 -2 -24 -11 -27 -19 -6 -16 10 -19 19 -4 5 8 11 8 19
1 7 -6 16 -8 19 -4 9 9 9 33 0 32 -5 -1 -18 -4 -30 -6z"/>
<path d="M2850 930 c0 -5 5 -10 11 -10 5 0 7 5 4 10 -3 6 -8 10 -11 10 -2 0
-4 -4 -4 -10z"/>
<path d="M2441 871 c0 -7 -7 -11 -15 -8 -8 3 -20 -1 -26 -8 -10 -12 -9 -16 4
-21 9 -3 23 -4 31 0 9 3 15 0 15 -10 0 -8 -4 -12 -10 -9 -5 3 -10 1 -10 -4 0
-15 6 -14 35 5 24 16 25 15 25 -5 0 -11 5 -21 11 -21 6 0 9 6 6 14 -3 8 -3 17
1 20 11 12 8 43 -4 43 -7 0 -11 -4 -8 -8 2 -4 0 -10 -6 -14 -5 -3 -10 -2 -10
4 0 6 -6 8 -14 5 -8 -3 -16 2 -19 13 -3 10 -5 12 -6 4z"/>
<path d="M2545 840 c3 -5 -1 -10 -9 -10 -22 0 -30 -19 -11 -27 10 -3 21 0 26
8 6 10 9 6 9 -13 0 -16 4 -28 10 -28 5 0 6 8 3 17 -5 13 -2 15 11 10 10 -4 23
-7 30 -7 7 0 17 -10 23 -22 9 -21 10 -20 17 15 4 21 11 35 16 32 6 -3 7 1 4 9
-8 20 -20 20 -27 1 -4 -9 -17 -13 -36 -12 -24 2 -30 6 -25 20 6 19 -12 24 -19
5 -4 -10 -6 -10 -6 0 -1 6 -6 12 -12 12 -5 0 -7 -4 -4 -10z"/>
<path d="M2600 839 c0 -5 5 -7 10 -4 6 3 10 8 10 11 0 2 -4 4 -10 4 -5 0 -10
-5 -10 -11z"/>
<path d="M2678 799 c-10 -10 -18 -22 -18 -25 0 -3 8 -4 18 -2 9 1 23 -1 30 -5
6 -5 12 -6 12 -2 0 3 9 1 20 -5 16 -9 20 -8 20 5 0 8 -7 15 -15 15 -8 0 -15 5
-15 11 0 5 5 7 10 4 6 -3 10 1 10 9 0 10 -6 13 -15 10 -8 -4 -15 -10 -15 -15
0 -5 -7 -9 -15 -9 -9 0 -12 6 -9 15 8 19 3 18 -18 -6z"/>
<path d="M2786 791 c4 -16 3 -21 -5 -17 -6 4 -11 0 -11 -8 0 -9 5 -16 10 -16
6 0 10 -7 10 -15 0 -8 4 -15 10 -15 5 0 7 7 3 16 -5 13 -2 15 18 9 13 -4 30
-12 37 -17 9 -8 12 -5 12 10 0 15 -9 21 -36 26 -31 6 -34 9 -22 23 11 14 11
16 -4 10 -9 -3 -19 -1 -22 6 -3 7 -3 1 0 -12z"/>
<path d="M1577 788 c4 -7 8 -17 8 -23 0 -5 9 -11 20 -14 17 -3 18 -1 6 13 -17
21 -3 21 20 0 12 -10 25 -14 36 -9 15 6 11 11 -22 25 -48 22 -80 26 -68 8z"/>
<path d="M1697 774 c-3 -4 -2 -15 4 -25 5 -11 7 -19 3 -19 -4 0 1 -9 11 -20
10 -11 23 -20 29 -20 6 0 0 10 -14 21 -20 17 -21 19 -5 14 11 -4 31 -9 45 -11
l25 -4 -25 9 c-14 5 -19 9 -11 10 11 1 11 4 1 16 -7 8 -17 15 -22 15 -6 0 -5
-7 2 -15 9 -11 9 -15 1 -15 -6 0 -16 11 -21 25 -10 26 -13 29 -23 19z"/>
<path d="M2870 776 c0 -2 7 -6 15 -10 8 -3 15 -1 15 4 0 6 -7 10 -15 10 -8 0
-15 -2 -15 -4z"/>
<path d="M2906 754 c-3 -8 -9 -13 -14 -10 -4 2 -12 -7 -19 -20 -6 -13 -7 -24
-2 -24 5 0 12 6 15 14 3 8 15 11 30 8 14 -2 24 0 24 7 0 6 -7 11 -15 11 -9 0
-12 6 -9 15 4 8 4 15 1 15 -3 0 -8 -7 -11 -16z"/>
<path d="M1627 737 c4 -6 0 -8 -10 -4 -22 8 -21 1 2 -25 11 -11 25 -18 33 -15
9 4 7 6 -4 6 -10 1 -18 6 -18 11 0 13 16 13 41 0 13 -7 19 -7 19 0 0 5 -8 10
-17 11 -11 0 -13 3 -5 6 21 8 13 18 -18 19 -18 1 -27 -3 -23 -9z"/>
<path d="M2715 740 c3 -5 13 -10 21 -10 8 0 12 5 9 10 -3 6 -13 10 -21 10 -8
0 -12 -4 -9 -10z"/>
<path d="M1464 731 c7 -11 56 -21 56 -11 0 4 -10 10 -22 14 -32 8 -40 7 -34
-3z"/>
<path d="M2820 721 c0 -5 5 -13 10 -16 6 -3 10 -2 10 4 0 5 -4 13 -10 16 -5 3
-10 2 -10 -4z"/>
<path d="M2910 702 c0 -5 7 -9 15 -9 8 0 12 4 9 9 -3 4 -9 8 -15 8 -5 0 -9 -4
-9 -8z"/>
</g>
</svg>
