<?xml version="1.0" standalone="no"?>
<!DOCTYPE svg PUBLIC "-//W3C//DTD SVG 20010904//EN"
 "http://www.w3.org/TR/2001/REC-SVG-20010904/DTD/svg10.dtd">
<svg version="1.0" xmlns="http://www.w3.org/2000/svg"
 width="300.000000pt" height="200.000000pt" viewBox="0 0 300.000000 200.000000"
 preserveAspectRatio="xMidYMid meet">
<metadata>
Created by potrace 1.10, written by Peter Selinger 2001-2011
</metadata>
<g transform="translate(0.000000,200.000000) scale(0.100000,-0.100000)"
fill="#000000" stroke="none">
<path d="M1448 1634 c-4 -6 -6 -21 -3 -33 3 -14 -1 -21 -12 -21 -27 0 -8 -10
26 -15 18 -2 29 0 26 6 -4 5 6 9 20 9 14 0 23 4 20 10 -3 5 -19 7 -35 4 -26
-6 -29 -3 -32 22 -2 16 -6 24 -10 18z"/>
<path d="M1470 1630 c0 -5 14 -10 30 -10 17 0 33 -6 36 -14 4 -10 15 -13 40
-9 19 3 40 1 47 -6 8 -6 17 -8 20 -4 4 3 7 2 7 -4 0 -6 12 -19 28 -28 l27 -18
-24 27 c-14 14 -20 26 -15 27 5 0 0 4 -11 9 -16 7 -14 9 15 9 25 1 31 -2 21
-8 -12 -8 -9 -11 12 -16 15 -4 27 -13 27 -21 0 -8 6 -11 16 -7 12 4 10 9 -13
24 -21 14 -24 19 -10 20 107 4 180 -5 198 -27 7 -9 20 -12 33 -8 18 6 19 5 7
-10 -12 -14 -11 -16 9 -16 14 0 20 5 17 13 -4 10 2 13 19 9 13 -2 24 -8 24
-12 0 -4 11 -11 25 -14 13 -3 29 -15 35 -26 11 -21 60 -29 60 -10 0 6 -6 10
-14 10 -8 0 -21 6 -28 13 -24 24 -127 69 -191 84 -74 17 -357 27 -357 13 0 -6
-5 -10 -11 -10 -5 0 -8 4 -5 9 3 5 -1 12 -10 15 -25 9 -64 7 -64 -4z m493 -47
c-7 -2 -19 -2 -25 0 -7 3 -2 5 12 5 14 0 19 -2 13 -5z"/>
<path d="M1230 1627 c-3 -2 -52 -7 -110 -11 -94 -5 -129 -9 -220 -21 -14 -2
-31 -4 -38 -4 -7 -1 -11 -4 -9 -8 7 -11 111 -8 128 3 13 8 63 11 237 14 64 1
135 18 82 20 -14 0 -34 3 -45 6 -11 3 -23 3 -25 1z"/>
<path d="M1345 1604 c-38 -8 -77 -18 -85 -21 -8 -3 -19 -7 -24 -7 -5 -1 -11
-6 -13 -12 -2 -7 16 -4 49 6 29 10 68 21 87 25 29 6 33 5 28 -9 -5 -13 -3 -14
13 -4 20 13 35 39 22 37 -4 0 -38 -7 -77 -15z"/>
<path d="M740 1567 c-36 -12 -68 -26 -72 -32 -5 -6 -8 -7 -8 0 0 7 -3 7 -8 0
-10 -14 -49 -35 -66 -35 -19 0 -129 -58 -138 -73 -10 -16 -10 -36 0 -22 12 17
69 45 76 38 3 -4 -2 -16 -13 -27 -28 -32 -60 -176 -39 -176 5 0 8 9 8 20 0 11
4 20 9 20 5 0 12 7 15 16 3 8 2 12 -4 9 -6 -3 -10 1 -10 10 0 9 4 14 9 11 5
-4 7 2 5 12 -3 9 3 35 12 57 10 22 18 45 18 50 1 13 84 55 109 55 11 0 17 -5
14 -12 -2 -7 -10 -12 -17 -10 -14 3 -40 -16 -40 -31 0 -5 9 -2 20 8 11 10 20
15 20 10 0 -4 7 -2 15 5 9 7 13 21 10 31 -7 20 9 26 20 9 3 -5 10 -10 16 -10
11 0 7 22 -6 32 -5 4 4 8 22 8 17 0 35 5 39 11 4 6 19 9 38 5 22 -4 27 -3 16
4 -12 8 -10 10 10 10 20 0 22 2 10 10 -19 12 -13 13 -90 -13z"/>
<path d="M1070 1580 c0 -5 7 -7 15 -4 8 4 15 8 15 10 0 2 -7 4 -15 4 -8 0 -15
-4 -15 -10z"/>
<path d="M1320 1571 c-37 -14 -45 -21 -47 -44 -1 -16 2 -25 8 -21 6 3 8 12 5
20 -3 7 3 18 14 24 25 13 61 13 58 -1 -2 -6 3 -14 10 -16 11 -4 12 -1 4 13 -5
11 -7 25 -5 32 3 6 3 12 1 11 -1 -1 -23 -9 -48 -18z"/>
<path d="M1120 1567 c-28 -13 -73 -58 -66 -65 3 -2 16 9 31 24 14 16 23 22 20
13 -4 -10 0 -16 9 -16 8 0 12 6 9 14 -4 9 3 16 16 20 11 3 21 9 21 14 0 11 -9
10 -40 -4z"/>
<path d="M1176 1568 c2 -4 -5 -12 -16 -18 -11 -6 -20 -16 -20 -23 0 -8 2 -9 8
-1 4 6 17 14 29 18 28 9 39 35 13 33 -10 -1 -17 -4 -14 -9z"/>
<path d="M1548 1572 c-22 -3 -25 -6 -15 -17 8 -8 18 -10 28 -4 9 4 19 5 23 2
3 -3 6 -1 6 5 0 15 -10 18 -42 14z"/>
<path d="M1781 1558 c-24 -10 -41 -21 -38 -24 3 -3 20 1 38 10 18 9 42 16 53
16 12 0 28 4 36 10 27 17 -43 8 -89 -12z"/>
<path d="M997 1563 c-13 -12 -7 -33 8 -33 17 0 20 -16 6 -25 -6 -3 -9 -15 -8
-26 1 -19 2 -19 14 -3 7 10 13 26 13 36 0 11 11 23 26 29 15 5 25 12 22 14 -7
7 -48 -7 -48 -17 0 -5 -6 -3 -14 4 -8 7 -12 16 -9 21 5 9 -1 9 -10 0z"/>
<path d="M1391 1560 c-9 -5 -4 -11 16 -18 15 -6 48 -29 73 -51 25 -22 46 -36
48 -31 4 11 -78 86 -90 83 -4 -2 -8 1 -8 6 0 13 -25 20 -39 11z"/>
<path d="M970 1554 c0 -5 -30 -10 -67 -11 -37 -1 -69 -6 -71 -12 -2 -5 -9 -8
-17 -5 -7 3 -16 1 -19 -5 -7 -11 90 -5 109 7 5 3 22 5 37 3 25 -2 46 14 34 26
-3 4 -6 2 -6 -3z"/>
<path d="M1606 1549 c3 -5 12 -9 20 -9 8 0 14 -4 14 -10 0 -5 6 -10 14 -10 8
0 16 -5 18 -12 3 -7 10 -8 17 -4 9 6 5 13 -16 25 -33 21 -75 33 -67 20z"/>
<path d="M1236 1535 c-10 -8 -23 -12 -27 -9 -5 3 -9 1 -9 -5 0 -5 -8 -10 -17
-9 -29 0 -66 -11 -77 -23 -8 -9 -8 -10 2 -5 11 6 17 -5 13 -26 0 -5 3 -8 8 -8
5 0 7 -9 4 -20 -6 -23 2 -26 21 -8 9 9 10 17 3 29 -16 26 -3 43 46 56 24 7 47
19 50 28 8 18 7 18 -17 0z"/>
<path d="M1317 1536 c-18 -14 -17 -15 3 -21 12 -4 24 -4 27 -1 4 3 -2 6 -12 6
-14 0 -15 3 -5 15 15 18 11 19 -13 1z"/>
<path d="M2010 1535 c7 -9 15 -13 17 -11 7 7 -7 26 -19 26 -6 0 -6 -6 2 -15z"/>
<path d="M1508 1518 c67 -72 95 -104 94 -108 -2 -5 9 -5 38 -1 6 0 10 5 10 11
0 5 -7 7 -15 3 -9 -3 -25 3 -36 13 -19 17 -19 19 -2 26 12 6 9 7 -9 3 -21 -4
-28 -1 -28 10 0 8 -4 15 -8 15 -5 0 -14 11 -20 25 -6 14 -19 25 -28 25 -15 0
-14 -3 4 -22z"/>
<path d="M1575 1530 c3 -5 11 -10 16 -10 6 0 7 5 4 10 -3 6 -11 10 -16 10 -6
0 -7 -4 -4 -10z"/>
<path d="M1805 1530 c-8 -13 9 -20 24 -11 10 6 9 10 -3 14 -8 3 -18 2 -21 -3z"/>
<path d="M1898 1533 c7 -3 16 -2 19 1 4 3 -2 6 -13 5 -11 0 -14 -3 -6 -6z"/>
<path d="M759 1528 c-6 -12 -5 -48 1 -48 8 0 20 25 20 41 0 8 -18 13 -21 7z"/>
<path d="M2041 1518 c-1 -9 -4 -18 -8 -21 -5 -2 -1 -2 7 1 8 2 21 5 28 5 6 0
12 5 12 10 0 5 -6 7 -14 4 -8 -3 -17 -1 -20 6 -2 7 -5 5 -5 -5z"/>
<path d="M963 1505 c-17 -12 -23 -12 -27 -2 -3 6 -3 -3 0 -20 4 -26 2 -33 -10
-33 -9 0 -16 -5 -16 -11 0 -5 4 -8 9 -4 6 3 15 -3 20 -14 8 -15 7 -18 -6 -17
-10 0 -19 -7 -21 -16 -2 -10 2 -18 8 -18 7 0 10 6 7 14 -4 10 0 12 14 9 20 -6
28 20 9 32 -10 6 3 37 28 63 11 12 17 32 9 32 -1 0 -12 -7 -24 -15z"/>
<path d="M1395 1500 c10 -11 23 -20 28 -20 6 0 2 9 -8 20 -10 11 -23 20 -28
20 -6 0 -2 -9 8 -20z"/>
<path d="M1590 1510 c-12 -8 -11 -10 7 -10 12 0 25 5 28 10 8 13 -15 13 -35 0z"/>
<path d="M888 1480 c-9 -17 -13 -30 -7 -30 5 0 7 -12 4 -27 -5 -20 -3 -24 3
-13 9 14 26 100 20 100 -2 0 -11 -14 -20 -30z"/>
<path d="M1224 1494 c-18 -14 -18 -15 4 -4 12 6 22 13 22 15 0 8 -5 6 -26 -11z"/>
<path d="M1843 1496 c0 -8 6 -12 14 -9 7 3 13 9 13 14 0 5 -6 9 -13 9 -8 0
-14 -6 -14 -14z"/>
<path d="M1983 1496 c0 -8 6 -12 14 -9 7 3 10 9 7 14 -8 14 -21 11 -21 -5z"/>
<path d="M800 1480 c-7 -13 -9 -36 -6 -52 3 -18 2 -27 -4 -23 -6 3 -10 -1 -10
-9 0 -8 -8 -20 -17 -25 -10 -6 -13 -11 -7 -11 6 0 11 -6 11 -14 0 -8 -6 -12
-14 -9 -7 3 -13 13 -13 22 0 14 -2 14 -10 1 -5 -8 -9 -28 -9 -45 l1 -30 8 30
c4 17 9 26 10 20 1 -5 3 -14 5 -20 1 -5 3 -14 3 -19 3 -14 31 26 32 44 0 8 7
28 15 44 8 15 13 31 10 36 -2 4 0 22 5 40 12 40 6 50 -10 20z"/>
<path d="M1290 1490 c0 -5 5 -10 10 -10 6 0 10 5 10 10 0 6 -4 10 -10 10 -5 0
-10 -4 -10 -10z"/>
<path d="M1646 1477 c10 -13 26 -24 36 -24 14 -1 11 4 -11 23 -36 30 -47 31
-25 1z"/>
<path d="M1710 1492 c0 -4 9 -8 19 -8 11 0 17 4 15 8 -3 4 -12 8 -20 8 -8 0
-14 -4 -14 -8z"/>
<path d="M690 1480 c-12 -8 -11 -10 8 -10 12 0 22 5 22 10 0 13 -11 13 -30 0z"/>
<path d="M856 1482 c-3 -5 1 -9 9 -9 8 0 12 4 9 9 -3 4 -7 8 -9 8 -2 0 -6 -4
-9 -8z"/>
<path d="M1055 1471 c-3 -12 -11 -19 -16 -16 -5 4 -9 1 -9 -5 0 -6 -5 -8 -10
-5 -19 12 -50 -6 -49 -28 l0 -22 9 23 c5 12 12 22 16 22 3 0 3 -7 0 -16 -5
-13 -4 -14 7 -6 8 7 17 9 20 5 4 -3 7 0 7 7 0 7 3 11 6 7 3 -3 16 3 27 14 15
14 18 22 10 30 -8 8 -13 5 -18 -10z"/>
<path d="M1264 1476 c-9 -10 -7 -15 7 -24 23 -15 38 4 18 23 -11 11 -16 11
-25 1z"/>
<path d="M1785 1482 c-11 -8 -17 -44 -5 -37 10 6 32 -44 25 -56 -4 -5 -13 -9
-21 -9 -8 0 -12 4 -9 10 3 6 -1 7 -10 4 -14 -6 -14 -8 2 -19 14 -11 21 -10 40
4 27 20 40 46 18 37 -21 -8 -19 11 3 24 15 10 14 10 -4 5 -22 -6 -40 17 -28
36 6 11 3 11 -11 1z"/>
<path d="M1882 1474 c-25 -17 -21 -34 9 -34 11 0 18 4 14 10 -3 5 -13 7 -23 4
-11 -4 -8 2 8 15 29 24 24 28 -8 5z"/>
<path d="M2060 1480 c-12 -7 -12 -12 -2 -22 6 -6 12 -8 12 -4 0 5 7 3 15 -4 9
-7 15 -8 15 -2 0 5 -7 13 -16 16 -8 3 -12 10 -9 16 8 12 4 12 -15 0z"/>
<path d="M2133 1476 c-21 -12 -21 -12 8 -23 16 -6 29 -7 29 -2 0 5 -5 9 -12 9
-6 0 -8 3 -5 6 3 4 22 -1 41 -10 19 -9 40 -16 46 -16 10 0 10 -3 0 -15 -12
-14 -15 -14 -31 1 -11 10 -22 15 -25 11 -8 -8 5 -29 14 -23 4 2 18 -4 31 -13
l24 -18 -22 -22 c-13 -13 -21 -25 -19 -27 3 -2 15 8 28 21 21 22 22 29 12 45
-7 12 -8 20 -2 20 5 0 10 -5 10 -11 0 -5 5 -7 12 -3 7 5 9 2 5 -8 -3 -9 -3
-19 1 -23 7 -6 8 -10 11 -37 1 -9 4 -8 11 2 17 28 39 -19 39 -83 -1 -32 2 -61
5 -65 3 -3 6 21 6 53 0 58 8 72 12 21 1 -14 7 -25 13 -22 5 2 16 -3 23 -11 12
-12 9 -13 -15 -7 -21 5 -25 4 -17 -5 6 -7 21 -13 33 -14 11 -1 21 -8 21 -15 0
-9 -7 -12 -20 -9 -11 3 -23 1 -26 -4 -6 -10 -7 -10 54 -14 30 -2 42 1 42 11 0
9 -6 11 -17 7 -16 -6 -16 -5 -4 10 12 15 12 17 -4 11 -12 -5 -16 -4 -12 3 9
14 -32 65 -45 57 -6 -4 -8 -2 -5 3 17 28 -137 208 -178 208 -7 0 -17 4 -21 8
-10 9 -24 8 -51 -7z"/>
<path d="M742 1440 c0 -19 2 -27 5 -17 2 9 2 25 0 35 -3 9 -5 1 -5 -18z"/>
<path d="M826 1455 c-9 -26 -7 -32 5 -12 6 10 9 21 6 23 -2 3 -7 -2 -11 -11z"/>
<path d="M1216 1461 c-3 -5 1 -11 9 -14 9 -4 12 -1 8 9 -6 16 -10 17 -17 5z"/>
<path d="M1336 1463 c-11 -12 -6 -25 8 -20 7 3 30 -8 49 -24 35 -29 37 -29 62
-13 14 9 25 21 25 26 0 5 5 6 10 3 17 -11 11 12 -7 26 -10 7 -15 9 -10 4 10
-11 -32 -55 -52 -54 -11 0 -12 2 -3 6 17 7 5 23 -19 23 -13 0 -18 4 -13 13 4
6 4 9 -1 5 -4 -4 -15 -3 -25 2 -10 5 -20 6 -24 3z"/>
<path d="M1930 1455 c-8 -10 -8 -15 1 -21 8 -5 9 -3 4 6 -6 10 -3 12 13 8 24
-7 30 7 8 15 -8 3 -20 0 -26 -8z"/>
<path d="M766 1449 c-10 -31 -13 -69 -5 -69 10 0 24 69 15 77 -3 3 -8 0 -10
-8z"/>
<path d="M1425 1450 c3 -5 11 -10 16 -10 6 0 7 5 4 10 -3 6 -11 10 -16 10 -6
0 -7 -4 -4 -10z"/>
<path d="M555 1398 c-29 -83 -29 -84 -17 -73 13 12 51 125 42 125 -3 0 -14
-24 -25 -52z"/>
<path d="M1185 1440 c-3 -5 -1 -10 4 -10 6 0 11 5 11 10 0 6 -2 10 -4 10 -3 0
-8 -4 -11 -10z"/>
<path d="M410 1422 c-13 -10 -21 -23 -19 -29 2 -5 14 3 27 19 27 32 24 36 -8
10z"/>
<path d="M675 1430 c-4 -6 -16 -8 -28 -5 -17 5 -19 4 -7 -4 10 -7 11 -11 3
-11 -7 0 -13 -4 -13 -9 0 -5 8 -8 18 -7 9 0 16 -5 14 -12 -1 -8 2 -11 8 -7 6
4 9 14 8 23 -2 11 3 17 14 16 9 -1 19 5 22 12 6 17 -29 20 -39 4z"/>
<path d="M1109 1415 c-4 -24 -1 -31 12 -31 11 0 15 4 10 11 -5 5 -11 19 -13
30 -3 15 -5 13 -9 -10z"/>
<path d="M1734 1428 c-4 -6 -3 -8 4 -4 6 3 12 -2 14 -11 3 -16 4 -17 10 -1 8
19 -17 33 -28 16z"/>
<path d="M1331 1405 c13 -13 28 -25 33 -25 5 0 -1 11 -14 25 -13 14 -28 25
-33 25 -5 0 1 -11 14 -25z"/>
<path d="M1507 1423 c-4 -3 -2 -12 4 -19 8 -10 5 -16 -15 -25 -14 -7 -23 -16
-19 -22 3 -5 8 -5 12 2 5 7 14 6 29 -5 12 -8 19 -20 15 -26 -3 -7 10 1 30 16
41 31 45 41 21 50 -14 5 -15 4 -5 -8 9 -11 8 -15 -4 -20 -9 -3 -13 -2 -10 3 3
5 0 13 -6 17 -9 5 -10 0 -7 -14 4 -14 2 -22 -7 -22 -18 0 -38 27 -26 34 5 3
11 0 14 -6 3 -7 5 2 4 20 0 29 -14 41 -30 25z"/>
<path d="M1710 1421 c0 -6 4 -13 10 -16 6 -3 7 1 4 9 -7 18 -14 21 -14 7z"/>
<path d="M1054 1409 c-3 -5 -10 -7 -15 -4 -22 14 -7 -33 18 -54 22 -20 25 -21
18 -5 -4 11 -10 29 -12 41 -4 19 -2 21 18 16 13 -3 20 -2 16 2 -11 13 -36 15
-43 4z"/>
<path d="M1160 1412 c0 -5 11 -19 25 -32 14 -13 25 -18 25 -12 0 7 -4 12 -9
12 -5 0 -13 9 -16 20 -6 19 -25 28 -25 12z"/>
<path d="M1218 1408 c8 -9 10 -23 6 -29 -4 -7 -3 -9 4 -5 6 3 13 2 17 -4 4 -6
10 -8 15 -5 5 3 11 -4 15 -15 4 -11 11 -18 16 -15 5 4 14 3 20 -1 8 -5 8 -9
-1 -14 -7 -4 -8 -10 -3 -13 5 -3 15 -1 23 4 13 8 12 11 -3 20 -10 6 -33 23
-50 38 -18 14 -41 33 -52 41 -18 14 -19 14 -7 -2z"/>
<path d="M1260 1414 c0 -3 10 -14 23 -25 24 -20 63 -26 52 -8 -4 6 -13 8 -21
5 -9 -3 -11 0 -7 12 3 9 3 14 -2 10 -4 -4 -16 -3 -26 3 -11 5 -19 7 -19 3z"/>
<path d="M588 1385 c-3 -16 -1 -25 7 -25 8 0 10 9 7 25 -2 14 -6 25 -7 25 -1
0 -5 -11 -7 -25z"/>
<path d="M1850 1406 c0 -2 9 -6 20 -9 11 -3 18 -1 14 4 -5 9 -34 13 -34 5z"/>
<path d="M2012 1398 c-8 -10 -4 -13 14 -14 13 -1 22 2 19 6 -3 5 1 11 7 13 7
3 3 6 -8 6 -12 1 -26 -5 -32 -11z"/>
<path d="M417 1394 c-4 -4 -4 -18 -1 -30 4 -13 2 -24 -2 -24 -9 0 -11 -17 -16
-105 -2 -24 -11 -48 -23 -60 -11 -11 -21 -33 -22 -49 -3 -34 15 -23 22 14 2
12 7 25 11 29 6 6 3 -24 -10 -82 -4 -17 -3 -26 3 -23 5 3 12 27 16 53 4 27 10
53 13 58 4 6 7 17 7 25 1 41 18 147 26 162 8 14 6 16 -8 11 -12 -5 -15 -2 -10
10 7 18 5 21 -6 11z"/>
<path d="M840 1391 c0 -5 5 -13 10 -16 6 -3 10 -2 10 4 0 5 -4 13 -10 16 -5 3
-10 2 -10 -4z"/>
<path d="M1900 1389 c0 -5 5 -7 10 -4 6 3 10 8 10 11 0 2 -4 4 -10 4 -5 0 -10
-5 -10 -11z"/>
<path d="M2084 1392 c3 -6 18 -14 34 -20 21 -7 35 -5 62 9 24 13 29 19 16 19
-11 0 -28 -7 -38 -17 -12 -10 -18 -12 -18 -4 0 7 -4 9 -10 6 -5 -3 -19 -1 -31
6 -12 6 -19 7 -15 1z"/>
<path d="M1393 1384 c7 -8 -19 -35 -30 -32 -4 2 -8 -1 -8 -7 -1 -15 23 -7 45
15 18 18 17 30 -3 30 -6 0 -8 -3 -4 -6z"/>
<path d="M1675 1377 c11 -8 23 -13 27 -11 5 3 8 -2 8 -11 0 -15 2 -15 15 -1
19 19 19 22 -2 22 -10 0 -29 4 -43 8 -24 8 -24 7 -5 -7z"/>
<path d="M1837 1384 c-9 -10 30 -37 43 -29 14 9 1 27 -15 21 -8 -3 -15 0 -17
5 -2 6 -7 7 -11 3z"/>
<path d="M633 1365 c0 -8 4 -15 9 -15 4 0 8 7 8 15 0 8 -4 15 -8 15 -5 0 -9
-7 -9 -15z"/>
<path d="M871 1373 c-1 -7 -7 -13 -15 -13 -8 0 -18 -5 -22 -11 -4 -8 1 -9 17
-4 31 10 32 11 26 27 -4 10 -6 10 -6 1z"/>
<path d="M1925 1370 c3 -5 2 -10 -2 -10 -5 0 -14 -10 -22 -22 -13 -22 -13 -22
13 1 27 26 33 41 15 41 -5 0 -7 -4 -4 -10z"/>
<path d="M1975 1369 c6 -9 3 -11 -9 -6 -11 4 -15 3 -11 -4 4 -6 14 -8 23 -4 8
3 19 0 24 -7 6 -10 8 -10 8 -1 0 7 -10 17 -21 24 -17 9 -20 8 -14 -2z"/>
<path d="M2166 1334 c-30 -54 -33 -74 -8 -73 10 0 12 3 5 6 -10 4 -10 9 -1 26
7 12 11 25 10 30 -1 4 2 7 8 7 14 0 32 38 21 44 -5 4 -21 -15 -35 -40z"/>
<path d="M364 1359 c-3 -6 -8 -34 -9 -63 -2 -28 -6 -60 -11 -70 -5 -13 -4 -17
4 -12 20 12 37 85 24 98 -9 9 -8 16 4 29 9 10 11 19 5 23 -5 4 -13 1 -17 -5z"/>
<path d="M676 1345 c-4 -14 -11 -25 -16 -25 -6 0 -10 -4 -10 -10 0 -5 6 -7 14
-4 14 5 31 52 23 61 -3 2 -7 -8 -11 -22z"/>
<path d="M990 1362 c0 -4 9 -13 20 -20 12 -7 18 -17 15 -22 -3 -5 1 -7 9 -4
14 5 14 8 1 21 -8 8 -15 19 -15 24 0 5 -7 9 -15 9 -8 0 -15 -3 -15 -8z"/>
<path d="M1630 1361 c0 -6 -7 -11 -15 -11 -17 0 -20 -16 -5 -25 18 -11 79 -15
85 -5 3 6 -1 7 -10 4 -11 -5 -14 -2 -9 12 5 18 5 18 -6 1 -9 -15 -14 -16 -26
-6 -11 9 -12 14 -3 19 8 6 8 9 0 14 -6 4 -11 2 -11 -3z"/>
<path d="M916 1350 c13 -23 14 -61 2 -54 -7 5 -8 2 -3 -7 8 -12 6 -12 -8 -1
-18 15 -37 8 -37 -14 0 -9 -5 -12 -11 -8 -7 4 -10 1 -7 -6 6 -19 28 -25 28 -8
0 8 9 14 20 15 11 1 30 11 42 23 l22 20 -28 28 c-16 15 -25 20 -20 12z"/>
<path d="M950 1352 c0 -5 6 -17 14 -28 16 -21 30 -16 20 9 -6 16 -34 32 -34
19z"/>
<path d="M1140 1355 c0 -3 16 -23 36 -45 26 -28 42 -39 55 -35 9 3 20 1 24 -5
3 -5 1 -10 -4 -10 -6 0 -11 -5 -11 -10 0 -6 8 -5 20 2 26 16 25 24 -2 33 -15
4 -18 8 -10 12 7 3 19 -1 28 -7 8 -7 17 -10 20 -7 7 7 -45 56 -61 57 -5 1 -18
3 -27 5 -12 2 -18 -3 -18 -16 0 -12 -4 -17 -11 -14 -6 4 -8 14 -5 22 3 8 1 11
-4 8 -6 -3 -10 -1 -10 4 0 6 -4 11 -10 11 -5 0 -10 -2 -10 -5z m98 -51 c-10
-10 -28 6 -28 24 0 15 1 15 17 -1 9 -9 14 -19 11 -23z m-18 -9 c7 -8 8 -15 2
-15 -5 0 -15 7 -22 15 -7 8 -8 15 -2 15 5 0 15 -7 22 -15z"/>
<path d="M1440 1345 c-11 -13 -10 -14 4 -9 9 3 16 10 16 15 0 13 -6 11 -20 -6z"/>
<path d="M1755 1350 c-3 -5 1 -10 10 -10 9 0 13 5 10 10 -3 6 -8 10 -10 10 -2
0 -7 -4 -10 -10z"/>
<path d="M590 1339 c0 -5 5 -7 10 -4 6 3 10 8 10 11 0 2 -4 4 -10 4 -5 0 -10
-5 -10 -11z"/>
<path d="M2247 1338 c-3 -8 -2 -21 3 -27 11 -19 23 5 12 25 -8 14 -10 14 -15
2z"/>
<path d="M791 1324 c0 -11 3 -14 6 -6 3 7 2 16 -1 19 -3 4 -6 -2 -5 -13z"/>
<path d="M1967 1324 c3 -8 8 -12 11 -10 3 3 11 -2 19 -12 8 -9 12 -11 8 -4 -5
9 1 11 22 7 28 -5 25 -3 -34 21 -27 11 -31 10 -26 -2z"/>
<path d="M1093 1323 c-7 -2 -13 -12 -13 -20 0 -9 3 -13 7 -10 3 4 12 -1 20
-11 13 -15 13 -15 3 6 -6 12 -8 27 -5 32 7 11 6 11 -12 3z"/>
<path d="M1125 1319 c-5 -7 -4 -10 2 -6 6 4 16 0 22 -7 9 -11 9 -17 -2 -27 -7
-7 -11 -24 -9 -38 4 -19 2 -23 -12 -18 -17 7 -23 -8 -6 -18 15 -9 43 23 36 42
-4 9 0 21 9 27 14 10 13 14 -8 35 -18 16 -27 19 -32 10z"/>
<path d="M1387 1315 c7 -19 25 -15 31 6 3 11 2 11 -7 -1 -7 -10 -11 -11 -11
-2 0 6 -4 12 -10 12 -5 0 -7 -7 -3 -15z"/>
<path d="M1790 1321 c0 -8 41 -23 47 -17 2 1 -8 8 -22 14 -14 6 -25 8 -25 3z"/>
<path d="M550 1310 c0 -5 5 -10 10 -10 6 0 10 5 10 10 0 6 -4 10 -10 10 -5 0
-10 -4 -10 -10z"/>
<path d="M617 1305 c3 -8 9 -12 14 -9 12 7 11 11 -5 17 -10 4 -13 1 -9 -8z"/>
<path d="M1505 1310 c6 -10 4 -12 -8 -7 -12 4 -17 1 -17 -11 0 -15 -2 -15 -11
-2 -9 12 -10 12 -5 -3 4 -12 2 -17 -6 -14 -7 2 -12 9 -11 15 2 7 -4 9 -14 5
-14 -6 -14 -8 3 -20 24 -17 26 -17 59 11 20 17 24 26 15 31 -9 6 -11 4 -5 -5z"/>
<path d="M1596 1308 c5 -8 1 -9 -12 -5 -18 7 -18 7 0 -8 11 -8 25 -15 30 -14
6 0 6 3 -1 5 -7 3 -9 12 -6 20 3 8 0 14 -7 14 -6 0 -8 -5 -4 -12z"/>
<path d="M1850 1312 c1 -19 17 -30 30 -22 8 5 11 12 7 16 -10 10 -37 14 -37 6z"/>
<path d="M2283 1305 c0 -8 3 -13 5 -10 3 3 10 -2 16 -11 10 -13 12 -11 14 10
1 19 -3 26 -16 26 -10 0 -19 -7 -19 -15z"/>
<path d="M1627 1290 c6 -21 18 -26 28 -11 3 6 -3 15 -14 20 -16 9 -18 8 -14
-9z"/>
<path d="M1707 1297 c3 -5 0 -13 -7 -17 -7 -4 -11 -13 -9 -19 3 -7 14 0 25 16
20 27 20 29 3 29 -9 0 -15 -4 -12 -9z"/>
<path d="M2073 1300 c-13 -5 -23 -12 -23 -15 0 -4 34 -1 50 5 3 2 9 2 13 1 5
-1 6 3 2 9 -7 12 -12 12 -42 0z"/>
<path d="M670 1281 c0 -21 -46 -36 -54 -17 -2 6 -5 2 -5 -9 -1 -17 -3 -17 -11
-5 -7 11 -10 11 -10 2 0 -7 -5 -10 -10 -7 -6 3 -13 -1 -16 -9 -5 -14 -8 -14
-21 0 -14 13 -13 17 3 30 18 14 18 15 -1 12 -14 -2 -22 -14 -26 -38 -5 -28 -7
-30 -8 -10 -3 25 -3 25 -16 -5 -17 -36 -18 -55 -5 -55 6 0 10 7 10 16 0 8 5
12 11 8 6 -3 14 -3 18 2 10 15 111 45 124 38 6 -4 9 -4 5 1 -8 8 31 42 44 38
4 -2 5 4 2 12 -9 21 -34 18 -34 -4z"/>
<path d="M1026 1292 c-3 -5 1 -9 9 -9 8 0 12 4 9 9 -3 4 -7 8 -9 8 -2 0 -6 -4
-9 -8z"/>
<path d="M1335 1280 c-10 -11 -21 -18 -25 -15 -14 9 -6 -31 9 -42 20 -16 6
-17 -22 -2 -16 9 -14 4 8 -17 17 -16 34 -27 39 -26 56 17 130 4 97 -17 -8 -5
-21 -7 -30 -4 -12 3 -12 2 2 -7 9 -6 14 -16 11 -22 -4 -7 -2 -8 5 -4 12 8 44
-18 34 -28 -9 -8 10 -7 22 2 14 10 13 28 -3 44 -11 11 -12 10 -6 -5 5 -13 2
-16 -10 -11 -18 7 -19 13 -7 33 7 11 12 10 27 -7 10 -12 22 -18 28 -15 6 4 5
0 -1 -8 -17 -21 15 -50 82 -74 28 -10 56 -23 62 -28 16 -12 46 -1 37 14 -4 8
-9 7 -15 -2 -8 -11 -11 -11 -20 4 -6 9 -14 15 -19 12 -5 -3 -11 -1 -15 5 -3 5
-17 10 -30 10 -31 0 -40 16 -18 29 15 8 16 12 4 23 -8 7 -11 8 -8 2 9 -16 -17
-36 -38 -28 -10 4 -15 14 -12 25 6 23 -28 53 -79 69 l-36 12 21 22 21 23 -35
19 c-19 10 -35 22 -35 26 0 15 -27 8 -45 -12z m55 -12 c34 -25 36 -33 15 -55
-14 -13 -19 -13 -50 1 -39 19 -43 31 -18 58 20 22 18 22 53 -4z m-40 -67 c0
-6 -4 -12 -8 -15 -5 -3 -9 1 -9 9 0 8 4 15 9 15 4 0 8 -4 8 -9z"/>
<path d="M1330 1250 c0 -14 15 -19 29 -11 9 6 7 10 -8 14 -12 3 -21 1 -21 -3z"/>
<path d="M1375 1220 c3 -5 8 -10 11 -10 2 0 4 5 4 10 0 6 -5 10 -11 10 -5 0
-7 -4 -4 -10z"/>
<path d="M2175 1291 c-3 -5 -1 -12 4 -16 6 -3 8 -13 5 -23 -5 -14 -3 -14 10 2
21 26 20 37 -1 29 -11 -4 -14 -3 -9 5 4 7 5 12 2 12 -3 0 -7 -4 -11 -9z"/>
<path d="M635 1280 c-3 -6 1 -7 9 -4 18 7 21 14 7 14 -6 0 -13 -4 -16 -10z"/>
<path d="M1068 1279 c6 -9 10 -18 7 -21 -3 -3 1 -11 9 -17 10 -8 16 -9 21 -1
4 6 1 9 -6 8 -7 -2 -13 2 -14 9 0 7 -7 18 -15 25 -12 11 -12 11 -2 -3z"/>
<path d="M1731 1260 c-23 -32 -16 -46 14 -24 10 8 13 14 6 14 -7 0 -9 5 -6 10
4 7 12 7 25 0 25 -13 27 -13 34 6 5 14 4 15 -8 5 -11 -9 -17 -8 -29 3 -12 13
-17 11 -36 -14z"/>
<path d="M1908 1266 c-10 -19 -10 -20 5 -7 12 10 21 10 30 3 7 -6 24 -12 37
-14 14 -2 30 -7 37 -11 6 -4 14 -4 17 1 3 5 -22 18 -55 29 l-60 21 -11 -22z"/>
<path d="M2226 1274 c-13 -33 -7 -45 14 -34 11 6 20 20 19 33 l0 22 -9 -22
c-12 -28 -24 -30 -15 -3 7 24 0 27 -9 4z"/>
<path d="M750 1270 c-10 -7 -12 -12 -4 -17 15 -11 24 -52 13 -59 -5 -3 -9 0
-9 6 0 6 -5 8 -10 5 -8 -5 -7 -11 1 -21 10 -12 14 -12 25 3 7 10 14 15 14 11
0 -5 8 0 18 10 14 13 16 21 8 35 -16 26 -27 20 -20 -10 4 -16 3 -24 -2 -20 -8
7 -14 28 -16 55 -1 6 -2 12 -2 12 -1 0 -8 -5 -16 -10z"/>
<path d="M975 1269 c4 -6 -1 -19 -11 -30 -15 -16 -15 -19 -2 -14 11 4 16 1 15
-11 -1 -9 5 -19 13 -22 12 -4 13 -3 3 10 -7 8 -10 18 -6 22 12 12 10 45 -4 50
-8 4 -11 1 -8 -5z"/>
<path d="M1569 1278 c-8 -28 -5 -37 12 -35 10 2 22 7 26 11 5 4 4 7 -2 6 -21
-5 -36 0 -30 10 3 6 4 10 1 10 -3 0 -6 -1 -7 -2z"/>
<path d="M2276 1264 c-10 -26 -7 -39 13 -51 16 -10 20 -9 24 6 3 12 -1 18 -12
17 -11 -1 -15 6 -14 22 3 26 -2 29 -11 6z"/>
<path d="M820 1258 c0 -9 5 -20 10 -23 13 -8 13 5 0 25 -8 13 -10 13 -10 -2z"/>
<path d="M1512 1254 c-16 -17 -15 -27 1 -21 6 2 23 -4 36 -15 18 -14 27 -15
38 -7 7 7 11 14 8 18 -3 3 -10 0 -14 -7 -6 -10 -13 -8 -32 7 -13 11 -18 20
-11 21 6 0 12 4 12 8 0 13 -24 10 -38 -4z"/>
<path d="M1016 1252 c-2 -4 11 -25 30 -46 26 -30 37 -37 46 -28 14 14 -9 45
-28 38 -7 -3 -15 2 -18 10 -9 23 -7 26 7 18 6 -4 8 -3 4 1 -10 11 -36 15 -41
7z m74 -62 c0 -5 -2 -10 -4 -10 -3 0 -8 5 -11 10 -3 6 -1 10 4 10 6 0 11 -4
11 -10z"/>
<path d="M1644 1238 c-5 -7 -2 -8 6 -3 9 6 12 4 8 -7 -4 -9 0 -15 8 -15 8 0
14 6 14 13 0 16 -28 26 -36 12z"/>
<path d="M1880 1236 c0 -11 -8 -25 -17 -32 -20 -14 -17 -20 11 -26 10 -1 21 3
23 10 3 8 -1 10 -13 5 -12 -4 -15 -3 -10 5 4 7 18 10 34 6 23 -6 25 -5 12 7
-8 8 -21 20 -27 28 -11 13 -13 12 -13 -3z"/>
<path d="M435 1218 c-4 -15 -4 -36 0 -47 3 -12 2 -21 -3 -21 -5 0 -9 -7 -9
-15 0 -25 11 -17 30 22 15 30 16 34 3 24 -18 -15 -22 -1 -5 16 8 8 8 17 1 29
-9 17 -11 16 -17 -8z"/>
<path d="M1191 1220 c-13 -11 -20 -20 -15 -20 4 0 -1 -7 -12 -15 -10 -8 -14
-15 -8 -15 12 0 74 53 74 63 0 12 -14 7 -39 -13z"/>
<path d="M1778 1232 c8 -5 13 -13 12 -18 0 -5 6 -10 14 -12 9 -2 16 3 16 12 0
9 -4 16 -9 16 -5 0 -18 3 -28 6 -13 4 -14 3 -5 -4z"/>
<path d="M2050 1232 c0 -4 12 -9 28 -10 21 -1 23 0 12 8 -18 12 -40 13 -40 2z"/>
<path d="M1487 1211 c2 -9 -3 -11 -14 -7 -15 5 -15 4 1 -9 22 -17 40 -20 32
-6 -4 5 0 12 6 14 8 4 7 6 -4 6 -9 1 -18 4 -21 9 -2 4 -2 1 0 -7z"/>
<path d="M2110 1220 c0 -5 4 -10 9 -10 5 0 18 -3 28 -7 16 -6 16 -5 4 10 -15
19 -41 23 -41 7z"/>
<path d="M653 1199 c-24 -11 -43 -25 -43 -32 0 -8 3 -7 9 2 5 8 15 12 22 9 8
-3 25 5 39 18 29 28 28 28 -27 3z"/>
<path d="M939 1203 c5 -10 24 -34 41 -53 28 -32 28 -30 -6 18 -35 50 -55 70
-35 35z"/>
<path d="M2170 1205 c0 -8 2 -15 4 -15 2 0 6 7 10 15 3 8 1 15 -4 15 -6 0 -10
-7 -10 -15z"/>
<path d="M900 1200 c-8 -5 -12 -12 -9 -15 4 -3 12 1 19 10 14 17 11 19 -10 5z"/>
<path d="M1256 1195 c-9 -26 -7 -32 5 -12 6 10 9 21 6 23 -2 3 -7 -2 -11 -11z"/>
<path d="M1679 1193 c-13 -15 -12 -15 8 -5 14 8 23 8 25 1 2 -5 10 -11 18 -12
8 -2 20 -5 25 -9 6 -3 19 -2 30 3 17 7 17 8 -7 8 -16 1 -28 7 -28 14 0 8 -3 7
-10 -3 -8 -12 -10 -12 -16 3 -8 22 -28 22 -45 0z"/>
<path d="M1997 1196 c-16 -13 -16 -14 10 -21 27 -6 27 -7 9 -21 -18 -12 -18
-14 -3 -14 10 0 22 12 27 26 13 33 12 54 -1 31 -6 -9 -15 -15 -20 -12 -5 4 -7
11 -4 16 8 12 3 11 -18 -5z"/>
<path d="M2206 1195 c-3 -8 3 -16 12 -18 16 -4 15 -5 0 -6 -13 -1 -18 -10 -18
-32 0 -16 4 -28 9 -25 5 4 12 0 14 -6 3 -7 6 -1 6 14 1 14 -5 29 -11 31 -10 4
-10 6 -1 6 7 1 17 10 22 20 9 15 7 20 -9 24 -10 3 -21 -1 -24 -8z"/>
<path d="M1534 1174 c-2 -24 -1 -25 16 -7 12 12 14 20 6 25 -18 12 -21 10 -22
-18z"/>
<path d="M1612 1173 c-24 -30 -28 -43 -12 -43 6 0 10 5 10 10 0 6 11 22 25 35
13 14 18 25 11 25 -7 0 -22 -12 -34 -27z"/>
<path d="M1924 1184 c-10 -8 -13 -13 -6 -9 6 3 12 1 12 -5 0 -7 6 -10 14 -7 7
3 18 1 24 -5 7 -7 16 -6 29 2 17 11 17 11 -2 7 -21 -4 -49 16 -38 27 14 13
-14 5 -33 -10z"/>
<path d="M2270 1189 c0 -5 9 -9 20 -9 11 0 20 2 20 4 0 2 -9 6 -20 9 -11 3
-20 1 -20 -4z"/>
<path d="M2490 1188 c8 -8 43 -38 77 -67 34 -29 62 -56 62 -59 -4 -24 3 -34
20 -29 13 3 18 0 15 -8 -6 -15 -51 -37 -57 -27 -2 4 -2 1 0 -6 1 -7 -4 -24
-13 -38 -9 -13 -12 -24 -6 -24 6 0 8 -9 5 -20 -4 -16 -8 -18 -19 -9 -8 6 -11
16 -7 23 4 6 -7 -1 -25 -16 -17 -15 -41 -29 -52 -33 -11 -3 -20 -9 -20 -13 0
-12 -55 -11 -63 1 -6 8 -7 6 -3 -5 3 -12 -2 -18 -17 -21 -12 -2 1 -4 28 -3 49
1 78 15 126 58 10 10 21 14 23 9 7 -11 -75 -87 -100 -94 -16 -4 -16 -5 4 -6
12 0 31 8 41 18 11 11 22 17 25 14 3 -3 11 6 17 21 7 14 18 26 26 26 13 0 21
13 27 42 11 53 33 75 69 69 5 -1 5 4 1 10 -4 7 -3 9 4 5 6 -3 11 -14 12 -24 2
-46 13 -112 19 -112 10 0 7 84 -4 93 -6 5 -4 7 5 4 11 -2 14 -14 12 -41 -3
-25 2 -44 13 -56 16 -18 15 -18 -13 -14 -37 6 -57 -21 -43 -57 7 -21 9 -20 15
13 5 25 11 35 20 32 15 -6 10 -44 -5 -44 -5 0 -9 -5 -9 -11 0 -5 4 -7 10 -4 6
3 7 -1 3 -10 -5 -13 -7 -14 -14 -3 -9 13 -13 -4 -12 -40 1 -7 -2 -11 -5 -8 -3
3 -12 -3 -19 -14 -8 -11 -18 -18 -23 -15 -5 3 -12 1 -15 -5 -4 -6 -1 -9 7 -8
7 2 12 -5 12 -14 -1 -10 1 -18 5 -18 12 0 58 66 69 100 32 98 32 98 26 55 -9
-68 -34 -136 -47 -128 -7 3 -9 3 -5 -2 4 -4 0 -14 -10 -21 -9 -7 -14 -15 -11
-18 13 -13 38 7 54 42 l16 37 -7 -40 c-7 -48 0 -44 14 8 6 21 6 35 1 32 -5 -4
-9 -2 -9 4 0 5 5 13 10 16 6 3 10 40 10 81 0 54 -3 73 -11 68 -8 -5 -10 1 -7
20 3 14 1 26 -3 26 -5 0 -6 6 -3 14 11 30 -157 201 -246 251 -13 7 -13 6 0 -7z"/>
<path d="M845 1150 c26 -49 81 -107 91 -98 3 4 -9 21 -28 40 -18 18 -45 49
-60 68 l-28 35 25 -45z"/>
<path d="M914 1179 c-3 -6 1 -17 10 -25 9 -8 11 -9 6 -2 -14 16 -13 31 2 22 7
-4 8 -3 4 4 -9 15 -13 15 -22 1z"/>
<path d="M1005 1180 c-4 -6 5 -23 19 -37 14 -14 26 -29 26 -32 0 -11 -60 -66
-60 -55 0 5 -5 1 -11 -8 -6 -11 -16 -15 -26 -11 -15 6 -16 5 -3 -9 14 -14 20
-12 66 28 51 43 52 43 69 24 10 -11 14 -20 9 -20 -5 0 1 -7 13 -15 12 -9 28
-14 35 -13 7 2 12 -3 10 -10 -1 -8 2 -11 7 -8 5 3 14 -1 21 -9 7 -8 18 -15 25
-15 7 0 23 -9 37 -19 13 -11 37 -23 53 -27 16 -4 40 -13 54 -20 14 -8 32 -14
38 -14 7 0 27 -9 45 -20 18 -11 40 -20 48 -20 12 0 13 2 1 9 -11 7 -11 9 0 14
8 3 -1 6 -20 6 -26 1 -32 4 -27 17 4 11 1 14 -13 9 -10 -3 -41 3 -67 14 -61
24 -190 97 -217 122 -12 10 -25 19 -29 19 -5 0 -23 16 -41 35 -50 54 -56 62
-50 69 4 3 4 6 0 6 -3 0 -9 -5 -12 -10z"/>
<path d="M2106 1175 c-3 -8 -1 -15 4 -15 13 0 22 18 11 24 -5 3 -11 -1 -15 -9z"/>
<path d="M2334 1175 c10 -7 16 -17 13 -22 -2 -4 -1 -17 4 -28 6 -16 8 -12 8
16 1 30 -3 38 -21 42 -22 6 -22 5 -4 -8z"/>
<path d="M686 1166 c4 -11 0 -13 -15 -9 -17 4 -20 2 -15 -11 8 -20 28 -21 48
-1 8 8 19 15 25 15 6 0 11 5 11 10 0 6 -13 10 -30 10 -21 0 -28 -4 -24 -14z"/>
<path d="M878 1165 c17 -30 79 -101 85 -95 3 3 -18 30 -45 60 -28 30 -46 46
-40 35z"/>
<path d="M1117 1163 c4 -11 2 -14 -5 -9 -7 4 -12 2 -12 -3 0 -6 -7 -11 -16
-11 -8 0 -12 -5 -9 -11 4 -6 13 -8 21 -5 8 3 14 1 14 -4 0 -6 4 -10 10 -10 5
0 7 7 4 15 -4 8 -1 21 5 29 9 10 8 15 -3 19 -11 4 -13 1 -9 -10z"/>
<path d="M1360 1165 c-11 -13 -10 -14 4 -9 9 3 16 10 16 15 0 13 -6 11 -20 -6z"/>
<path d="M1577 1173 c-4 -3 -7 -11 -7 -17 0 -6 5 -5 12 2 6 6 9 14 7 17 -3 3
-9 2 -12 -2z"/>
<path d="M1650 1174 c0 -2 9 -8 19 -13 14 -8 20 -7 24 3 4 9 -3 14 -19 14 -13
0 -24 -2 -24 -4z"/>
<path d="M326 1148 c-8 -32 -7 -78 2 -78 4 0 8 23 9 50 1 55 -1 62 -11 28z"/>
<path d="M790 1162 c0 -4 5 -13 11 -19 8 -8 -3 -20 -39 -44 l-51 -33 17 -30
c9 -17 36 -49 60 -72 42 -43 55 -71 26 -60 -8 3 -13 2 -10 -3 6 -10 -64 -67
-78 -63 -5 2 -4 -3 3 -12 14 -17 -2 -32 -21 -20 -10 6 -10 4 0 -8 11 -14 20
-8 76 47 35 34 75 71 90 80 20 13 24 21 16 29 -8 8 -14 6 -21 -6 -6 -10 -15
-18 -21 -18 -12 0 -86 81 -105 114 -16 30 -3 43 17 16 11 -15 19 -19 24 -11 4
6 2 11 -4 11 -6 0 -8 5 -4 12 4 7 3 8 -4 4 -19 -11 -14 5 5 19 13 10 19 10 30
-1 7 -7 13 -17 13 -22 0 -5 11 -22 24 -37 24 -28 26 -45 5 -45 -6 0 -7 6 -3
13 4 6 3 9 -1 4 -5 -4 -20 3 -34 15 -14 13 -20 15 -12 6 7 -9 10 -22 6 -28 -4
-6 -1 -9 7 -8 7 2 12 -3 11 -9 -4 -18 13 -16 42 3 15 10 25 12 25 5 0 -6 16
-25 36 -43 20 -18 43 -39 50 -45 7 -7 22 -13 33 -13 11 0 23 -5 26 -11 4 -5
18 -14 32 -20 15 -5 21 -13 17 -21 -5 -8 -2 -9 9 -5 10 3 17 2 17 -3 0 -5 7
-6 17 -3 10 4 14 2 9 -5 -3 -6 -2 -13 4 -17 5 -3 10 -1 10 4 0 6 5 11 11 11 5
0 8 -4 5 -9 -3 -4 6 -6 19 -3 14 2 25 0 25 -6 0 -5 20 -16 45 -23 42 -12 61
-29 33 -29 -6 0 -8 -3 -5 -6 4 -4 13 -2 21 5 11 9 25 9 62 0 38 -10 44 -14 28
-20 -12 -5 -4 -7 24 -6 24 1 46 -3 50 -8 4 -6 14 -10 22 -10 8 0 14 -6 13 -12
-3 -15 13 -17 22 -3 10 16 45 12 52 -6 3 -9 9 -12 12 -7 3 5 49 2 106 -7 71
-12 102 -14 107 -6 5 7 -21 15 -76 23 -139 20 -444 95 -494 122 -13 7 -20 17
-15 24 5 9 4 9 -8 0 -9 -7 -20 -8 -29 -3 -8 5 -17 7 -21 4 -7 -4 -30 8 -98 52
-18 12 -42 20 -54 18 -12 -2 -17 -2 -10 2 10 4 10 8 0 19 -7 7 -16 11 -20 8
-16 -9 -167 165 -167 191 0 6 7 2 15 -8 8 -11 17 -17 21 -14 3 4 -4 16 -15 27
-12 12 -21 26 -21 31 0 6 -4 10 -10 10 -5 0 -10 -4 -10 -8z"/>
<path d="M1050 1160 c0 -5 5 -10 11 -10 5 0 7 5 4 10 -3 6 -8 10 -11 10 -2 0
-4 -4 -4 -10z"/>
<path d="M1216 1153 c-6 -14 -5 -15 5 -6 7 7 10 15 7 18 -3 3 -9 -2 -12 -12z"/>
<path d="M1706 1162 c-3 -5 1 -9 9 -9 8 0 12 4 9 9 -3 4 -7 8 -9 8 -2 0 -6 -4
-9 -8z"/>
<path d="M1831 1149 c5 -11 17 -16 30 -14 12 3 30 0 40 -6 11 -5 19 -7 19 -5
0 8 -63 39 -82 41 -13 1 -15 -2 -7 -16z"/>
<path d="M2300 1151 c0 -11 -4 -23 -10 -26 -5 -3 -7 0 -4 8 3 8 1 18 -5 22 -7
4 -11 -6 -11 -25 0 -25 4 -31 16 -26 8 3 12 2 9 -4 -3 -6 -1 -10 4 -10 6 0 11
18 11 40 0 22 -2 40 -5 40 -3 0 -5 -9 -5 -19z"/>
<path d="M565 1151 c-3 -5 -1 -12 5 -16 5 -3 10 1 10 9 0 18 -6 21 -15 7z"/>
<path d="M1291 1154 c4 -21 -2 -28 -12 -14 -9 13 -10 12 -5 -2 3 -10 1 -20 -4
-23 -10 -6 -14 9 -10 30 1 6 -4 4 -11 -3 -19 -18 21 -57 50 -47 21 6 29 25 11
25 -5 0 -10 -5 -10 -11 0 -5 -4 -7 -10 -4 -6 4 -5 11 3 19 6 8 16 11 21 8 13
-7 59 -12 52 -4 -4 3 -16 7 -28 9 -12 2 -28 9 -35 15 -8 6 -13 7 -12 2z"/>
<path d="M1633 1146 c3 -8 1 -17 -6 -20 -8 -3 -8 -5 -1 -5 6 -1 17 5 23 13 9
11 8 15 -5 20 -11 4 -15 2 -11 -8z"/>
<path d="M2106 1144 c-17 -16 -12 -39 5 -28 5 3 6 10 3 16 -5 7 -1 9 9 5 11
-4 17 -1 17 8 0 19 -15 19 -34 -1z"/>
<path d="M2490 1151 c0 -7 -9 -9 -24 -5 -21 5 -25 2 -23 -14 0 -12 5 -18 9
-16 5 3 6 10 3 15 -4 5 -1 9 4 9 6 0 11 -4 11 -9 0 -5 3 -17 7 -27 4 -12 3
-15 -6 -10 -8 5 -7 -4 3 -29 21 -49 20 -61 -1 -44 -16 13 -17 12 -5 -2 10 -14
10 -18 -3 -23 -8 -3 -15 -11 -15 -17 0 -8 4 -8 15 1 8 7 15 8 15 2 0 -5 9 -12
20 -15 11 -3 18 -1 14 4 -3 5 -1 9 5 9 18 0 22 -19 6 -27 -18 -10 -29 -53 -13
-53 5 0 7 7 4 16 -4 11 3 18 24 26 29 9 29 11 13 24 -10 7 -15 14 -10 15 23 5
33 4 39 -6 4 -5 8 0 8 12 0 12 8 27 18 33 11 8 12 10 2 7 -17 -4 -45 21 -45
41 0 22 16 18 30 -8 8 -14 14 -20 15 -14 0 7 -9 22 -20 35 -15 19 -21 21 -28
11 -11 -17 -22 -17 -32 -2 -5 8 -10 7 -19 -4 -8 -10 -9 -16 -1 -21 5 -3 10 -1
10 6 0 16 59 -42 60 -58 0 -6 -5 -15 -11 -18 -6 -4 -9 0 -7 11 2 11 -2 18 -9
17 -7 -2 -13 4 -13 13 0 12 -6 15 -26 10 -21 -6 -25 -4 -21 8 4 9 1 16 -6 16
-7 0 -8 3 -2 8 6 4 10 14 10 22 0 8 6 14 13 13 6 -2 12 2 12 7 0 14 -13 13
-28 -2 -7 -7 -12 -8 -12 -2 0 6 5 15 12 22 6 6 9 15 5 19 -4 3 -7 1 -7 -6z
m57 -139 c15 12 15 11 3 -9 -10 -16 -18 -19 -26 -12 -8 7 -14 6 -19 -1 -3 -6
-11 -8 -16 -4 -6 4 -1 16 13 31 23 25 23 25 26 3 3 -18 6 -19 19 -8z"/>
<path d="M535 1139 c-4 -6 -5 -12 -2 -15 2 -3 7 2 10 11 7 17 1 20 -8 4z"/>
<path d="M1740 1140 c0 -6 7 -10 15 -10 8 0 15 2 15 4 0 2 -7 6 -15 10 -8 3
-15 1 -15 -4z"/>
<path d="M2385 1140 c-3 -5 -1 -10 4 -10 6 0 11 -7 11 -15 0 -8 4 -15 9 -15
11 0 3 38 -10 45 -4 3 -10 1 -14 -5z"/>
<path d="M2421 1134 c0 -11 3 -14 6 -6 3 7 2 16 -1 19 -3 4 -6 -2 -5 -13z"/>
<path d="M613 1132 c-18 -11 0 -34 21 -26 17 7 17 25 0 31 -5 1 -14 -1 -21 -5z"/>
<path d="M1160 1121 c-13 -14 -10 -18 39 -44 41 -22 56 -26 65 -17 8 9 7 14
-4 18 -8 3 -27 17 -41 31 -32 31 -40 33 -59 12z m70 -42 c0 -5 -11 -2 -25 7
-14 9 -25 20 -25 25 0 5 11 2 25 -7 14 -9 25 -20 25 -25z"/>
<path d="M1663 1128 c-26 -33 -24 -40 4 -20 23 16 33 18 41 10 8 -8 12 -9 12
-1 0 10 -22 23 -40 23 -4 0 -12 -6 -17 -12z"/>
<path d="M2150 1129 c0 -5 5 -7 10 -4 6 3 10 8 10 11 0 2 -4 4 -10 4 -5 0 -10
-5 -10 -11z"/>
<path d="M1930 1117 c0 -5 7 -7 15 -3 8 3 15 1 15 -5 0 -6 5 -7 10 -4 6 4 17
1 25 -5 18 -15 20 -3 3 14 -15 14 -68 16 -68 3z"/>
<path d="M490 1108 c0 -4 7 -8 15 -8 8 0 15 4 15 8 0 5 -7 9 -15 9 -8 0 -15
-4 -15 -9z"/>
<path d="M570 1113 c0 -14 19 -38 25 -32 8 8 -5 39 -16 39 -5 0 -9 -3 -9 -7z"/>
<path d="M1394 1109 c-3 -6 -3 -13 0 -16 3 -4 6 0 7 8 0 8 3 6 8 -5 6 -17 8
-17 14 -4 7 18 -19 33 -29 17z"/>
<path d="M1725 1109 c-4 -6 -13 -8 -21 -5 -27 10 -14 -4 19 -20 17 -9 27 -11
20 -4 -6 7 -9 19 -6 26 6 16 -3 19 -12 3z"/>
<path d="M1800 1089 c-14 -34 -9 -45 17 -34 28 13 35 12 81 -7 23 -9 42 -13
42 -8 0 6 8 10 18 10 13 0 14 -2 4 -9 -10 -6 -7 -10 13 -15 15 -4 30 -5 33 -1
3 3 0 5 -6 5 -7 0 -12 7 -12 16 0 13 -7 15 -35 11 -20 -3 -33 -2 -30 3 3 4 -3
7 -12 5 -10 -1 -22 1 -28 5 -20 14 -65 21 -63 9 2 -6 -3 -14 -9 -16 -10 -3
-11 2 -4 19 4 13 13 23 19 23 19 0 21 11 2 12 -11 1 -23 -9 -30 -28z"/>
<path d="M420 1095 c0 -6 5 -16 10 -21 7 -7 6 -22 -5 -47 -11 -28 -19 -35 -33
-30 -14 5 -15 3 -4 -8 18 -20 15 -32 -8 -26 -18 4 -20 2 -14 -16 6 -20 5 -21
-11 -7 -17 14 -17 14 -6 -8 10 -18 14 -20 25 -10 8 7 12 16 9 21 -2 4 3 7 11
7 26 0 55 35 44 54 -6 11 -4 21 7 32 9 9 14 23 11 31 -3 8 -6 20 -6 27 0 7 -7
13 -15 13 -8 0 -15 -5 -15 -12z"/>
<path d="M523 1084 c-23 -24 -29 -45 -17 -57 12 -12 32 5 27 24 -4 14 -1 18
10 14 8 -4 17 1 20 9 4 9 2 16 -4 16 -6 0 -7 5 -4 10 12 19 -10 8 -32 -16z"/>
<path d="M640 1092 c0 -4 9 -13 21 -20 19 -12 19 -11 9 8 -10 19 -30 28 -30
12z"/>
<path d="M2080 1090 c0 -5 7 -10 15 -10 8 0 15 5 15 10 0 6 -7 10 -15 10 -8 0
-15 -4 -15 -10z"/>
<path d="M2129 1081 c5 -9 6 -22 3 -30 -2 -8 0 -11 5 -8 15 10 13 54 -3 54 -9
0 -10 -6 -5 -16z"/>
<path d="M2443 1070 c6 -16 15 -30 19 -30 5 0 2 14 -7 30 -9 17 -17 30 -19 30
-3 0 1 -13 7 -30z"/>
<path d="M872 1058 c14 -18 31 -34 39 -37 8 -2 0 12 -16 32 -37 44 -57 49 -23
5z"/>
<path d="M1135 1080 c-3 -6 1 -7 9 -4 18 7 21 14 7 14 -6 0 -13 -4 -16 -10z"/>
<path d="M1361 1076 c-9 -11 -8 -15 6 -21 10 -5 24 -7 31 -6 6 1 12 -3 12 -10
0 -7 9 -9 22 -6 12 3 30 2 40 -4 10 -5 18 -6 18 -2 -1 13 -69 41 -73 30 -2 -6
-12 0 -24 12 -17 18 -22 19 -32 7z"/>
<path d="M1615 1080 c3 -5 11 -10 16 -10 6 0 7 5 4 10 -3 6 -11 10 -16 10 -6
0 -7 -4 -4 -10z"/>
<path d="M1662 1083 c-6 -2 -10 -9 -6 -14 8 -14 21 -11 21 6 0 8 -1 15 -1 14
-1 0 -7 -3 -14 -6z"/>
<path d="M2195 1080 c3 -5 13 -10 21 -10 8 0 14 5 14 10 0 6 -9 10 -21 10 -11
0 -17 -4 -14 -10z"/>
<path d="M2273 1064 c1 -22 7 -30 22 -31 11 -1 14 1 7 4 -6 3 -10 8 -7 12 2 5
-2 17 -10 27 -13 18 -14 17 -12 -12z"/>
<path d="M2365 1045 c4 -22 11 -44 16 -50 12 -12 0 53 -13 75 -6 10 -7 1 -3
-25z"/>
<path d="M2071 1059 c4 -30 -1 -38 -18 -32 -10 3 -15 3 -11 -2 4 -4 28 -11 53
-15 34 -5 45 -4 45 7 0 7 -11 13 -25 13 -19 0 -25 5 -23 16 2 10 -3 19 -10 22
-7 2 -13 -2 -11 -9z"/>
<path d="M335 1035 c4 -16 7 -38 8 -47 1 -10 5 -14 9 -10 4 4 1 25 -8 47 -11
29 -13 32 -9 10z"/>
<path d="M1516 1038 c-10 -13 -28 -33 -40 -46 -21 -23 -21 -24 -2 -38 11 -8
25 -14 30 -14 6 1 0 7 -13 14 l-24 14 26 26 c24 24 56 28 42 5 -3 -5 1 -6 10
-3 14 6 14 8 -1 19 -10 7 -15 19 -11 29 8 22 5 20 -17 -6z"/>
<path d="M2190 1020 c0 -37 0 -38 -41 -38 -22 -1 -48 -7 -57 -14 -9 -7 -13 -8
-9 -2 4 8 -6 14 -31 19 -20 4 -40 12 -44 18 -6 9 -8 8 -8 -1 0 -8 -5 -10 -12
-6 -7 4 -36 8 -65 9 -29 1 -56 5 -60 9 -3 3 -16 6 -27 6 -17 0 -18 -2 -6 -10
8 -5 10 -10 4 -10 -5 0 -20 9 -32 20 -13 13 -23 16 -27 9 -5 -7 -14 -4 -27 7
-16 16 -21 16 -28 4 -5 -8 -6 -17 -2 -21 15 -12 96 -33 135 -34 23 -1 53 -4
67 -8 14 -4 52 -9 85 -11 70 -5 97 -14 88 -29 -3 -6 4 -3 18 6 13 9 41 17 62
17 l39 0 -23 -19 -24 -20 25 6 c14 3 29 12 33 20 5 7 13 10 19 7 7 -4 8 -2 4
4 -4 7 -2 12 4 12 7 0 14 -9 17 -20 6 -23 53 -29 53 -6 0 8 11 14 28 14 33 0
48 -8 32 -18 -8 -5 -7 -9 5 -14 14 -5 16 -2 13 18 -3 14 -2 25 1 24 20 -2 41
3 41 11 0 5 -16 5 -37 1 -25 -6 -42 -5 -52 3 -12 9 -13 9 -7 0 7 -12 -13 -19
-39 -13 -5 1 -31 2 -57 2 -47 0 -64 17 -36 34 7 5 8 2 3 -7 -5 -8 -4 -11 0 -6
16 14 11 56 -7 60 -15 4 -18 -1 -18 -33z m120 -70 c0 -5 -2 -10 -4 -10 -3 0
-8 5 -11 10 -3 6 -1 10 4 10 6 0 11 -4 11 -10z"/>
<path d="M360 1041 c0 -16 28 -33 35 -21 3 5 1 10 -5 10 -6 0 -8 5 -5 10 3 6
-1 10 -9 10 -9 0 -16 -4 -16 -9z"/>
<path d="M462 1021 c2 -19 9 -36 14 -38 15 -5 11 44 -4 59 -11 11 -13 7 -10
-21z"/>
<path d="M682 1038 c2 -6 10 -13 16 -14 7 -1 8 0 2 3 -5 2 -8 9 -4 14 3 5 0 9
-6 9 -7 0 -10 -5 -8 -12z"/>
<path d="M1210 1046 c0 -2 7 -9 15 -16 9 -7 15 -8 15 -2 0 5 -7 12 -15 16 -8
3 -15 4 -15 2z"/>
<path d="M1327 1043 c-16 -15 -4 -30 39 -51 26 -13 49 -20 52 -17 3 3 0 5 -7
5 -7 0 -11 7 -8 14 4 10 -2 17 -16 22 -12 3 -29 13 -38 20 -9 8 -19 11 -22 7z"/>
<path d="M1557 1036 c-4 -10 -1 -13 8 -9 8 3 12 9 9 14 -7 12 -11 11 -17 -5z"/>
<path d="M561 1014 c-12 -27 -7 -44 11 -44 6 0 9 3 5 6 -3 3 -2 17 3 30 13 32
-4 39 -19 8z"/>
<path d="M2430 1026 c0 -8 4 -17 9 -20 5 -4 7 3 4 14 -6 23 -13 26 -13 6z"/>
<path d="M645 1020 c-4 -6 -1 -9 6 -8 6 2 14 -3 16 -10 3 -7 -1 -10 -9 -7 -9
4 -15 0 -15 -9 0 -8 5 -14 11 -13 6 1 12 -8 14 -20 2 -13 8 -23 13 -23 6 0 7
-4 4 -10 -3 -5 0 -10 8 -10 8 0 17 -7 21 -15 3 -8 10 -15 15 -15 6 0 8 7 5 15
-5 11 -2 13 10 9 10 -4 -4 22 -31 59 -50 68 -57 74 -68 57z m85 -102 c0 -5 -4
-8 -9 -8 -9 0 -51 65 -51 78 1 9 59 -61 60 -70z"/>
<path d="M1100 1010 c13 -24 17 -25 17 -5 0 8 -6 16 -14 19 -11 4 -11 1 -3
-14z"/>
<path d="M1046 1012 c-3 -6 17 -24 44 -42 49 -31 51 -32 70 -15 18 17 18 41 0
30 -4 -3 -10 1 -13 7 -2 7 -8 9 -13 5 -5 -5 -1 -13 9 -18 9 -6 15 -14 12 -20
-8 -11 -57 14 -84 42 -10 11 -22 16 -25 11z"/>
<path d="M1610 1010 c-8 -4 -26 -13 -40 -18 -22 -9 -21 -10 11 -5 21 3 39 1
43 -6 5 -7 1 -9 -11 -4 -10 3 -15 3 -11 -2 8 -9 96 -15 115 -7 7 2 10 9 7 14
-4 6 -10 5 -14 -3 -7 -10 -12 -10 -23 -1 -8 7 -22 10 -31 6 -12 -5 -15 -2 -10
12 5 16 4 16 -5 4 -10 -13 -15 -8 -12 13 1 8 0 8 -19 -3z"/>
<path d="M2270 1005 c0 -8 2 -15 4 -15 2 0 6 7 10 15 3 8 1 15 -4 15 -6 0 -10
-7 -10 -15z"/>
<path d="M2300 1004 c0 -8 5 -12 10 -9 6 4 8 11 5 16 -9 14 -15 11 -15 -7z"/>
<path d="M930 1000 c0 -5 5 -10 11 -10 5 0 7 5 4 10 -3 6 -8 10 -11 10 -2 0
-4 -4 -4 -10z"/>
<path d="M1290 1001 c0 -8 71 -33 77 -27 2 1 -15 10 -37 19 -22 8 -40 12 -40
8z"/>
<path d="M605 980 c7 -22 90 -130 101 -130 11 0 0 19 -30 51 -19 20 -44 51
-56 70 -17 28 -20 29 -15 9z"/>
<path d="M1016 983 c-10 -10 95 -72 111 -66 18 7 12 12 -18 18 -12 3 -27 12
-32 20 -4 8 -12 13 -18 10 -5 -4 -12 1 -15 9 -7 17 -16 20 -28 9z"/>
<path d="M732 967 c10 -8 14 -17 10 -21 -4 -4 0 -6 8 -4 8 2 14 -3 13 -9 -2
-7 2 -13 7 -13 24 0 -2 36 -40 54 -9 5 -8 2 2 -7z"/>
<path d="M1490 975 c0 -10 59 -34 64 -26 3 4 -6 13 -20 20 -26 12 -44 14 -44
6z"/>
<path d="M466 953 c-4 -10 -4 -14 0 -10 5 4 14 -3 22 -15 10 -18 12 -19 6 -3
-3 11 -7 26 -7 33 -1 18 -14 15 -21 -5z"/>
<path d="M1778 963 c7 -3 16 -2 19 1 4 3 -2 6 -13 5 -11 0 -14 -3 -6 -6z"/>
<path d="M2660 960 c0 -5 5 -10 11 -10 5 0 7 5 4 10 -3 6 -8 10 -11 10 -2 0
-4 -4 -4 -10z"/>
<path d="M580 952 c0 -7 -5 -10 -11 -6 -14 8 3 -25 44 -86 39 -59 143 -160
190 -185 31 -16 39 -17 49 -6 10 10 10 12 1 7 -7 -4 -23 -2 -35 5 -30 16 -188
169 -188 183 0 5 14 -3 30 -19 43 -41 37 -17 -8 30 -21 22 -46 51 -55 65 -9
13 -17 19 -17 12z m50 -76 c0 -16 -18 -3 -31 22 -23 47 -23 48 4 16 15 -18 27
-35 27 -38z"/>
<path d="M990 956 c0 -2 12 -12 28 -21 l27 -18 -19 21 c-17 20 -36 29 -36 18z"/>
<path d="M1562 939 c-7 -10 -8 -19 -3 -19 5 0 11 5 13 12 3 7 10 8 17 4 11 -7
11 -10 0 -17 -10 -6 -10 -9 -2 -9 7 0 18 10 24 23 6 12 8 19 4 15 -4 -4 -15
-3 -24 2 -13 6 -20 3 -29 -11z"/>
<path d="M2430 950 c-23 -8 -22 -8 8 -7 17 1 32 5 32 9 0 9 -6 9 -40 -2z"/>
<path d="M2626 944 c-3 -9 -6 -26 -6 -38 0 -24 -28 -56 -48 -56 -7 0 -12 -4
-12 -9 0 -5 -15 -19 -34 -31 -19 -11 -41 -34 -48 -50 -9 -21 -20 -30 -35 -30
-15 0 -23 -6 -23 -17 0 -13 3 -14 12 -5 7 7 21 12 32 12 42 0 136 75 136 108
0 24 1 27 19 47 10 11 18 35 19 53 2 35 -2 41 -12 16z m-36 -113 c-5 -11 -22
-29 -36 -40 -15 -12 -23 -21 -18 -21 5 0 -4 -7 -20 -15 -16 -9 -31 -14 -33
-11 -7 6 48 66 56 61 5 -2 19 7 31 20 28 30 34 32 20 6z"/>
<path d="M1227 930 c-9 -11 -13 -20 -9 -20 4 0 -1 -5 -10 -11 -22 -12 -23 -29
-3 -29 9 0 18 -6 21 -13 6 -18 49 -14 49 4 0 9 -9 13 -27 11 -14 -2 -29 1 -32
7 -11 17 14 23 45 11 25 -11 32 -10 49 5 20 18 18 36 -3 34 -9 0 -9 -2 0 -6
10 -3 10 -8 -1 -19 -16 -15 -30 -19 -22 -6 3 5 -4 8 -16 8 -12 -1 -23 5 -26
13 -3 10 0 12 11 8 11 -4 14 -2 10 9 -7 19 -15 18 -36 -6z"/>
<path d="M1428 943 c7 -3 16 -2 19 1 4 3 -2 6 -13 5 -11 0 -14 -3 -6 -6z"/>
<path d="M1786 942 c-2 -4 7 -8 20 -8 13 -1 24 1 24 5 0 9 -38 12 -44 3z"/>
<path d="M1946 941 c-9 -13 -54 -19 -65 -8 -6 6 -16 5 -28 -2 -16 -9 -15 -10
10 -11 24 0 26 -2 15 -19 -8 -13 -20 -17 -39 -14 -15 2 -30 0 -33 -5 -3 -5 21
-12 53 -15 32 -4 66 -9 77 -12 10 -3 6 1 -11 9 -16 8 -33 12 -37 9 -5 -2 -8 3
-8 11 0 8 5 18 12 22 16 10 79 6 94 -7 7 -6 15 -6 18 -1 8 13 -4 22 -31 22
-12 0 -23 5 -23 10 0 19 56 1 72 -24 6 -8 8 -7 8 1 0 27 -71 56 -84 34z"/>
<path d="M410 930 c0 -16 33 -80 42 -80 4 0 8 -10 7 -22 0 -13 -3 -17 -6 -10
-2 6 -12 12 -20 12 -14 0 -14 -3 2 -20 10 -11 15 -20 12 -20 -3 0 5 -18 17
-41 32 -56 124 -149 148 -149 10 0 17 -4 14 -9 -8 -12 21 -34 36 -28 8 4 4 8
-10 13 -15 4 -19 9 -12 14 7 4 -2 13 -24 24 -35 16 -61 41 -32 30 10 -4 20 3
27 20 7 14 23 33 36 41 13 9 21 20 18 25 -3 4 0 10 6 12 5 2 -11 27 -38 55
-59 63 -65 71 -80 106 -7 15 -18 27 -24 27 -8 0 -8 -4 1 -15 6 -8 8 -20 4 -26
-5 -8 -3 -9 6 -4 10 6 12 4 7 -9 -4 -9 -3 -15 2 -11 5 3 19 -8 30 -24 24 -34
27 -49 7 -32 -12 10 -13 8 -9 -9 4 -16 9 -18 19 -9 10 8 19 5 39 -13 28 -26
26 -58 -4 -58 -15 0 -93 73 -99 93 -1 4 -4 7 -7 7 -7 0 -6 -11 2 -35 7 -23 27
-41 61 -55 32 -14 30 -57 -4 -70 -14 -6 -26 -10 -28 -10 -1 0 -3 10 -3 22 -1
13 -7 24 -13 26 -11 4 -50 84 -90 185 -20 50 -40 74 -40 47z m70 -160 c0 -5
-2 -10 -4 -10 -3 0 -8 5 -11 10 -3 6 -1 10 4 10 6 0 11 -4 11 -10z m15 -20
c-3 -5 2 -21 11 -35 9 -14 14 -25 10 -25 -11 0 -38 49 -31 60 3 5 8 10 11 10
3 0 2 -4 -1 -10z"/>
<path d="M1466 927 c3 -8 15 -17 27 -21 12 -3 61 -16 108 -29 47 -13 96 -23
107 -22 18 1 19 -1 10 -12 -7 -9 -22 -12 -37 -9 -24 5 -23 4 4 -9 37 -17 59
-19 49 -3 -5 8 3 9 29 5 21 -3 37 -2 37 4 0 5 -6 9 -12 9 -9 0 -8 4 2 10 13 8
12 10 -2 10 -10 0 -18 -5 -18 -11 0 -6 -7 -4 -15 4 -8 8 -38 18 -66 22 -44 6
-156 38 -212 60 -13 5 -16 3 -11 -8z"/>
<path d="M1728 933 c6 -2 18 -2 25 0 6 3 1 5 -13 5 -14 0 -19 -2 -12 -5z"/>
<path d="M2043 933 c9 -2 23 -2 30 0 6 3 -1 5 -18 5 -16 0 -22 -2 -12 -5z"/>
<path d="M2656 908 c-4 -21 -13 -41 -20 -45 -14 -9 -30 -44 -18 -40 7 2 12 -6
12 -24 0 -5 -4 -8 -9 -5 -4 3 -18 -5 -30 -18 -20 -21 -21 -24 -5 -30 17 -7 37
11 28 25 -2 4 3 9 11 12 18 7 65 99 65 127 0 12 -4 19 -9 16 -5 -4 -11 0 -14
6 -2 7 -7 -4 -11 -24z m-3 -68 c-3 -12 -8 -19 -11 -16 -5 6 5 36 12 36 2 0 2
-9 -1 -20z"/>
<path d="M1660 926 c0 -18 32 -36 68 -39 21 -2 44 -7 49 -10 6 -4 14 0 17 9 5
14 1 16 -24 10 -22 -4 -29 -2 -24 6 5 7 2 9 -9 5 -9 -3 -18 -1 -21 6 -5 9 -8
9 -12 -1 -5 -10 -10 -10 -25 4 -10 9 -19 14 -19 10z"/>
<path d="M2460 920 c0 -5 5 -10 11 -10 5 0 7 5 4 10 -3 6 -8 10 -11 10 -2 0
-4 -4 -4 -10z"/>
<path d="M2100 904 c0 -8 16 -10 48 -7 71 7 73 10 9 14 -38 3 -57 0 -57 -7z"/>
<path d="M2230 912 c0 -4 4 -13 9 -20 7 -11 9 -11 14 1 3 9 -1 18 -9 21 -8 3
-14 2 -14 -2z"/>
<path d="M2285 910 c-16 -7 -17 -9 -3 -9 9 -1 20 4 23 9 7 11 7 11 -20 0z"/>
<path d="M345 893 c1 -10 8 -30 16 -44 8 -15 24 -45 37 -68 12 -22 27 -41 33
-41 6 0 8 -4 5 -8 -3 -5 4 -21 15 -38 10 -16 19 -24 20 -19 1 6 4 -1 8 -15 4
-14 13 -25 21 -25 8 0 14 -9 13 -19 -3 -40 209 -216 250 -208 4 1 6 -4 5 -10
-2 -8 6 -12 20 -11 13 2 21 -1 17 -7 -15 -25 295 -137 402 -145 38 -2 104 -13
148 -22 68 -15 133 -17 425 -16 l345 1 103 31 c120 36 158 54 268 127 73 49
204 180 204 205 0 20 -27 8 -41 -18 -8 -16 -20 -32 -26 -36 -7 -4 -13 -12 -13
-18 0 -12 -51 -69 -62 -69 -5 0 -18 -9 -30 -20 -49 -45 -275 -147 -303 -136
-7 2 -15 0 -17 -6 -6 -17 -141 -36 -248 -36 -75 0 -97 3 -108 16 -13 16 -13
16 -8 0 6 -20 3 -21 -69 -17 -85 4 -99 3 -125 -5 -19 -5 -21 -5 -10 3 8 6 13
11 10 12 -3 0 -23 2 -45 5 -22 2 -69 8 -105 13 -36 6 -112 13 -170 16 -58 4
-116 10 -130 15 -14 5 -60 14 -102 19 -42 5 -91 16 -109 25 -18 9 -47 16 -66
16 -19 0 -32 5 -31 11 2 6 -3 14 -11 17 -9 3 -11 0 -7 -9 4 -8 1 -6 -7 3 -8
10 -17 15 -20 11 -4 -3 -7 -1 -7 6 0 7 -4 10 -9 7 -5 -4 -11 -3 -13 2 -6 14
-79 52 -89 47 -5 -4 -9 -2 -9 3 0 6 -14 15 -31 21 -41 14 -173 142 -157 152 9
6 8 13 -6 28 -10 11 -23 18 -28 15 -4 -3 -8 -2 -7 3 4 15 -13 43 -22 37 -5 -3
-9 3 -9 13 0 10 -14 38 -31 63 -16 25 -41 66 -55 93 -27 51 -31 56 -29 30z
m2335 -353 c-6 -11 -13 -20 -16 -20 -2 0 0 9 6 20 6 11 13 20 16 20 2 0 0 -9
-6 -20z m-1493 -286 c-3 -3 -12 -4 -19 -1 -8 3 -5 6 6 6 11 1 17 -2 13 -5z
m97 -2 c2 -4 -12 -6 -32 -4 -56 5 -62 10 -15 11 23 1 44 -3 47 -7z m131 -12
c22 -5 64 -10 93 -11 28 -2 52 -6 52 -10 0 -11 -168 1 -214 16 l-41 13 35 1
c19 0 53 -4 75 -9z"/>
<path d="M1075 900 c3 -5 14 -10 23 -10 15 0 15 2 2 10 -20 13 -33 13 -25 0z"/>
<path d="M2330 900 c0 -5 7 -7 15 -4 8 4 15 8 15 10 0 2 -7 4 -15 4 -8 0 -15
-4 -15 -10z"/>
<path d="M2370 900 c0 -5 5 -10 11 -10 5 0 7 5 4 10 -3 6 -8 10 -11 10 -2 0
-4 -4 -4 -10z"/>
<path d="M2405 900 c-3 -5 -1 -10 4 -10 6 0 11 5 11 10 0 6 -2 10 -4 10 -3 0
-8 -4 -11 -10z"/>
<path d="M918 881 c-16 -19 -15 -21 30 -47 26 -15 50 -32 54 -38 5 -7 19 1 38
22 28 29 29 32 11 32 -12 0 -21 -3 -21 -7 0 -5 -4 -14 -9 -21 -7 -11 -17 -8
-50 13 -45 30 -52 45 -21 42 11 -1 20 -5 20 -9 0 -4 5 -8 12 -8 6 0 3 9 -7 20
-23 25 -36 25 -57 1z"/>
<path d="M1387 874 c-10 -13 -23 -21 -29 -18 -6 4 -8 2 -4 -4 3 -6 0 -12 -7
-14 -11 -2 -9 -8 6 -23 11 -11 17 -14 13 -7 -4 7 -2 12 5 12 7 0 9 3 6 6 -8 9
12 46 21 40 5 -3 9 4 9 15 2 24 2 24 -20 -7z"/>
<path d="M2040 886 c-10 -13 -8 -14 12 -11 14 3 48 -1 76 -9 29 -7 52 -9 52
-5 0 4 -17 11 -37 14 -21 4 -48 10 -61 16 -29 11 -27 12 -42 -5z"/>
<path d="M2440 885 c-14 -8 -20 -14 -15 -14 6 0 21 6 35 14 14 8 21 14 15 14
-5 0 -21 -6 -35 -14z"/>
<path d="M470 882 c0 -10 33 -42 43 -42 9 0 -5 34 -17 42 -15 10 -26 10 -26 0z"/>
<path d="M1505 880 c3 -5 16 -10 28 -9 21 0 21 1 2 9 -28 12 -37 12 -30 0z"/>
<path d="M2185 880 c3 -5 10 -10 16 -10 5 0 9 5 9 10 0 6 -7 10 -16 10 -8 0
-12 -4 -9 -10z"/>
<path d="M1120 876 c0 -2 7 -7 16 -10 8 -3 12 -2 9 4 -6 10 -25 14 -25 6z"/>
<path d="M2377 873 c-4 -3 -7 -11 -7 -17 0 -6 5 -5 12 2 6 6 9 14 7 17 -3 3
-9 2 -12 -2z"/>
<path d="M1015 862 c-10 -7 -18 -32 -10 -32 2 0 9 9 15 20 12 22 11 24 -5 12z"/>
<path d="M1430 860 c0 -5 5 -10 11 -10 5 0 7 5 4 10 -3 6 -8 10 -11 10 -2 0
-4 -4 -4 -10z"/>
<path d="M1545 860 c-22 -9 -16 -13 38 -25 21 -4 27 -3 21 6 -5 9 -2 10 9 6
10 -4 17 -2 17 4 0 7 -13 9 -37 5 -28 -5 -34 -4 -23 3 18 13 3 13 -25 1z"/>
<path d="M2228 863 c6 -2 18 -2 25 0 6 3 1 5 -13 5 -14 0 -19 -2 -12 -5z"/>
<path d="M2305 863 c-43 -6 -56 -23 -18 -23 18 0 34 4 38 10 3 5 12 7 20 3 8
-3 15 0 15 6 0 6 -6 10 -12 10 -7 -1 -26 -4 -43 -6z"/>
<path d="M1170 856 c0 -2 7 -7 16 -10 8 -3 12 -2 9 4 -6 10 -25 14 -25 6z"/>
<path d="M1465 850 c-3 -5 -2 -10 4 -10 5 0 13 5 16 10 3 6 2 10 -4 10 -5 0
-13 -4 -16 -10z"/>
<path d="M2035 849 c-3 -3 6 -9 20 -11 15 -3 25 -1 25 6 0 6 5 4 10 -4 8 -13
10 -13 10 1 0 11 -9 16 -30 16 -17 0 -33 -4 -35 -8z"/>
<path d="M2190 852 c0 -10 -9 -12 -32 -8 -30 6 -31 5 -8 -4 34 -15 62 -9 50
10 -7 11 -10 12 -10 2z"/>
<path d="M854 817 c-50 -51 -49 -53 11 -93 l56 -38 22 26 c61 72 59 63 13 88
-39 20 -40 20 -16 1 14 -11 29 -21 35 -21 5 0 4 -5 -3 -12 -9 -9 -19 -7 -43
11 -17 12 -33 21 -35 18 -3 -3 12 -15 32 -28 48 -29 26 -38 -23 -9 -35 20 -36
20 -15 2 13 -12 18 -23 12 -27 -12 -7 -46 10 -43 22 1 4 -5 7 -13 5 -8 -2 -14
2 -14 8 0 5 8 10 17 10 9 0 14 3 10 6 -3 3 5 16 19 29 13 12 24 25 24 29 0 13
-16 4 -46 -27z m81 -86 c7 -12 -12 -24 -25 -16 -11 7 -4 25 10 25 5 0 11 -4
15 -9z"/>
<path d="M1817 843 c-4 -3 -7 -16 -7 -27 0 -16 3 -18 9 -7 7 10 13 11 31 1 15
-8 20 -8 16 -1 -4 6 -2 11 5 11 8 0 8 4 -1 15 -13 16 -42 20 -53 8z"/>
<path d="M1410 827 c0 -6 22 -8 58 -4 31 3 52 3 45 0 -7 -2 -9 -11 -6 -19 7
-18 -2 -18 -63 1 -58 18 -57 17 -50 6 4 -5 0 -12 -6 -15 -7 -3 -3 -3 9 0 26 6
103 -13 103 -26 0 -13 80 -24 92 -12 6 6 1 8 -15 5 -14 -3 -28 0 -31 6 -4 5
-13 8 -21 4 -18 -6 -19 1 -5 28 11 20 40 27 40 9 0 -6 10 -8 24 -4 13 3 27 1
30 -5 4 -6 17 -11 29 -12 21 -1 20 -2 -3 -10 -23 -7 -24 -8 -2 -6 12 1 22 6
22 11 -1 5 4 13 12 17 9 6 5 8 -12 8 -14 -1 -47 4 -75 11 -64 15 -175 20 -175
7z"/>
<path d="M1930 830 c13 -9 12 -10 -5 -8 -11 1 -21 -2 -22 -7 -3 -12 46 -27 70
-21 9 2 17 0 17 -5 0 -4 59 -7 131 -6 102 2 133 5 142 17 7 8 26 16 42 17 29
2 29 2 8 -10 -21 -12 -19 -12 18 -12 22 0 36 1 31 3 -6 2 -8 11 -5 21 4 16 0
17 -49 9 -29 -4 -96 -8 -148 -8 -64 -1 -88 -4 -75 -10 16 -7 13 -9 -18 -9 -21
-1 -36 3 -33 8 4 5 -4 7 -16 3 -14 -3 -19 -2 -14 6 5 8 -3 12 -23 12 -16 0
-38 3 -48 6 -15 5 -16 4 -3 -6z m240 -24 c0 -3 -4 -8 -10 -11 -5 -3 -10 -1
-10 4 0 6 5 11 10 11 6 0 10 -2 10 -4z"/>
<path d="M2388 803 c7 -3 16 -2 19 1 4 3 -2 6 -13 5 -11 0 -14 -3 -6 -6z"/>
<path d="M2648 782 c-17 -33 -7 -46 11 -14 6 9 10 13 10 7 0 -5 -6 -19 -14
-29 -8 -11 -15 -16 -15 -12 0 5 -6 4 -12 -1 -7 -6 -21 -9 -32 -7 -20 3 -90
-39 -119 -71 -13 -15 -17 -16 -15 -5 3 15 -2 20 -23 20 -5 0 -8 -4 -5 -9 4 -5
0 -12 -6 -14 -8 -3 -6 -6 5 -6 9 -1 17 -6 17 -11 0 -7 -6 -7 -19 0 -20 10 -51
4 -51 -10 0 -4 11 -10 25 -12 26 -5 85 18 85 34 0 5 4 7 8 4 5 -3 14 3 22 14
7 10 20 16 28 12 10 -3 13 -1 8 7 -8 13 10 41 26 41 6 0 4 -8 -3 -17 -10 -11
-10 -14 -1 -9 17 10 15 -4 -5 -26 -9 -10 -14 -21 -11 -24 3 -3 16 9 28 25 12
17 16 31 10 31 -6 0 -8 5 -5 10 4 6 10 8 15 5 5 -3 12 0 16 6 5 8 9 8 14 -1 6
-9 13 -5 25 13 13 20 15 33 8 54 l-9 27 -16 -32z"/>
<path d="M1116 793 c-13 -13 -5 -20 25 -21 34 -1 34 0 3 16 -12 6 -24 8 -28 5z"/>
<path d="M1180 785 c0 -9 80 -38 87 -32 1 2 -18 12 -43 23 -27 13 -44 16 -44
9z"/>
<path d="M1690 790 c-8 -5 -10 -10 -5 -10 6 0 17 5 25 10 8 5 11 10 5 10 -5 0
-17 -5 -25 -10z"/>
<path d="M1568 783 c6 -2 18 -2 25 0 6 3 1 5 -13 5 -14 0 -19 -2 -12 -5z"/>
<path d="M1760 780 c0 -6 8 -13 18 -16 9 -3 25 -10 34 -15 10 -5 26 -10 35
-10 10 -1 2 -5 -17 -9 -30 -6 -31 -8 -8 -9 41 -2 60 8 45 24 -7 7 -15 11 -19
8 -5 -2 -8 1 -8 6 0 6 -17 11 -37 12 -34 1 -35 2 -13 9 l25 8 -27 1 c-16 1
-28 -4 -28 -9z"/>
<path d="M1868 779 c-10 -6 -8 -9 7 -9 11 -1 40 -4 65 -7 25 -3 42 -2 39 1
-11 12 -98 23 -111 15z"/>
<path d="M2368 774 c-26 -7 -77 -11 -114 -9 -38 2 -73 1 -78 -3 -15 -9 -57
-12 -52 -4 2 4 -14 5 -37 3 l-42 -5 43 -6 c103 -15 342 6 358 31 6 10 -19 8
-78 -7z"/>
<path d="M1440 770 c0 -5 4 -10 9 -10 6 0 13 5 16 10 3 6 -1 10 -9 10 -9 0
-16 -4 -16 -10z"/>
<path d="M1090 763 c0 -9 57 -37 150 -75 42 -17 37 -17 -37 -3 -24 5 -23 4 7
-10 20 -9 47 -14 63 -11 17 4 26 2 22 -4 -7 -11 18 -14 28 -3 4 4 -6 12 -23
19 -20 9 -28 18 -24 28 3 9 11 13 17 9 6 -3 7 -1 3 5 -4 7 -14 12 -22 12 -8 0
-12 -5 -9 -10 10 -17 -24 -23 -55 -10 -25 10 -28 15 -19 31 6 13 6 19 -1 19
-5 0 -10 -4 -10 -10 0 -5 -5 -10 -11 -10 -5 0 -8 4 -5 8 2 4 -3 8 -12 8 -9 0
-27 4 -39 8 -13 4 -23 3 -23 -1z"/>
<path d="M1678 763 c7 -3 16 -2 19 1 4 3 -2 6 -13 5 -11 0 -14 -3 -6 -6z"/>
<path d="M1629 747 c7 -7 14 -8 21 -1 6 6 2 10 -12 11 -16 2 -18 -1 -9 -10z"/>
<path d="M1717 753 c-10 -9 -9 -23 1 -23 5 0 9 7 9 15 0 17 -1 18 -10 8z"/>
<path d="M2415 750 c-3 -5 1 -10 10 -10 9 0 13 5 10 10 -3 6 -8 10 -10 10 -2
0 -7 -4 -10 -10z"/>
<path d="M790 742 c0 -4 26 -23 57 -42 46 -28 53 -36 36 -38 -14 -2 -20 -8
-16 -18 3 -8 1 -14 -5 -14 -13 0 -100 49 -108 61 -3 6 -12 2 -20 -8 -16 -22
-18 -33 -4 -33 6 0 10 7 10 15 0 21 4 20 66 -21 51 -32 57 -34 68 -18 12 15
13 15 29 0 17 -18 62 -31 52 -17 -2 5 -18 14 -35 21 -24 10 -28 15 -19 27 7 7
10 15 8 16 -2 2 -25 16 -51 31 -27 15 -48 31 -48 36 0 6 -4 10 -10 10 -5 0
-10 -4 -10 -8z"/>
<path d="M1776 735 c-3 -8 -1 -15 4 -15 6 0 10 7 10 15 0 8 -2 15 -4 15 -2 0
-6 -7 -10 -15z"/>
<path d="M1990 740 c8 -5 31 -9 50 -9 l35 1 -30 8 c-16 4 -39 8 -50 9 -16 1
-17 -1 -5 -9z"/>
<path d="M990 729 c0 -5 5 -7 10 -4 6 3 10 8 10 11 0 2 -4 4 -10 4 -5 0 -10
-5 -10 -11z"/>
<path d="M1050 710 c-20 -28 -20 -57 1 -44 5 3 7 10 4 15 -4 5 3 9 13 9 15 0
19 5 15 20 -4 16 -2 19 13 14 16 -5 16 -4 4 5 -22 16 -26 14 -50 -19z"/>
<path d="M1228 733 c7 -3 16 -2 19 1 4 3 -2 6 -13 5 -11 0 -14 -3 -6 -6z"/>
<path d="M1330 713 l-22 -28 37 -10 c20 -6 33 -13 30 -17 -3 -3 7 -4 22 -2 17
3 22 1 13 -3 -15 -8 -26 -33 -14 -33 8 0 33 32 34 43 0 4 -10 7 -22 7 -25 1
-91 28 -70 29 6 1 12 7 12 15 0 8 6 17 13 19 8 4 8 6 0 6 -6 1 -21 -11 -33
-26z"/>
<path d="M1568 733 c7 -3 16 -2 19 1 4 3 -2 6 -13 5 -11 0 -14 -3 -6 -6z"/>
<path d="M2263 729 c-25 -9 -30 -19 -10 -19 15 0 43 17 37 23 -3 3 -15 1 -27
-4z"/>
<path d="M1600 727 c0 -3 33 -10 73 -17 39 -6 80 -14 91 -17 11 -3 16 -1 12 5
-3 5 -29 12 -58 16 -29 4 -68 9 -85 12 -18 4 -33 4 -33 1z"/>
<path d="M1885 719 c-18 -7 -17 -8 5 -8 14 -1 49 -4 78 -7 37 -5 52 -3 52 5 0
8 -7 10 -19 6 -10 -3 -36 -2 -58 3 -21 5 -47 5 -58 1z"/>
<path d="M2095 720 c-3 -5 -15 -10 -26 -10 -11 0 -17 -5 -14 -10 4 -7 12 -7
24 0 10 5 21 6 25 3 3 -3 6 1 6 10 0 19 -6 22 -15 7z"/>
<path d="M2146 718 c2 -3 -4 -8 -13 -11 -10 -2 1 -3 23 -3 43 1 52 21 10 21
-13 0 -22 -3 -20 -7z"/>
<path d="M1128 713 c6 -2 12 -9 12 -15 0 -6 -7 -8 -15 -5 -8 4 -17 2 -20 -3
-4 -6 -1 -10 5 -10 6 0 9 -4 6 -9 -3 -5 -16 -7 -29 -4 -22 5 -22 5 -2 -10 19
-15 22 -14 47 16 25 30 23 48 -7 46 -5 0 -4 -3 3 -6z"/>
<path d="M2358 706 c-20 -11 -28 -12 -28 -3 0 8 -2 9 -8 1 -13 -20 -50 -34
-89 -33 -37 1 -37 1 -10 9 16 5 35 6 43 3 8 -3 14 -1 14 4 0 11 -23 14 -68 7
-18 -3 -30 -9 -27 -15 8 -12 -9 -17 -83 -21 -34 -3 -59 -1 -54 4 5 5 34 9 65
10 107 3 57 13 -68 14 -69 1 -125 -3 -125 -7 0 -5 6 -6 13 -4 6 2 28 0 47 -4
l35 -9 -32 -1 c-18 -1 -33 -6 -33 -13 0 -8 36 -9 138 -4 196 10 272 20 272 37
0 5 12 9 26 9 15 0 24 5 22 12 -6 18 -20 19 -50 4z"/>
<path d="M1365 700 c-3 -5 -1 -10 4 -10 6 0 11 5 11 10 0 6 -2 10 -4 10 -3 0
-8 -4 -11 -10z"/>
<path d="M1442 698 c-14 -14 -16 -28 -3 -28 5 0 11 9 14 20 6 23 5 24 -11 8z"/>
<path d="M1790 706 c0 -2 7 -6 15 -10 8 -3 15 -1 15 4 0 6 -7 10 -15 10 -8 0
-15 -2 -15 -4z"/>
<path d="M2495 700 c-3 -6 1 -7 9 -4 18 7 21 14 7 14 -6 0 -13 -4 -16 -10z"/>
<path d="M1390 690 c0 -5 7 -10 16 -10 8 0 12 5 9 10 -3 6 -10 10 -16 10 -5 0
-9 -4 -9 -10z"/>
<path d="M1845 691 c-3 -7 0 -8 9 -5 8 3 24 0 36 -6 18 -10 21 -9 18 2 -6 16
-54 23 -63 9z"/>
<path d="M1814 668 c-9 -14 -1 -18 44 -20 27 -1 39 -5 35 -12 -4 -6 1 -5 10 2
9 8 21 11 27 7 5 -3 10 -1 10 4 0 6 -6 11 -12 12 -7 0 -35 4 -61 8 -27 5 -50
4 -53 -1z"/>
<path d="M2579 640 c-38 -41 -73 -63 -84 -52 -5 4 -5 1 -1 -6 10 -17 -24 -29
-34 -11 -5 7 -6 17 -4 21 3 5 -7 3 -21 -4 -15 -7 -22 -14 -16 -16 7 -2 3 -11
-10 -23 -12 -10 -18 -19 -14 -19 5 0 16 7 26 16 10 9 24 14 31 11 11 -4 -21
-21 -109 -57 -13 -5 -23 -14 -23 -19 0 -10 45 2 89 25 25 13 46 10 36 -6 -3
-5 8 -4 25 1 16 6 33 15 36 20 8 13 -10 11 -23 -2 -7 -7 -20 -9 -29 -5 -14 6
-6 14 39 39 31 18 69 43 84 57 16 14 32 24 36 22 5 -1 6 2 3 7 -3 5 1 11 9 15
19 7 20 23 1 23 -8 0 -29 -17 -47 -37z"/>
<path d="M950 660 c8 -5 20 -10 25 -10 6 0 3 5 -5 10 -8 5 -19 10 -25 10 -5 0
-3 -5 5 -10z"/>
<path d="M1453 662 c-6 -4 11 -7 38 -8 29 0 44 3 37 8 -16 10 -59 10 -75 0z"/>
<path d="M996 629 c-31 -36 -28 -43 20 -59 19 -7 33 -14 31 -17 -3 -2 -22 3
-43 12 -36 15 -39 15 -51 -2 -7 -10 -17 -23 -23 -30 -15 -18 -14 -19 31 -33
40 -14 42 -13 63 11 19 23 64 30 51 8 -4 -5 -2 -9 3 -9 5 0 12 9 15 19 4 16
-5 24 -50 42 -43 17 -52 24 -39 31 9 5 26 7 39 3 17 -4 15 -2 -6 10 -37 21
-28 31 14 16 51 -18 68 -11 24 9 -52 24 -49 25 -79 -11z m2 -75 c30 -8 28 -32
-4 -40 -30 -8 -47 6 -38 29 7 19 9 19 42 11z"/>
<path d="M1554 636 c-10 -21 -9 -25 5 -25 9 0 35 -1 58 -1 24 -1 45 -6 49 -11
3 -5 15 -7 26 -3 12 4 18 2 14 -4 -6 -11 66 -21 199 -27 59 -3 80 -1 60 4 -22
6 -3 9 70 10 55 1 95 5 88 9 -6 4 -78 4 -159 -1 -81 -4 -150 -4 -153 0 -3 5
-24 9 -46 10 -22 1 -74 8 -115 17 -41 8 -77 15 -79 16 -2 0 -1 7 3 15 9 25 -8
17 -20 -9z"/>
<path d="M2351 651 c-9 -6 -9 -10 1 -18 9 -8 16 -7 25 2 9 10 9 14 -1 18 -7 3
-18 2 -25 -2z"/>
<path d="M697 643 c-12 -11 -8 -23 7 -23 8 0 38 -14 66 -32 49 -30 51 -31 65
-12 17 23 19 34 5 34 -5 0 -10 -7 -10 -15 0 -23 -18 -18 -71 20 -54 38 -53 38
-62 28z"/>
<path d="M1215 640 c-3 -5 1 -10 10 -10 9 0 13 5 10 10 -3 6 -8 10 -10 10 -2
0 -7 -4 -10 -10z"/>
<path d="M1345 640 c3 -5 14 -10 23 -10 15 0 15 2 2 10 -20 13 -33 13 -25 0z"/>
<path d="M1618 643 c7 -3 16 -2 19 1 4 3 -2 6 -13 5 -11 0 -14 -3 -6 -6z"/>
<path d="M1269 622 c-14 -17 -12 -18 39 -19 29 -1 56 -4 59 -6 2 -3 -3 -22
-13 -42 -17 -36 -19 -37 -58 -31 -59 10 -36 -5 31 -19 81 -18 23 -18 -73 -1
-69 13 -96 14 -139 7 -22 -4 63 -41 108 -47 43 -6 67 -24 32 -24 -8 0 -15 -4
-15 -10 0 -14 27 -12 33 3 3 8 9 7 19 -7 9 -11 22 -16 34 -13 17 4 16 5 -3 6
-13 0 -23 6 -23 12 0 7 9 9 23 5 12 -3 45 -9 72 -12 43 -5 52 -3 62 14 11 18
8 20 -25 25 -19 4 -41 2 -48 -4 -9 -7 -39 -6 -98 6 -101 18 -155 37 -91 31 22
-2 61 -9 88 -15 60 -14 132 -5 113 14 -7 7 -23 15 -37 17 l-23 3 31 33 c18 17
27 32 21 32 -6 0 -9 3 -5 6 3 3 28 1 54 -5 26 -6 73 -14 103 -16 30 -3 73 -8
95 -11 22 -2 67 -7 100 -9 33 -2 61 -5 63 -6 7 -4 27 -7 71 -8 40 -1 50 -5 54
-21 3 -11 12 -20 21 -20 19 0 21 16 4 26 -7 5 -8 3 -3 -6 5 -9 4 -11 -3 -6
-23 14 -11 24 24 21 20 -1 87 4 148 12 109 14 178 35 158 47 -6 3 -17 -1 -25
-9 -17 -17 -31 -20 -22 -5 3 5 -11 2 -32 -6 -28 -12 -38 -13 -41 -4 -3 9 -7 9
-13 -1 -7 -11 -11 -12 -17 -1 -9 14 -42 6 -42 -11 0 -12 -227 -2 -335 15 -38
6 -77 10 -85 10 -26 -2 -171 19 -243 34 -37 8 -72 12 -77 9 -4 -3 -10 -1 -12
4 -7 19 -44 21 -59 3z m136 -182 c-3 -5 -11 -10 -16 -10 -6 0 -7 5 -4 10 3 6
11 10 16 10 6 0 7 -4 4 -10z"/>
<path d="M1450 632 c23 -4 24 -5 5 -13 -13 -6 -6 -6 20 -3 60 9 61 19 2 20
-29 0 -41 -1 -27 -4z"/>
<path d="M1668 633 c12 -2 30 -2 40 0 9 3 -1 5 -23 4 -22 0 -30 -2 -17 -4z"/>
<path d="M2511 631 c-10 -6 -9 -10 3 -14 8 -3 18 -2 21 3 8 13 -9 20 -24 11z"/>
<path d="M2615 614 c-30 -25 -30 -25 -3 -13 15 6 29 18 32 25 7 18 6 18 -29
-12z"/>
<path d="M800 620 c0 -5 5 -10 11 -10 5 0 7 5 4 10 -3 6 -8 10 -11 10 -2 0 -4
-4 -4 -10z"/>
<path d="M1750 619 c14 -6 45 -11 69 -10 24 1 47 -3 51 -9 5 -8 9 -7 13 4 5
13 -1 16 -36 16 -23 0 -60 3 -82 5 -36 5 -38 4 -15 -6z"/>
<path d="M1915 620 c3 -5 8 -10 11 -10 2 0 4 5 4 10 0 6 -5 10 -11 10 -5 0 -7
-4 -4 -10z"/>
<path d="M2166 623 c-1 -2 -49 -5 -106 -8 -159 -7 -133 -17 37 -13 83 2 149 6
146 11 -2 4 1 7 6 7 6 0 11 -4 11 -10 0 -5 7 -7 15 -3 28 10 5 18 -52 18 -30
0 -56 -1 -57 -2z"/>
<path d="M2310 619 c0 -5 5 -7 10 -4 6 3 10 8 10 11 0 2 -4 4 -10 4 -5 0 -10
-5 -10 -11z"/>
<path d="M2647 609 c-11 -13 -13 -19 -5 -19 16 0 -20 -25 -86 -60 -28 -15 -51
-32 -51 -38 0 -13 -35 -41 -50 -41 -5 -1 1 8 15 19 14 11 22 20 19 20 -10 0
-73 -28 -82 -36 -4 -4 -17 -9 -29 -11 -12 -2 -36 -19 -54 -37 -36 -37 -64 -46
-239 -72 -55 -9 -120 -13 -145 -10 -32 4 -38 3 -20 -4 24 -8 24 -8 -7 -9 -17
-1 -35 4 -38 9 -3 6 -16 10 -28 9 -21 -1 -21 -1 -2 -7 21 -7 33 -32 15 -32 -5
0 -10 4 -10 9 0 5 -6 9 -12 8 -7 0 -38 1 -68 2 -44 2 -50 5 -30 11 14 4 21 9
15 9 -5 1 -28 4 -50 6 -37 5 -38 4 -15 -7 25 -12 24 -12 -14 -16 -25 -2 -42 1
-47 10 -5 7 -9 8 -9 3 0 -6 -17 -9 -41 -7 -50 5 -47 8 14 16 29 4 47 3 47 -4
0 -5 5 -10 11 -10 6 0 9 6 6 13 -2 8 -29 12 -85 12 -52 1 -79 -3 -76 -10 3 -5
-1 -3 -8 6 -9 11 -40 19 -98 25 -47 4 -89 6 -95 5 -14 -4 -55 -9 -85 -11 -26
-2 164 -34 260 -45 30 -3 71 -8 90 -12 19 -4 43 -6 53 -4 9 1 17 -2 17 -7 0
-6 65 -8 168 -6 200 4 232 7 232 16 0 4 15 7 33 6 39 -1 142 18 217 39 103 29
242 106 310 170 14 13 41 37 60 53 22 18 29 30 20 30 -10 1 -9 4 4 9 16 6 17
9 4 13 -8 4 -22 -2 -31 -13z m-207 -164 c0 -5 -86 -45 -96 -45 -2 0 -4 4 -4 9
0 5 16 12 35 15 19 4 35 11 35 16 0 6 7 10 15 10 8 0 15 -2 15 -5z m-1110 -91
c0 -2 -12 -4 -27 -4 -21 0 -24 3 -14 9 13 8 41 5 41 -5z"/>
<path d="M2716 615 c-9 -26 -7 -32 5 -12 6 10 9 21 6 23 -2 3 -7 -2 -11 -11z"/>
<path d="M540 602 c0 -9 29 -36 65 -62 18 -14 19 -14 6 3 -7 9 -9 17 -4 17 17
0 32 -22 26 -39 -4 -9 -3 -13 2 -9 4 4 14 0 21 -10 12 -15 13 -15 11 8 -3 17
-21 37 -58 62 -56 38 -69 44 -69 30z"/>
<path d="M672 597 c-8 -10 0 -18 33 -36 25 -13 42 -28 39 -32 -3 -5 -19 0 -35
11 -16 12 -29 17 -29 12 0 -9 77 -53 229 -134 19 -10 37 -16 39 -13 6 6 12 2
-71 44 -37 19 -65 36 -63 39 7 7 45 -8 61 -25 9 -8 26 -16 39 -17 13 0 22 -4
20 -8 -5 -8 16 -14 76 -22 19 -3 50 -10 68 -15 37 -11 37 -11 57 -11 8 0 15
-4 15 -9 0 -8 -16 -6 -95 14 -16 4 -27 5 -23 1 3 -4 38 -16 78 -26 59 -15 71
-16 66 -4 -4 11 1 13 24 9 16 -3 32 -1 35 5 4 6 -10 10 -34 10 -23 0 -41 4
-41 10 0 5 -6 7 -13 5 -6 -3 -50 6 -97 21 -47 14 -97 28 -112 31 -56 11 -256
123 -251 141 6 16 -2 15 -15 -1z m118 -87 c14 -11 22 -20 18 -20 -14 0 -58 23
-58 32 0 13 13 9 40 -12z"/>
<path d="M1070 601 c0 -5 -8 -11 -17 -13 -16 -3 -16 -4 -2 -10 9 -4 20 1 27
13 8 12 8 19 2 19 -5 0 -10 -4 -10 -9z"/>
<path d="M2340 599 c-11 -8 -8 -9 15 -5 l30 6 -25 -15 c-14 -8 -33 -14 -42
-15 -10 0 -18 -5 -18 -11 0 -6 3 -9 8 -7 4 2 29 12 56 22 40 16 45 21 30 27
-27 11 -37 10 -54 -2z"/>
<path d="M1119 589 c14 -5 28 -6 32 -2 4 4 -6 9 -24 10 -30 1 -31 1 -8 -8z"/>
<path d="M1191 591 c-15 -10 -7 -31 12 -31 8 0 7 3 -2 9 -11 7 -10 11 5 20 11
6 15 10 9 11 -5 0 -16 -4 -24 -9z"/>
<path d="M1288 593 c7 -3 16 -2 19 1 4 3 -2 6 -13 5 -11 0 -14 -3 -6 -6z"/>
<path d="M1548 593 c6 -2 18 -2 25 0 6 3 1 5 -13 5 -14 0 -19 -2 -12 -5z"/>
<path d="M2285 590 c3 -5 13 -10 21 -10 8 0 12 5 9 10 -3 6 -13 10 -21 10 -8
0 -12 -4 -9 -10z"/>
<path d="M1250 581 c0 -9 24 -21 41 -21 5 0 9 5 9 11 0 6 -7 9 -15 5 -8 -3
-15 -1 -15 4 0 6 -4 10 -10 10 -5 0 -10 -4 -10 -9z"/>
<path d="M1328 583 c7 -3 16 -2 19 1 4 3 -2 6 -13 5 -11 0 -14 -3 -6 -6z"/>
<path d="M1328 563 c7 -3 16 -2 19 1 4 3 -2 6 -13 5 -11 0 -14 -3 -6 -6z"/>
<path d="M1418 563 c6 -2 18 -2 25 0 6 3 1 5 -13 5 -14 0 -19 -2 -12 -5z"/>
<path d="M2544 556 c-10 -8 -17 -16 -14 -19 3 -2 14 4 24 14 23 22 18 25 -10
5z"/>
<path d="M1235 550 c3 -5 18 -10 32 -10 32 0 28 5 -10 14 -19 4 -26 3 -22 -4z"/>
<path d="M1478 553 c7 -3 16 -2 19 1 4 3 -2 6 -13 5 -11 0 -14 -3 -6 -6z"/>
<path d="M1521 549 c13 -8 88 -14 78 -5 -2 2 -24 6 -48 9 -29 4 -40 2 -30 -4z"/>
<path d="M2028 553 c7 -3 16 -2 19 1 4 3 -2 6 -13 5 -11 0 -14 -3 -6 -6z"/>
<path d="M2255 550 c-3 -6 1 -7 9 -4 18 7 21 14 7 14 -6 0 -13 -4 -16 -10z"/>
<path d="M2346 550 c-19 -6 -19 -7 2 -12 12 -4 24 -2 27 2 8 13 -8 18 -29 10z"/>
<path d="M1168 543 c7 -3 16 -2 19 1 4 3 -2 6 -13 5 -11 0 -14 -3 -6 -6z"/>
<path d="M1308 533 c7 -3 16 -2 19 1 4 3 -2 6 -13 5 -11 0 -14 -3 -6 -6z"/>
<path d="M1633 533 c9 -2 23 -2 30 0 6 3 -1 5 -18 5 -16 0 -22 -2 -12 -5z"/>
<path d="M2275 530 c-11 -5 -37 -9 -57 -9 -21 -1 -38 -5 -38 -9 0 -7 96 -1
108 7 1 0 7 1 12 1 6 0 10 5 10 10 0 12 -8 12 -35 0z"/>
<path d="M1395 519 c22 -4 54 -8 70 -7 26 0 25 1 -10 9 -22 4 -53 8 -70 7 -26
0 -25 -1 10 -9z"/>
<path d="M1518 523 c7 -3 16 -2 19 1 4 3 -2 6 -13 5 -11 0 -14 -3 -6 -6z"/>
<path d="M1718 523 c6 -2 18 -2 25 0 6 3 1 5 -13 5 -14 0 -19 -2 -12 -5z"/>
<path d="M682 500 c7 -11 16 -20 20 -20 3 0 14 -7 23 -17 11 -11 19 -13 23 -5
5 7 12 6 24 -2 10 -7 15 -15 12 -19 -6 -5 7 -10 59 -21 15 -4 25 -11 22 -16
-3 -6 -1 -10 4 -10 27 0 -10 42 -39 45 -15 1 -70 41 -70 50 0 5 -4 4 -9 -4 -7
-10 -13 -11 -27 -2 -11 6 -15 11 -10 11 11 0 -25 29 -37 30 -4 0 -2 -9 5 -20z"/>
<path d="M1505 504 c-44 -8 -54 -12 -25 -9 25 2 70 -2 100 -9 30 -7 70 -12 87
-10 18 1 36 -2 39 -8 4 -6 10 -5 15 3 6 10 9 11 9 2 0 -16 29 -17 50 -2 12 8
9 10 -13 6 -15 -2 -30 -1 -32 3 -3 4 -41 11 -87 15 -54 4 -77 10 -67 16 17 11
13 10 -76 -7z"/>
<path d="M1970 516 c0 -2 7 -9 15 -16 9 -7 15 -8 15 -2 0 5 -7 12 -15 16 -8 3
-15 4 -15 2z"/>
<path d="M2594 498 l-19 -23 23 19 c12 11 22 21 22 23 0 8 -8 2 -26 -19z"/>
<path d="M2148 503 c7 -3 16 -2 19 1 4 3 -2 6 -13 5 -11 0 -14 -3 -6 -6z"/>
<path d="M1828 493 c6 -2 18 -2 25 0 6 3 1 5 -13 5 -14 0 -19 -2 -12 -5z"/>
<path d="M1873 488 c6 -30 50 -46 87 -31 8 3 34 5 58 4 23 -2 42 1 42 6 0 5
-27 9 -60 9 -36 1 -57 -3 -53 -8 8 -14 -38 2 -55 18 -17 17 -23 18 -19 2z"/>
<path d="M2190 490 l-25 -8 27 -1 c15 -1 30 4 33 9 7 11 0 11 -35 0z"/>
<path d="M900 480 c0 -5 5 -10 10 -10 6 0 10 5 10 10 0 6 -4 10 -10 10 -5 0
-10 -4 -10 -10z"/>
<path d="M1100 480 c8 -5 22 -10 30 -10 13 0 13 1 0 10 -8 5 -22 10 -30 10
-13 0 -13 -1 0 -10z"/>
<path d="M1423 483 c6 -9 98 -27 192 -37 22 -2 74 -9 115 -16 142 -23 536 6
575 42 11 11 -22 7 -165 -17 -119 -20 -311 -20 -455 -1 -60 8 -141 18 -180 21
-38 4 -74 9 -79 12 -5 4 -6 2 -3 -4z"/>
<path d="M2070 473 c0 -17 20 -16 61 1 l34 15 -47 -2 c-31 -1 -48 -7 -48 -14z"/>
<path d="M1806 472 c-2 -4 4 -9 15 -9 10 -1 19 2 19 8 0 11 -27 12 -34 1z"/>
<path d="M1070 445 c0 -9 6 -12 15 -9 8 4 12 10 9 15 -8 14 -24 10 -24 -6z"/>
<path d="M1175 450 c-3 -5 1 -10 9 -10 9 0 16 5 16 10 0 6 -4 10 -9 10 -6 0
-13 -4 -16 -10z"/>
<path d="M2260 440 c-20 -6 -21 -8 -5 -8 11 0 29 3 40 8 25 11 -1 11 -35 0z"/>
<path d="M2525 439 c-4 -6 -5 -12 -2 -15 2 -3 7 2 10 11 7 17 1 20 -8 4z"/>
<path d="M1150 425 c24 -8 46 -13 48 -11 5 5 -59 26 -77 25 -9 0 4 -7 29 -14z"/>
<path d="M1468 428 c6 -6 34 -12 64 -14 29 -2 67 -6 85 -9 18 -3 34 -1 38 5 5
8 12 7 23 -2 14 -10 15 -10 5 2 -13 15 -56 22 -47 8 6 -9 -58 2 -66 12 -3 3
-29 6 -59 7 -35 1 -50 -2 -43 -9z"/>
<path d="M2470 404 c-44 -32 -46 -34 -22 -27 11 3 30 16 43 29 28 30 24 29
-21 -2z"/>
<path d="M2285 411 c-3 -5 -1 -12 5 -16 5 -3 10 1 10 9 0 18 -6 21 -15 7z"/>
<path d="M980 400 c20 -13 33 -13 25 0 -3 6 -14 10 -23 10 -15 0 -15 -2 -2
-10z"/>
<path d="M1243 403 c9 -2 17 -8 17 -12 0 -4 15 -5 33 -2 31 4 31 5 7 12 -14 4
-36 7 -50 7 -16 0 -19 -2 -7 -5z"/>
<path d="M1363 403 c9 -2 23 -2 30 0 6 3 -1 5 -18 5 -16 0 -22 -2 -12 -5z"/>
<path d="M1735 400 c4 -6 11 -8 16 -5 14 9 11 15 -7 15 -8 0 -12 -5 -9 -10z"/>
<path d="M1915 400 c4 -6 11 -8 16 -5 14 9 11 15 -7 15 -8 0 -12 -5 -9 -10z"/>
<path d="M1955 400 c-3 -5 1 -10 10 -10 9 0 13 5 10 10 -3 6 -8 10 -10 10 -2
0 -7 -4 -10 -10z"/>
<path d="M2028 403 c7 -3 16 -2 19 1 4 3 -2 6 -13 5 -11 0 -14 -3 -6 -6z"/>
<path d="M900 390 c0 -5 12 -12 28 -16 15 -3 33 -8 40 -10 8 -2 12 2 9 8 -2 7
-16 12 -30 12 -15 -1 -27 3 -27 7 0 5 -4 9 -10 9 -5 0 -10 -4 -10 -10z"/>
<path d="M1438 393 c12 -2 20 -7 18 -11 -2 -4 24 -7 57 -8 34 -1 77 -4 95 -8
21 -5 38 -3 47 4 14 11 19 7 16 -12 0 -5 4 -8 9 -8 6 0 10 7 10 15 0 8 5 15
10 15 6 0 10 -5 10 -11 0 -5 5 -7 10 -4 6 3 10 1 10 -4 0 -6 10 -11 23 -10 15
0 17 2 7 6 -8 3 -18 10 -21 15 -9 13 -89 23 -89 11 0 -11 -32 -14 -40 -3 -3 4
-48 9 -100 12 -52 3 -85 3 -72 1z"/>
<path d="M2150 388 l25 -11 -25 -8 c-21 -7 -19 -8 9 -4 18 3 41 5 50 5 13 0
14 2 2 9 -8 5 -20 7 -27 4 -6 -2 -15 0 -19 6 -3 6 -14 11 -23 10 -12 0 -9 -4
8 -11z"/>
<path d="M2241 391 c-9 -6 -6 -8 13 -8 14 0 23 3 20 8 -7 11 -15 11 -33 0z"/>
<path d="M2020 380 c0 -5 5 -10 10 -10 6 0 10 5 10 10 0 6 -4 10 -10 10 -5 0
-10 -4 -10 -10z"/>
<path d="M2068 383 c12 -2 30 -2 40 0 9 3 -1 5 -23 4 -22 0 -30 -2 -17 -4z"/>
<path d="M1924 373 c7 -7 77 -5 85 3 2 2 -17 4 -44 4 -27 0 -45 -3 -41 -7z"/>
<path d="M2396 367 c-11 -8 -16 -20 -13 -28 4 -10 6 -9 6 4 1 9 8 17 16 17 8
0 15 5 15 10 0 13 -3 13 -24 -3z"/>
<path d="M995 350 c3 -5 8 -10 11 -10 2 0 4 5 4 10 0 6 -5 10 -11 10 -5 0 -7
-4 -4 -10z"/>
<path d="M1028 348 c12 -12 62 -18 62 -7 0 13 -28 17 -39 6 -8 -8 -11 -8 -11
1 0 7 -5 12 -12 12 -9 0 -9 -3 0 -12z"/>
<path d="M2050 349 c-11 -7 -4 -8 25 -3 50 8 58 14 19 14 -16 0 -36 -5 -44
-11z"/>
<path d="M1110 333 c0 -7 5 -13 10 -13 6 0 10 5 10 11 0 5 4 8 9 4 5 -3 12 -1
16 5 4 6 -4 9 -19 8 -15 -1 -26 -8 -26 -15z"/>
<path d="M1165 330 c-3 -6 1 -7 9 -4 9 4 16 1 16 -6 0 -7 7 -10 15 -6 8 3 15
1 15 -4 0 -5 17 -8 38 -7 20 1 42 -2 48 -6 7 -4 14 -1 17 7 4 10 -5 14 -36 14
-23 0 -55 5 -70 11 -35 14 -44 14 -52 1z"/>
<path d="M2306 327 c-16 -12 -16 -14 -2 -14 9 0 16 4 16 8 0 4 8 10 18 12 13
4 14 5 1 6 -8 0 -23 -5 -33 -12z"/>
<path d="M1783 323 c9 -2 23 -2 30 0 6 3 -1 5 -18 5 -16 0 -22 -2 -12 -5z"/>
<path d="M2245 306 c-16 -7 -47 -16 -67 -20 -27 -5 -38 -12 -38 -24 0 -12 3
-13 8 -5 7 12 97 35 105 27 1 -2 8 6 15 16 7 11 11 20 10 20 -2 -1 -16 -7 -33
-14z"/>
<path d="M1381 301 c-9 -6 -6 -8 13 -8 14 0 23 3 20 8 -7 11 -15 11 -33 0z"/>
<path d="M1430 292 c0 -4 15 -8 33 -9 26 -2 28 0 12 7 -26 11 -45 12 -45 2z"/>
<path d="M1502 275 c3 -3 25 -7 49 -10 33 -3 38 -2 19 4 -28 10 -76 14 -68 6z"/>
<path d="M1600 259 c0 -5 11 -9 25 -9 14 0 25 2 25 4 0 2 -11 6 -25 8 -14 3
-25 1 -25 -3z"/>
<path d="M2069 265 c-3 -2 -45 -7 -94 -10 -50 -4 -92 -8 -94 -11 -4 -3 70 -8
90 -6 4 1 26 3 50 5 24 3 51 7 59 10 8 3 24 8 35 10 13 3 9 5 -11 6 -17 0 -33
-1 -35 -4z"/>
<path d="M1700 247 c0 -9 11 -12 36 -9 41 5 40 7 -3 15 -23 5 -33 3 -33 -6z"/>
<path d="M1798 238 c9 -9 15 -9 24 0 9 9 7 12 -12 12 -19 0 -21 -3 -12 -12z"/>
</g>
</svg>
