<?xml version="1.0" standalone="no"?>
<!DOCTYPE svg PUBLIC "-//W3C//DTD SVG 20010904//EN"
 "http://www.w3.org/TR/2001/REC-SVG-20010904/DTD/svg10.dtd">
<svg version="1.0" xmlns="http://www.w3.org/2000/svg"
 width="300.000000pt" height="92.000000pt" viewBox="0 0 300.000000 92.000000"
 preserveAspectRatio="xMidYMid meet">
<metadata>
Created by potrace 1.10, written by Peter Selinger 2001-2011
</metadata>
<g transform="translate(0.000000,92.000000) scale(0.100000,-0.100000)"
fill="#000000" stroke="none">
<path d="M1468 867 c-16 -6 -28 -14 -28 -19 0 -4 -7 -8 -15 -8 -8 0 -15 -5
-15 -11 0 -5 -4 -8 -9 -5 -5 3 -14 -1 -21 -9 -7 -8 -9 -15 -5 -15 4 0 -6 -15
-21 -34 -16 -19 -37 -45 -46 -58 -9 -13 -17 -18 -18 -12 0 6 18 32 41 58 22
25 36 46 31 46 -10 0 -65 -57 -92 -96 -38 -53 -52 -55 -309 -58 -179 -2 -244
-6 -256 -16 -8 -7 -18 -10 -21 -7 -8 8 -138 -31 -234 -70 -164 -67 -190 -83
-190 -118 0 -17 -2 -18 -11 -5 -8 11 -9 8 -4 -15 6 -29 6 -29 -14 -11 -12 11
-21 15 -21 10 0 -5 -14 -15 -30 -21 -23 -8 -29 -16 -24 -30 4 -13 3 -14 -3 -5
-14 19 -66 -2 -61 -25 3 -17 58 -28 58 -11 0 4 -5 8 -12 8 -6 0 -8 3 -5 6 4 4
12 2 20 -4 18 -15 55 -11 62 7 8 20 -4 28 -16 11 -9 -12 -10 -11 -5 4 5 13 2
17 -9 12 -8 -3 -15 -1 -15 3 0 5 7 12 16 15 21 8 49 8 41 -1 -4 -3 -2 -13 5
-20 9 -11 9 -16 -3 -23 -11 -7 -6 -17 25 -45 46 -42 59 -41 16 1 -34 33 -36
40 -15 42 8 1 22 3 31 4 15 1 15 2 1 13 -12 9 -14 14 -5 23 7 7 18 12 26 12 8
0 12 9 10 24 -3 25 19 59 33 50 17 -10 10 -34 -8 -27 -16 6 -16 5 -4 -11 13
-15 16 -16 30 -1 13 13 14 19 3 36 -11 17 -11 20 -1 17 44 -15 32 -73 -15 -73
-14 1 -26 -5 -26 -12 0 -6 10 -11 23 -9 36 4 57 17 57 35 0 14 2 14 10 1 7
-11 11 -9 19 13 6 16 11 35 11 43 0 8 5 14 10 14 19 0 10 -59 -12 -80 -12 -11
-17 -20 -10 -20 6 0 14 5 17 10 4 6 10 8 14 6 13 -9 30 61 18 73 -6 6 -8 13
-4 17 10 10 27 -6 27 -25 0 -25 -47 -160 -65 -188 -9 -13 -11 -23 -5 -23 6 0
18 12 28 28 9 15 26 28 37 30 11 2 40 14 64 28 49 27 55 29 46 13 -4 -5 -30
-21 -58 -34 -29 -13 -45 -24 -37 -24 33 0 105 44 108 66 2 15 -1 22 -10 20 -7
-2 -10 -2 -5 0 4 3 5 8 3 12 -3 4 1 8 9 8 8 0 15 -10 16 -21 1 -18 2 -18 9 4
18 58 12 87 -27 119 -39 32 -53 38 -53 21 0 -5 7 -10 16 -10 10 0 14 -6 11
-14 -4 -10 -1 -13 8 -10 23 9 22 -29 -3 -76 -28 -53 -49 -72 -74 -64 -13 4
-16 1 -12 -10 5 -12 2 -15 -10 -10 -11 4 -13 11 -6 24 5 9 7 20 4 23 -8 8 19
3 34 -7 7 -4 15 -6 16 -5 12 14 36 71 36 85 0 16 -1 16 -15 -2 -17 -22 -20
-12 -4 18 8 15 8 19 0 14 -6 -4 -11 -3 -11 3 0 5 6 12 13 14 7 3 6 6 -5 6 -21
1 -32 -15 -17 -25 8 -4 8 -9 1 -13 -7 -4 -8 -20 -3 -44 9 -37 5 -42 -23 -31
-10 4 -13 12 -7 27 12 35 5 66 -19 92 -13 14 -21 27 -19 29 12 13 100 16 120
5 17 -9 24 -9 27 0 2 6 8 11 13 11 6 0 7 -4 4 -10 -3 -5 -1 -18 4 -27 9 -16
11 -15 11 7 1 14 4 19 7 12 5 -13 23 -7 23 9 0 6 -4 8 -8 5 -4 -2 -14 0 -22 5
-13 7 -13 10 -1 18 11 7 11 9 0 14 -8 3 -3 5 11 5 14 0 37 3 51 6 23 5 27 2
37 -31 6 -20 8 -41 5 -46 -4 -6 -1 -7 6 -3 8 6 11 2 9 -10 -2 -11 3 -19 10
-18 36 3 42 5 42 15 0 6 -9 8 -20 4 -18 -6 -19 -4 -10 21 6 15 8 29 5 32 -2 3
-9 -6 -14 -19 -9 -23 -10 -23 -10 -2 -1 12 3 24 9 28 5 3 7 12 4 20 -10 26 72
37 88 12 5 -8 8 -4 8 8 0 15 2 17 9 6 7 -10 13 -11 30 -1 12 6 31 8 44 4 12
-4 32 -7 45 -5 22 2 30 -13 12 -24 -5 -3 -10 0 -10 7 0 10 -2 11 -8 0 -5 -7
-17 -10 -28 -7 -17 6 -18 6 -1 -5 9 -6 22 -8 27 -5 6 3 10 2 10 -4 0 -5 -8
-12 -17 -14 -17 -4 -17 -5 -1 -6 10 0 22 9 29 20 9 17 13 19 20 8 4 -7 12 -10
16 -5 4 5 2 11 -4 13 -28 10 -10 21 32 20 25 0 45 -5 45 -11 0 -6 4 -5 9 3 7
10 13 11 30 2 24 -13 28 -31 6 -31 -8 0 -15 8 -15 18 -1 16 -1 16 -11 -1 -8
-14 -14 -16 -25 -6 -11 9 -14 8 -14 -2 -1 -10 -4 -9 -14 3 -7 10 -16 15 -19
11 -11 -10 -8 -25 3 -18 6 3 10 1 10 -5 0 -6 -6 -10 -12 -9 -14 2 -68 -18 -68
-25 0 -3 14 -1 30 4 17 5 30 6 30 3 0 -3 7 0 15 7 8 7 15 9 15 5 0 -4 7 -2 15
5 19 16 20 0 1 -25 -8 -11 -12 -25 -9 -31 3 -8 -2 -11 -16 -7 -13 3 -21 1 -21
-6 0 -7 -4 -9 -10 -6 -5 3 -10 1 -10 -4 0 -6 -10 -11 -22 -11 -27 0 -21 -5 17
-14 22 -5 26 -4 15 4 -13 8 -13 10 3 10 9 0 17 5 17 10 0 6 5 10 11 10 6 0 8
-8 5 -17 -4 -13 0 -18 17 -20 12 -1 56 -5 97 -9 69 -6 74 -6 61 10 -10 12 -17
13 -26 6 -8 -7 -15 -7 -19 -1 -3 5 8 14 24 20 17 5 30 13 30 16 0 3 -5 3 -11
-1 -6 -3 -15 0 -20 7 -7 11 -9 10 -9 -3 0 -13 -8 -18 -26 -18 -14 0 -35 -5
-47 -12 -20 -10 -21 -10 -9 5 11 13 11 20 -2 44 -13 25 -15 26 -13 6 1 -13 5
-23 10 -23 4 0 5 -4 2 -10 -3 -5 -15 -10 -26 -10 -13 0 -18 4 -13 12 5 7 9 21
9 31 1 10 9 26 18 35 15 14 17 14 17 1 0 -10 9 -14 28 -13 36 2 39 3 26 12 -6
4 -14 18 -18 32 l-7 25 20 -22 c22 -26 36 -30 27 -8 -6 17 9 20 20 4 4 -8 9
-7 15 2 7 11 9 10 9 -3 0 -10 5 -18 11 -18 6 0 9 6 6 13 -3 9 4 13 24 13 18 0
29 -5 29 -13 0 -8 -4 -12 -9 -9 -5 4 -7 -3 -4 -14 3 -11 0 -20 -6 -20 -6 0
-11 -7 -11 -16 0 -8 -4 -13 -8 -10 -12 7 -11 -27 1 -42 7 -9 7 -16 -1 -24 -20
-20 -13 -29 7 -11 11 9 18 20 15 25 -3 4 0 8 7 8 8 0 9 12 5 38 -6 34 -5 36 9
18 8 -11 15 -15 15 -10 0 6 -5 15 -11 21 -19 19 23 55 55 47 18 -4 26 -2 26 7
0 8 39 39 85 69 47 30 85 60 85 65 0 6 7 1 15 -9 8 -11 15 -16 15 -12 0 4 -8
18 -19 31 -16 21 -21 22 -37 11 -64 -43 -77 -46 -34 -7 45 41 51 67 8 37 -36
-25 -46 -19 -15 10 32 29 30 44 -2 22 -12 -8 -18 -18 -14 -21 3 -4 1 -7 -5 -7
-23 0 -21 18 4 35 25 16 25 17 8 36 -19 21 -35 22 -76 6z m52 0 c0 -3 -150
-130 -169 -144 -2 -2 -2 -6 2 -9 3 -4 37 20 75 52 109 93 115 97 110 82 -3 -7
-29 -33 -59 -56 -77 -62 -159 -141 -159 -154 0 -6 29 15 64 48 76 70 126 113
126 108 0 -2 0 -7 -1 -11 -1 -10 30 -25 41 -18 6 3 10 4 10 2 0 -2 -40 -36
-90 -76 -88 -70 -90 -71 -137 -65 -26 3 -49 7 -51 9 -7 7 28 62 68 108 50 57
170 144 170 124z m79 -136 c-51 -39 -171 -112 -181 -109 -9 3 94 78 107 78 4
0 23 11 43 25 43 29 66 34 31 6z m-324 -77 c-13 -21 -19 -24 -26 -13 -6 10 -1
19 14 31 29 22 34 15 12 -18z m-38 -20 c-3 -3 -12 -4 -19 -1 -8 3 -5 6 6 6 11
1 17 -2 13 -5z m-457 -36 c0 -16 -3 -19 -11 -11 -6 6 -8 16 -5 22 11 17 16 13
16 -11z m-140 -17 c0 -12 -39 -21 -45 -11 -3 5 3 11 12 13 29 8 33 7 33 -2z
m-169 -64 c-1 -12 -15 -9 -19 4 -3 6 1 10 8 8 6 -3 11 -8 11 -12z m-34 -17 c2
-22 -12 -27 -23 -9 -5 9 5 22 21 29 1 0 1 -9 2 -20z m913 11 c0 -12 -20 -25
-27 -18 -7 7 6 27 18 27 5 0 9 -4 9 -9z m-935 -27 c21 -21 24 -29 13 -35 -8
-5 -15 -2 -20 11 -18 49 -103 21 -103 -33 1 -14 -3 -23 -7 -21 -4 3 -12 -5
-18 -16 -6 -11 -20 -20 -33 -19 -15 1 -17 3 -6 6 9 2 24 22 34 43 21 46 39 63
80 78 17 6 31 11 32 11 1 1 14 -11 28 -25z m795 -14 c0 -5 -4 -10 -10 -10 -5
0 -10 5 -10 10 0 6 5 10 10 10 6 0 10 -4 10 -10z m-563 -29 c1 -14 -3 -18 -13
-14 -15 6 -18 16 -7 26 11 12 19 8 20 -12z m-377 -85 c0 -3 -4 -8 -10 -11 -5
-3 -10 -1 -10 4 0 6 5 11 10 11 6 0 10 -2 10 -4z"/>
<path d="M1426 703 c-42 -36 -75 -67 -72 -70 3 -3 36 19 74 48 38 30 78 59 88
65 15 9 15 11 3 16 -10 4 -44 -18 -93 -59z"/>
<path d="M1328 693 c-29 -34 -30 -48 -2 -21 15 15 26 30 23 33 -3 3 -13 -3
-21 -12z"/>
<path d="M1612 699 c2 -8 -4 -13 -14 -13 -10 1 -15 -2 -12 -7 3 -5 -24 -23
-60 -41 -52 -25 -69 -40 -82 -68 -8 -19 -19 -44 -25 -55 -11 -25 -6 -58 10
-63 10 -3 10 1 3 14 -5 11 -6 28 -1 39 4 11 8 14 8 8 1 -18 28 -16 34 2 4 8 1
17 -5 21 -7 5 -8 2 -3 -6 5 -8 3 -11 -6 -8 -24 8 -16 33 11 33 18 0 24 -4 21
-15 -3 -8 -4 -31 -3 -51 1 -34 -1 -37 -32 -43 -18 -4 -42 -4 -52 0 -15 4 -16
4 -5 -4 8 -6 11 -17 8 -26 -4 -9 -2 -16 3 -16 6 0 10 6 10 14 0 11 10 14 37
11 20 -2 47 1 59 6 27 10 57 2 51 -14 -2 -6 -24 -11 -50 -11 -29 0 -46 -4 -43
-10 2 -6 8 -10 13 -9 5 1 10 -11 10 -27 0 -19 -6 -30 -16 -32 -11 -3 -9 -6 7
-10 12 -3 20 -2 16 3 -3 5 -1 9 4 9 5 0 14 11 20 25 10 21 9 25 -3 25 -8 0
-15 5 -15 10 0 12 10 13 30 1 8 -6 19 -7 25 -3 17 11 44 12 50 2 8 -12 -13
-52 -24 -46 -4 3 -6 -6 -3 -19 2 -14 -1 -31 -7 -38 -8 -11 -5 -16 15 -25 34
-16 36 -15 29 11 -5 19 -5 20 7 6 12 -15 89 -23 87 -9 -2 16 -18 43 -18 32 -1
-10 -5 -10 -17 2 -17 18 -11 38 10 30 8 -3 16 4 20 20 3 14 10 25 14 25 20 -3
43 2 38 9 -3 5 -36 8 -73 7 -66 -1 -98 8 -87 26 3 5 0 9 -6 9 -7 0 -9 9 -5 23
5 20 5 20 -7 5 -9 -11 -23 -14 -41 -11 -15 3 -34 -1 -44 -8 -15 -12 -16 -12
-10 4 4 10 7 25 7 33 0 11 7 13 26 8 19 -5 25 -4 20 5 -4 6 -16 11 -26 11 -10
0 -22 5 -25 10 -3 6 1 10 10 10 14 0 14 3 0 30 -19 36 -19 37 0 37 8 0 15 -4
15 -9 0 -5 9 -6 20 -3 14 4 20 2 20 -8 0 -10 7 -13 18 -10 10 2 24 -2 31 -11
13 -16 6 -56 -9 -56 -5 0 -7 6 -4 13 3 8 -3 20 -13 28 -17 13 -17 13 -3 -4 12
-17 12 -20 -3 -29 -21 -11 -13 -30 8 -21 9 3 22 0 29 -6 9 -8 16 -8 20 -2 4 5
2 12 -4 16 -5 3 -10 11 -10 17 0 6 9 3 20 -7 24 -21 27 -14 4 9 -8 9 -12 21
-8 27 5 8 9 8 14 -1 5 -9 9 -9 14 -1 4 6 3 11 -2 11 -6 0 -13 7 -16 16 -5 13
-3 14 6 7 20 -16 95 -22 108 -9 8 8 8 3 -1 -17 -12 -26 -13 -27 -32 -10 -11
10 -17 12 -13 6 5 -9 0 -13 -13 -13 -26 0 -32 -31 -10 -50 10 -9 17 -24 16
-34 -2 -14 6 -19 28 -21 17 -2 24 -1 17 2 -6 3 -10 9 -6 14 8 13 -10 11 -24
-3 -8 -8 -12 -8 -12 -1 0 6 7 13 15 17 8 3 12 11 10 18 -3 7 5 26 17 41 l23
28 0 -33 c0 -18 -4 -39 -9 -46 -4 -7 -6 -16 -3 -19 10 -9 37 55 31 74 -5 15
-4 16 5 3 9 -13 11 -13 11 3 0 9 -4 17 -8 17 -5 0 -9 6 -9 13 0 9 10 12 29 9
31 -5 35 -14 14 -34 -7 -8 -19 -30 -27 -51 -7 -20 -16 -37 -20 -37 -19 0 -15
-31 8 -59 28 -34 43 -39 43 -16 0 8 4 15 10 15 5 0 7 -8 4 -17 -5 -15 -3 -15
10 2 15 17 15 20 0 28 -11 6 -19 4 -27 -8 -11 -14 -15 -14 -34 9 -14 16 -18
28 -12 32 6 4 14 3 18 -2 9 -13 211 -14 208 -2 -1 6 4 13 12 16 8 3 11 0 7 -7
-12 -19 25 -26 39 -8 15 21 25 22 25 3 0 -22 -28 -29 -115 -31 -49 -1 -80 -6
-83 -14 -2 -6 1 -11 8 -11 6 0 8 -6 4 -12 -4 -7 2 -5 13 5 11 9 24 17 29 17 5
0 2 -5 -6 -10 -9 -6 -10 -10 -3 -10 6 0 14 4 17 9 3 5 17 9 31 9 20 -1 23 -3
14 -14 -6 -8 -18 -14 -26 -14 -17 0 -13 -22 5 -28 7 -2 15 5 19 15 12 35 33
50 61 45 15 -3 30 -10 34 -15 4 -7 12 -6 22 3 9 7 19 10 23 6 11 -10 -29 -34
-49 -28 -16 4 -37 -22 -26 -33 11 -11 77 17 83 35 4 11 15 20 26 20 10 0 19 4
19 9 0 4 -11 6 -24 4 -13 -3 -26 -1 -30 5 -3 5 17 10 50 11 41 1 54 -2 51 -12
-2 -6 -11 -11 -20 -9 -12 2 -15 -2 -10 -15 10 -31 53 -57 53 -32 0 5 -4 8 -9
4 -9 -5 -9 8 -2 59 0 4 9 6 19 4 11 -3 30 1 43 8 21 11 10 12 -79 9 -105 -4
-127 -9 -117 -26 4 -5 -1 -9 -10 -9 -12 0 -15 5 -11 16 3 9 6 23 6 31 0 11 6
14 22 10 12 -4 29 -1 37 6 11 9 15 9 18 0 3 -7 9 -13 15 -13 7 0 6 5 -1 14
-10 12 -7 15 18 14 17 -1 31 -5 31 -10 0 -4 9 -8 21 -8 18 0 20 4 14 31 -6 24
-4 30 6 27 9 -3 13 -15 11 -31 -2 -16 1 -27 8 -27 8 0 10 11 6 33 -3 17 -7 38
-8 45 -1 8 -7 7 -20 -5 -13 -11 -17 -25 -13 -40 3 -13 1 -23 -5 -23 -17 0 -24
31 -12 51 7 10 12 24 12 31 0 8 -5 6 -11 -4 -5 -9 -15 -15 -22 -12 -7 2 -19
-6 -27 -20 -16 -30 -40 -42 -33 -17 2 10 -3 23 -12 31 -18 15 -20 14 -29 -20
-6 -23 -6 -23 7 -8 8 10 17 15 20 11 4 -3 3 -11 -2 -17 -9 -10 -11 -17 -11
-32 0 -4 -6 -2 -12 3 -23 17 -57 13 -63 -8 -9 -27 -28 -24 -21 4 3 12 3 17 0
10 -3 -7 -12 -9 -19 -7 -11 5 -12 10 -2 24 8 13 15 16 23 9 9 -7 14 -4 19 11
3 11 11 18 16 14 5 -3 7 -10 4 -15 -4 -5 1 -9 10 -9 14 0 14 3 -3 28 -35 50
-36 55 -15 43 14 -7 23 -7 31 1 9 9 12 9 12 0 0 -10 5 -10 20 -2 17 9 22 6 34
-22 l15 -33 -5 30 c-5 27 -3 30 20 30 17 0 24 -4 21 -12 -7 -19 12 -16 23 3 6
11 12 13 16 6 4 -6 13 -9 20 -6 9 3 17 -3 21 -16 5 -15 13 -20 26 -17 14 4 19
0 19 -13 0 -11 -4 -22 -10 -25 -5 -3 -10 -13 -10 -22 0 -15 15 -10 15 5 1 4 6
16 12 27 14 25 -6 62 -24 44 -7 -7 -12 -5 -15 8 -4 14 2 18 24 20 16 1 28 -3
28 -10 1 -7 6 -5 13 5 15 19 105 58 227 98 47 16 76 29 65 29 -20 1 -117 -30
-210 -67 -74 -29 -143 -34 -418 -33 -240 0 -316 4 -401 20 l-41 8 28 11 c21 9
27 18 27 42 0 27 -2 29 -25 20 -32 -12 -34 7 -2 20 12 5 17 9 10 9 -6 1 -19 4
-28 7 -10 4 -15 2 -13 -7z m-2 -34 c0 -2 -10 -9 -22 -15 -22 -11 -22 -10 -4 4
21 17 26 19 26 11z m40 -21 c0 -8 -4 -13 -9 -10 -5 3 -11 -3 -14 -14 -4 -18
-14 -20 -74 -20 -47 0 -63 3 -53 10 8 5 24 10 35 10 11 0 38 9 60 19 50 24 55
25 55 5z m-170 -64 c0 -5 -4 -10 -10 -10 -5 0 -10 5 -10 10 0 6 5 10 10 10 6
0 10 -4 10 -10z m148 -20 c7 -11 10 -20 6 -20 -7 0 -34 27 -34 34 0 13 16 5
28 -14z m352 -21 c0 -15 -22 -21 -31 -8 -4 7 -11 10 -16 6 -4 -5 -1 -12 7 -17
11 -7 12 -11 0 -24 -11 -14 -10 -16 4 -10 9 3 16 1 16 -5 0 -6 -5 -11 -11 -11
-6 0 -9 -9 -6 -19 5 -21 -28 -37 -37 -17 -3 7 -9 5 -16 -6 -6 -10 -16 -18 -23
-18 -7 0 -6 4 3 10 8 5 11 12 7 16 -3 4 -14 1 -24 -7 -11 -9 -14 -10 -9 -1 4
6 2 12 -3 12 -6 0 -11 -7 -11 -17 0 -9 -3 -13 -7 -9 -18 18 -4 46 30 59 9 3
17 11 17 16 0 6 -8 8 -17 4 -17 -6 -17 -5 0 14 9 11 14 23 10 28 -5 4 -3 6 2
2 6 -3 16 -3 22 1 16 10 93 11 93 1z m50 -13 c0 -6 4 -5 9 3 8 12 12 12 25 2
20 -17 21 -35 1 -27 -10 3 -20 -5 -30 -24 -9 -16 -14 -31 -13 -33 8 -8 -29
-33 -44 -29 -22 5 -22 12 -3 38 18 24 19 34 0 34 -9 0 -12 6 -9 15 4 9 14 14
23 13 10 -2 16 3 15 14 -1 10 4 14 12 11 8 -3 14 -10 14 -17z m-326 -28 c-6
-10 -4 -10 7 0 20 18 31 14 19 -8 -6 -11 -16 -17 -25 -14 -17 7 -20 34 -4 34
5 0 7 -6 3 -12z m527 -35 c-10 -17 -10 -16 -11 3 0 23 13 41 18 25 2 -6 -1
-18 -7 -28z m-527 -94 c-3 -5 -11 -9 -18 -9 -7 0 -18 -11 -24 -25 -14 -31 -15
-38 -3 -31 5 3 11 -1 15 -9 3 -9 0 -15 -10 -15 -8 0 -17 7 -20 15 -5 11 -11
12 -25 4 -16 -8 -19 -6 -19 12 0 14 5 19 14 16 8 -3 22 1 33 8 16 13 16 16 3
24 -11 8 -17 6 -22 -7 -6 -14 -7 -15 -7 -1 -1 9 1 18 4 21 9 9 85 6 79 -3z"/>
<path d="M1906 527 c5 -13 2 -16 -11 -11 -14 6 -16 3 -10 -16 5 -15 2 -25 -6
-31 -10 -6 -5 -9 16 -9 20 0 26 3 17 9 -11 7 -11 11 2 23 13 14 13 18 0 34
-12 17 -13 17 -8 1z"/>
<path d="M1998 473 c-24 -51 -14 -54 12 -4 11 23 17 41 13 41 -5 -1 -16 -17
-25 -37z"/>
<path d="M2760 683 c-59 -11 -34 -19 32 -11 76 10 148 -2 148 -23 0 -6 -6 -9
-14 -6 -8 3 -20 -1 -26 -8 -10 -12 -9 -16 5 -21 10 -4 21 -1 26 7 5 8 9 9 9 3
0 -7 -17 -24 -37 -40 -28 -21 -46 -27 -77 -25 -47 2 -231 -24 -268 -38 -14 -5
-31 -6 -39 -1 -11 7 -9 14 10 34 14 14 27 24 29 21 3 -3 -3 -12 -14 -20 -21
-17 -23 -17 111 4 87 14 134 20 183 23 56 3 66 18 12 18 -36 0 -201 -23 -257
-35 -16 -4 -23 -1 -23 9 0 9 6 13 13 10 8 -3 49 2 93 11 43 9 106 19 138 21
54 3 75 14 76 37 0 11 -10 8 -26 -8 -14 -13 -17 -13 -30 0 -19 18 -31 20 -16
3 8 -10 4 -13 -16 -15 -15 0 -47 -6 -72 -11 -25 -6 -47 -8 -50 -6 -9 10 25 24
48 21 12 -2 22 -1 22 4 0 4 12 10 28 12 l27 4 -27 2 c-45 2 -271 -68 -293 -91
-7 -8 -6 -9 3 -4 6 4 12 2 12 -5 0 -6 -8 -9 -20 -6 -11 3 -26 0 -33 -6 -6 -7
-18 -12 -26 -12 -8 0 -21 -15 -28 -32 -8 -20 -9 -33 -3 -33 5 0 10 8 10 18 0
22 17 48 25 40 4 -4 3 -13 -1 -20 -12 -19 -14 -38 -3 -38 4 0 12 15 17 32 5
21 16 34 28 36 18 4 18 3 -1 -11 -11 -9 -17 -18 -14 -21 3 -3 15 3 26 14 15
13 23 16 26 7 4 -13 -16 -37 -32 -37 -5 0 -14 -8 -20 -17 -6 -11 -22 -17 -45
-17 -23 0 -36 -5 -36 -13 0 -7 11 -13 25 -13 14 0 25 5 25 12 0 8 6 7 16 -4
24 -24 11 -34 -40 -33 -25 1 -46 -2 -46 -7 0 -5 5 -6 10 -3 6 3 10 0 10 -7 0
-10 -10 -13 -35 -10 -28 3 -35 1 -35 -13 0 -15 3 -15 15 -5 11 9 19 10 26 3
14 -14 49 -4 49 14 0 8 5 11 12 7 7 -4 8 -3 4 4 -4 7 -1 12 8 12 9 0 16 -6 16
-14 0 -8 4 -18 10 -21 5 -3 7 0 4 8 -3 8 -1 18 5 22 11 6 15 -13 11 -50 -2
-25 8 -16 13 11 6 30 18 54 28 54 4 0 1 -17 -7 -37 l-15 -38 20 25 c11 14 18
27 15 29 -2 2 1 10 7 18 9 10 8 13 -4 13 -8 0 -17 7 -21 15 -8 21 4 19 31 -7
13 -12 23 -16 23 -10 0 7 15 12 34 12 19 0 36 4 38 9 2 4 14 11 28 15 l25 7
-25 -15 c-30 -18 -23 -19 35 -5 25 6 43 15 40 19 -4 7 -33 7 -125 1 -42 -3
-43 -4 -15 -11 29 -7 29 -8 -10 -9 -22 0 -47 4 -55 9 -8 5 -13 10 -10 11 3 0
14 3 25 6 11 2 58 9 104 15 67 8 85 7 92 -4 5 -8 9 -9 9 -2 0 7 14 14 32 16
l31 5 -32 -27 c-41 -32 -41 -78 -1 -96 22 -10 19 -11 -25 -9 -27 2 -69 6 -92
10 -63 10 -52 -2 15 -16 58 -12 102 -13 136 -3 16 5 14 8 -13 21 -23 12 -31
22 -31 42 1 26 22 47 159 160 53 44 54 78 1 97 -34 12 -111 16 -160 7z m-110
-72 c-8 -5 -26 -11 -40 -15 -21 -5 -20 -3 5 9 32 15 60 20 35 6z m194 -76 c-3
-8 -20 -17 -37 -19 -42 -6 -160 -18 -217 -22 -24 -2 -46 -8 -48 -14 -3 -8 -8
-7 -18 1 -19 15 -18 33 1 25 8 -3 26 -1 40 4 14 5 62 12 107 16 67 5 166 18
175 23 1 0 0 -6 -3 -14z m-334 -59 c0 -18 -23 -27 -41 -15 -13 8 -6 13 14 10
4 0 7 4 7 9 0 6 5 10 10 10 6 0 10 -6 10 -14z m-25 -36 c4 -6 2 -17 -4 -24 -6
-7 -7 -17 -3 -21 4 -5 1 -5 -6 -1 -7 5 -11 14 -8 21 2 7 -1 18 -7 24 -8 8 -7
11 5 11 9 0 20 -5 23 -10z"/>
<path d="M953 613 c-15 -5 -17 -23 -4 -23 5 0 11 7 15 15 3 8 4 15 3 14 -1 0
-8 -3 -14 -6z"/>
<path d="M816 601 c-11 -18 6 -70 25 -76 25 -8 59 3 56 18 -1 8 12 12 37 12
22 0 41 5 43 11 2 6 -10 10 -32 9 -19 0 -35 3 -35 7 0 4 -4 8 -10 8 -5 0 -10
-7 -10 -16 0 -9 -6 -14 -12 -11 -7 2 -12 14 -11 26 2 13 -3 21 -12 21 -20 0
-19 -6 6 -46 l21 -34 -22 0 c-12 0 -18 4 -15 10 3 5 -1 20 -10 33 -8 13 -12
27 -8 30 3 4 4 7 0 7 -3 0 -8 -4 -11 -9z"/>
<path d="M704 573 c2 -12 -2 -30 -9 -40 -9 -13 -10 -24 -4 -34 8 -12 10 -12
18 1 6 9 6 17 0 20 -5 4 0 16 11 28 11 11 20 27 20 34 0 7 -6 4 -12 -7 -11
-19 -11 -19 -20 0 -8 18 -8 18 -4 -2z"/>
<path d="M1403 578 c2 -7 0 -23 -4 -35 -5 -14 -5 -23 1 -23 6 0 11 6 11 13 1
6 3 22 4 35 1 12 -2 22 -7 22 -5 0 -8 -6 -5 -12z"/>
<path d="M1242 557 c-12 -13 -22 -29 -22 -36 0 -8 -6 -11 -16 -7 -8 3 -12 2
-9 -4 9 -15 35 -12 35 4 0 22 19 30 35 16 10 -8 15 -9 15 -2 0 6 -4 13 -10 17
-5 3 -7 12 -3 20 8 21 0 19 -25 -8z"/>
<path d="M1320 572 c0 -6 -8 -9 -17 -7 -10 1 -12 0 -5 -2 10 -4 10 -8 1 -19
-20 -24 -5 -23 18 2 13 13 18 26 13 29 -6 3 -10 2 -10 -3z"/>
<path d="M1537 563 c-10 -9 -8 -43 2 -43 5 0 9 11 9 25 0 27 -1 28 -11 18z"/>
<path d="M936 542 c-2 -4 -1 -14 5 -22 7 -12 9 -12 9 -1 0 10 3 11 13 2 11 -8
18 -6 32 9 10 11 13 20 7 20 -6 0 -14 -5 -17 -10 -4 -7 -12 -7 -25 0 -10 6
-21 6 -24 2z"/>
<path d="M1071 534 c0 -11 3 -14 6 -6 3 7 2 16 -1 19 -3 4 -6 -2 -5 -13z"/>
<path d="M515 530 c-8 -13 9 -20 24 -11 10 6 9 10 -3 14 -8 3 -18 2 -21 -3z"/>
<path d="M1045 531 c-3 -5 -1 -12 5 -16 5 -3 10 1 10 9 0 18 -6 21 -15 7z"/>
<path d="M994 505 c-14 -19 -21 -21 -35 -12 -14 9 -21 8 -31 -2 -11 -12 -10
-13 5 -8 10 4 27 1 38 -6 15 -9 21 -9 27 -1 4 7 16 14 27 15 19 4 19 5 4 21
-16 15 -19 15 -35 -7z"/>
<path d="M2110 516 c0 -23 16 -27 17 -5 1 10 -2 19 -8 19 -5 0 -9 -6 -9 -14z"/>
<path d="M730 510 c0 -5 7 -10 16 -10 8 0 12 5 9 10 -3 6 -10 10 -16 10 -5 0
-9 -4 -9 -10z"/>
<path d="M878 513 c-16 -2 -28 -8 -28 -13 0 -5 13 -5 29 0 16 4 32 6 35 2 3
-3 6 0 6 6 0 7 -3 11 -7 11 -5 -1 -20 -4 -35 -6z"/>
<path d="M1370 499 c0 -5 5 -7 10 -4 6 3 10 8 10 11 0 2 -4 4 -10 4 -5 0 -10
-5 -10 -11z"/>
<path d="M667 484 c3 -7 9 -14 14 -14 14 0 10 17 -5 23 -10 4 -13 1 -9 -9z"/>
<path d="M224 470 c-10 -10 -46 -34 -78 -52 -77 -43 -104 -78 -88 -113 9 -19
19 -25 42 -25 16 0 30 -4 30 -9 0 -25 118 -44 280 -45 83 -1 126 -7 202 -28
102 -29 189 -35 263 -18 22 4 64 11 94 14 35 4 58 12 67 24 7 9 10 19 8 22 -3
2 -9 -2 -14 -9 -8 -14 -23 -17 -194 -41 -82 -12 -94 -11 -182 10 -51 13 -91
27 -88 31 2 4 0 10 -5 13 -5 4 -12 2 -16 -4 -3 -5 -11 -10 -18 -10 -22 0 19
31 49 36 21 3 25 2 14 -5 -8 -6 -12 -13 -8 -16 6 -6 36 14 67 46 49 51 63 71
57 84 -7 19 -22 19 -30 -1 -3 -8 -2 -12 4 -9 16 10 12 -3 -7 -23 -10 -9 -28
-30 -40 -45 -18 -23 -26 -26 -40 -19 -12 7 -26 6 -46 -4 -45 -24 -194 -36
-293 -26 -96 11 -138 32 -63 32 32 0 40 3 29 10 -8 6 -40 7 -72 4 -56 -6 -58
-6 -68 21 -9 22 -7 31 6 46 20 22 70 49 91 49 7 0 16 7 19 15 4 8 10 13 14 10
8 -5 45 44 38 51 -2 2 -13 -5 -24 -16z"/>
<path d="M770 479 c0 -4 10 -9 22 -11 11 -2 22 -10 24 -18 2 -8 6 -25 10 -37
4 -14 2 -23 -5 -23 -6 0 -10 3 -9 8 3 15 -14 62 -23 62 -6 0 -5 -8 1 -20 9
-16 6 -22 -17 -37 -16 -10 -31 -21 -34 -26 -4 -5 -10 -4 -14 3 -8 12 10 30 31
30 7 0 14 6 17 13 7 18 -9 44 -20 33 -4 -5 -2 -11 5 -13 10 -4 7 -9 -8 -20
-17 -12 -24 -12 -36 -2 -23 19 -25 6 -6 -34 15 -32 21 -37 47 -35 24 3 29 7
27 25 -2 12 3 25 9 29 8 5 10 2 6 -8 -7 -21 10 -37 34 -31 20 6 28 53 8 53 -7
0 -10 12 -7 29 4 27 1 30 -29 33 -18 2 -33 1 -33 -3z m0 -99 c0 -5 -5 -10 -11
-10 -5 0 -7 5 -4 10 3 6 8 10 11 10 2 0 4 -4 4 -10z"/>
<path d="M1374 475 c-10 -8 -14 -15 -8 -15 6 0 17 7 24 15 16 19 9 19 -16 0z"/>
<path d="M1450 481 c0 -6 5 -13 10 -16 6 -3 10 1 10 9 0 9 -4 16 -10 16 -5 0
-10 -4 -10 -9z"/>
<path d="M1746 474 c-4 -10 -1 -14 6 -12 15 5 23 28 10 28 -5 0 -13 -7 -16
-16z"/>
<path d="M708 474 c17 -8 15 -25 -2 -18 -8 3 -17 -1 -22 -8 -4 -7 -3 -10 1 -5
5 4 19 0 33 -9 22 -15 24 -14 20 3 -2 10 2 23 10 28 10 8 5 11 -20 12 -18 1
-27 -1 -20 -3z"/>
<path d="M843 457 c-4 -6 2 -8 15 -5 12 4 22 2 22 -2 0 -4 10 -6 23 -2 22 5
22 5 3 -17 -13 -14 -22 -18 -26 -10 -5 7 -9 5 -13 -5 -4 -9 -2 -16 4 -16 6 0
7 -4 4 -10 -8 -12 -9 -12 44 4 46 13 67 36 35 36 -14 0 -15 3 -6 12 7 7 12 14
12 18 0 10 -110 8 -117 -3z m97 -37 c12 -8 11 -10 -7 -10 -13 0 -23 5 -23 10
0 13 11 13 30 0z"/>
<path d="M990 435 c22 -13 23 -14 5 -15 -16 0 -17 -2 -5 -10 13 -8 13 -9 0
-14 -42 -13 -44 -14 -23 -15 12 -1 25 4 28 9 3 6 15 10 27 10 16 0 18 3 9 13
-14 18 -5 26 19 20 15 -4 17 -9 10 -23 -13 -24 -13 -40 0 -20 5 8 12 11 16 7
4 -4 2 -13 -4 -19 -7 -7 -12 -22 -12 -34 0 -29 -16 -39 -56 -35 -18 1 -35 -3
-39 -9 -5 -9 3 -11 28 -7 19 2 40 0 46 -6 8 -8 11 -7 11 2 0 8 7 11 20 8 10
-3 24 1 31 9 9 11 14 10 30 -9 10 -12 18 -17 19 -10 0 7 7 10 15 7 27 -11 -48
-69 -103 -80 -8 -1 -17 -6 -20 -10 -4 -3 18 -3 49 0 54 7 59 6 95 -26 22 -18
41 -35 44 -38 3 -3 18 -14 33 -24 45 -28 42 -12 -3 18 -22 14 -53 40 -69 56
-15 17 -33 30 -40 30 -17 0 -13 11 15 36 28 27 39 30 31 10 -4 -10 0 -12 13
-9 19 5 19 6 -2 22 -17 15 -19 21 -9 39 6 12 17 22 22 22 7 0 9 10 5 25 -4 16
-2 25 5 25 7 0 10 2 7 5 -3 3 -12 3 -21 -1 -12 -4 -14 -11 -8 -22 12 -21 -15
-50 -31 -34 -8 8 -8 15 2 27 8 10 9 15 1 15 -6 0 -11 -4 -11 -10 0 -5 -4 -10
-10 -10 -5 0 -7 8 -3 18 4 12 3 14 -5 7 -6 -6 -13 -21 -14 -35 -2 -18 2 -25
16 -25 11 0 21 -5 23 -11 2 -7 -7 -11 -22 -11 -20 0 -27 6 -34 31 -5 17 -10
25 -10 18 -1 -14 -25 -42 -35 -42 -4 0 5 17 18 39 15 24 23 47 19 60 -3 11 -1
21 5 21 6 0 13 -8 15 -17 3 -13 5 -14 6 -3 1 23 -17 47 -26 34 -5 -6 -17 -9
-28 -7 -11 3 -42 7 -70 9 -48 4 -49 3 -25 -11z m114 -31 c3 -9 -3 -27 -14 -41
-23 -30 -27 -18 -4 15 8 12 10 22 5 22 -6 0 -11 5 -11 10 0 16 17 12 24 -6z"/>
<path d="M1617 433 c3 -7 9 -10 14 -7 5 3 9 0 9 -7 0 -10 3 -10 11 -2 6 6 8
16 5 21 -9 15 -45 10 -39 -5z"/>
<path d="M1155 430 c-8 -12 13 -32 25 -25 9 6 11 4 5 -5 -6 -10 -4 -12 11 -6
10 5 32 13 47 18 15 6 26 13 23 15 -7 7 -107 9 -111 3z"/>
<path d="M1369 432 c7 -5 11 -14 7 -20 -3 -6 -1 -14 5 -17 7 -5 9 1 7 16 -1
12 -10 24 -18 26 -12 4 -13 3 -1 -5z"/>
<path d="M1280 427 c0 -3 7 -18 15 -33 10 -20 15 -23 15 -11 0 9 3 16 8 16 18
-3 32 2 32 12 0 6 -10 9 -22 8 -13 -2 -29 0 -35 4 -7 5 -13 6 -13 4z"/>
<path d="M2578 409 c13 -12 142 -20 142 -9 0 5 -6 10 -12 11 -75 4 -136 3
-130 -2z"/>
<path d="M1250 400 c0 -5 5 -10 10 -10 15 0 12 -27 -5 -44 -21 -21 -20 -57 2
-49 12 5 14 3 9 -8 -4 -8 0 -5 8 5 12 14 16 16 16 5 0 -23 -14 -38 -55 -60
-30 -17 -39 -18 -46 -7 -5 7 -9 8 -9 2 0 -26 117 -114 205 -154 28 -12 45 -24
38 -27 -6 -2 -35 8 -65 22 -29 14 -44 18 -33 9 28 -23 80 -44 108 -44 28 0 63
34 78 78 9 27 8 36 -9 59 -17 24 -33 31 -94 42 -40 7 -76 18 -80 25 -6 8 -8 7
-8 -1 0 -7 -9 -13 -20 -13 -11 0 -20 6 -20 13 0 21 17 40 29 33 15 -10 53 3
46 15 -4 5 3 8 14 6 27 -4 39 -17 17 -17 -9 0 -14 -5 -11 -10 4 -6 10 -8 15
-5 4 3 11 -1 13 -7 3 -7 6 -1 6 13 1 15 -6 32 -14 39 -16 13 -21 35 -6 26 16
-10 41 6 41 26 0 11 5 18 13 15 6 -2 11 -11 11 -20 -1 -9 4 -13 13 -10 12 5
12 8 -2 23 -8 9 -15 23 -15 31 -1 10 -6 8 -18 -7 -10 -11 -22 -19 -28 -17 -6
2 -15 -6 -19 -19 -8 -22 -8 -22 -12 5 -2 15 -8 25 -13 22 -5 -3 -5 -16 0 -31
12 -32 12 -34 0 -34 -6 0 -16 12 -22 26 l-12 25 -18 -33 c-13 -23 -17 -26 -12
-9 4 16 3 21 -5 17 -6 -4 -11 -14 -11 -22 0 -8 -4 -14 -10 -14 -15 0 -12 27 5
44 9 8 14 21 13 28 -5 23 -38 39 -38 18z m87 -98 c2 -23 1 -24 -7 -7 -8 19 -9
20 -9 1 -1 -14 -4 -17 -12 -9 -8 8 -7 17 2 31 16 25 22 21 26 -16z m-63 -78
c5 -14 4 -15 -9 -4 -17 14 -19 20 -6 20 5 0 12 -7 15 -16z m155 -32 c14 -10
22 -12 18 -4 -9 14 -6 15 18 6 12 -5 13 -9 5 -14 -9 -5 -6 -10 9 -15 11 -3 21
-11 21 -16 0 -12 -1 -12 -51 11 -47 21 -79 26 -79 11 0 -12 79 -65 86 -58 4 3
-10 16 -30 28 -43 25 -46 31 -8 19 39 -12 82 -34 82 -42 0 -3 -12 -21 -26 -38
-24 -28 -28 -29 -43 -16 -9 8 -32 22 -51 30 -43 18 -179 116 -162 116 7 0 21
-6 32 -12 16 -10 23 -10 36 4 21 21 104 15 143 -10z"/>
<path d="M1301 191 c-11 -7 -8 -13 12 -31 38 -33 107 -73 107 -62 0 6 -19 20
-42 32 -44 23 -70 49 -62 62 7 10 2 10 -15 -1z"/>
<path d="M1340 191 c0 -6 4 -13 10 -16 6 -3 7 1 4 9 -7 18 -14 21 -14 7z"/>
<path d="M1447 89 c7 -7 15 -10 18 -7 3 3 -2 9 -12 12 -14 6 -15 5 -6 -5z"/>
<path d="M427 383 c-20 -2 -35 -8 -32 -14 9 -14 51 -11 65 6 7 8 11 14 9 13
-2 -1 -21 -3 -42 -5z"/>
<path d="M2578 383 c7 -3 16 -2 19 1 4 3 -2 6 -13 5 -11 0 -14 -3 -6 -6z"/>
<path d="M290 369 c0 -6 6 -9 14 -6 7 3 19 0 25 -6 8 -8 11 -8 11 0 0 11 -22
23 -41 23 -5 0 -9 -5 -9 -11z"/>
<path d="M900 370 c-13 -9 -13 -10 0 -10 8 0 22 5 30 10 13 9 13 10 0 10 -8 0
-22 -5 -30 -10z"/>
<path d="M962 363 c-35 -8 -61 -17 -59 -20 7 -7 127 18 133 28 6 11 4 11 -74
-8z"/>
<path d="M1569 373 c-1 -5 -1 -11 0 -15 0 -5 -6 -8 -16 -8 -9 0 -13 -3 -10 -7
9 -9 -23 -43 -40 -43 -8 0 -11 -5 -8 -10 4 -6 11 -7 17 -4 7 5 8 2 4 -5 -5 -7
-14 -10 -22 -7 -9 3 -14 -2 -14 -14 0 -22 16 -27 23 -7 4 9 8 8 16 -3 11 -16
11 -15 15 40 1 17 47 66 59 63 4 -2 7 4 7 12 0 15 -29 22 -31 8z"/>
<path d="M355 360 c3 -5 10 -10 16 -10 5 0 9 5 9 10 0 6 -7 10 -16 10 -8 0
-12 -4 -9 -10z"/>
<path d="M2406 355 c-3 -9 -2 -13 4 -10 6 3 10 1 10 -4 0 -6 -5 -11 -11 -11
-5 0 -8 -4 -5 -8 3 -5 -8 -9 -23 -10 -23 0 -31 5 -36 25 -5 20 -8 23 -20 13
-8 -7 -15 -17 -15 -22 0 -6 7 -5 15 2 12 10 15 10 15 -4 0 -16 -6 -18 -77 -21
-21 -1 -78 -6 -128 -10 -49 -5 -96 -8 -102 -6 -7 1 -13 -3 -13 -10 0 -7 14 -9
43 -6 136 17 369 27 404 18 20 -6 39 -9 41 -6 3 2 -16 9 -42 16 -48 12 -53 18
-36 35 8 8 6 14 -3 23 -12 9 -16 8 -21 -4z"/>
<path d="M2538 363 c23 -4 23 -5 5 -19 -17 -14 -17 -15 2 -13 11 1 31 -3 45
-9 61 -26 213 -62 197 -46 -7 8 -114 38 -175 50 -18 4 -35 11 -39 17 -7 11 -8
11 137 -23 59 -13 115 -20 148 -17 71 5 63 -16 -9 -24 -56 -6 -39 -11 48 -13
50 -1 65 -13 39 -32 -26 -18 -67 -19 -60 -1 4 11 -9 14 -61 13 -36 -1 -65 2
-65 5 0 7 -83 30 -97 28 -5 0 -7 -6 -5 -13 1 -6 -7 0 -19 14 -11 14 -18 19
-14 13 10 -19 -9 -15 -39 8 -14 11 -30 17 -36 14 -5 -3 -10 -1 -10 4 0 6 -11
10 -25 9 -14 -1 -25 -5 -25 -8 0 -13 165 -73 248 -91 75 -16 42 -18 -38 -3
-23 5 -23 4 -6 -7 24 -15 170 -20 228 -8 62 14 67 33 22 76 -34 34 -38 35 -94
31 -32 -2 -57 -1 -54 4 3 4 14 8 25 8 10 0 19 5 19 11 0 8 4 8 15 -1 8 -6 20
-10 27 -8 8 3 5 9 -9 16 -18 10 -29 9 -57 -5 -34 -16 -41 -15 -153 5 -65 12
-122 21 -128 21 -5 -1 0 -4 13 -6z m159 -109 c-3 -3 -12 -4 -19 -1 -8 3 -5 6
6 6 11 1 17 -2 13 -5z m153 -24 c12 -8 11 -10 -7 -10 -12 0 -25 5 -28 10 -8
13 15 13 35 0z"/>
<path d="M848 350 c-9 -6 -44 -13 -77 -16 -34 -4 -65 -12 -70 -18 -14 -16 84
-13 103 4 13 10 16 10 16 -1 0 -12 2 -12 9 0 5 7 18 14 30 15 12 0 22 5 22 11
1 14 -13 16 -33 5z"/>
<path d="M1732 340 c-7 -12 -10 -26 -6 -32 4 -7 10 -4 17 7 5 10 12 13 16 8 3
-6 16 -13 28 -17 19 -6 22 -4 17 11 -5 16 -4 16 10 -1 9 -11 16 -16 16 -10 0
5 4 2 10 -6 12 -19 22 -8 14 14 -4 9 -13 15 -20 12 -7 -3 -16 -1 -20 5 -3 5
-14 7 -24 4 -11 -3 -20 0 -24 10 -8 21 -19 19 -34 -5z"/>
<path d="M2270 355 c0 -18 19 -40 26 -32 4 4 0 15 -9 24 -9 10 -17 13 -17 8z"/>
<path d="M318 337 c-16 -6 -28 -17 -28 -25 0 -12 3 -12 15 -2 9 7 18 10 21 7
6 -6 34 16 34 27 0 8 -9 6 -42 -7z"/>
<path d="M387 343 c-4 -3 -7 -11 -7 -17 0 -6 5 -5 12 2 6 6 9 14 7 17 -3 3 -9
2 -12 -2z"/>
<path d="M414 339 c-11 -18 14 -35 29 -20 10 10 9 11 -6 5 -13 -5 -16 -2 -11
10 7 18 -1 22 -12 5z"/>
<path d="M978 343 c-21 -2 -38 -9 -38 -15 0 -6 10 -8 23 -4 12 3 38 6 57 6 26
0 31 3 20 10 -8 5 -17 9 -20 8 -3 -1 -22 -3 -42 -5z"/>
<path d="M2027 331 c-3 -11 -1 -23 3 -26 14 -8 22 13 12 31 -8 14 -10 14 -15
-5z"/>
<path d="M2168 333 c-6 -7 -8 -16 -4 -20 3 -3 6 -1 6 7 0 9 3 10 13 1 15 -12
27 -5 27 14 0 16 -28 15 -42 -2z"/>
<path d="M627 333 c-4 -3 -7 -11 -7 -17 0 -6 5 -5 12 2 6 6 9 14 7 17 -3 3 -9
2 -12 -2z"/>
<path d="M1870 326 c0 -14 29 -31 38 -22 2 3 2 12 -1 21 -8 19 -37 20 -37 1z"/>
<path d="M870 320 c-8 -5 -10 -10 -5 -10 6 0 17 5 25 10 8 5 11 10 5 10 -5 0
-17 -5 -25 -10z"/>
<path d="M915 321 c-3 -6 0 -11 7 -11 9 0 9 -3 -2 -10 -12 -8 -10 -10 9 -10
21 0 22 2 10 18 -7 9 -14 18 -15 20 -1 2 -5 -1 -9 -7z"/>
<path d="M1416 322 c-2 -4 4 -8 15 -8 10 0 19 4 19 8 0 4 -6 8 -14 8 -8 0 -17
-4 -20 -8z"/>
<path d="M1930 321 c0 -11 31 -24 39 -16 3 3 -1 10 -9 15 -19 12 -30 12 -30 1z"/>
<path d="M355 310 c3 -5 8 -10 11 -10 2 0 4 5 4 10 0 6 -5 10 -11 10 -5 0 -7
-4 -4 -10z"/>
<path d="M1210 310 c0 -5 5 -10 11 -10 5 0 7 5 4 10 -3 6 -8 10 -11 10 -2 0
-4 -4 -4 -10z"/>
<path d="M803 295 c-10 -11 -1 -13 43 -13 54 1 78 17 27 19 -16 0 -35 2 -43 4
-8 1 -20 -3 -27 -10z"/>
<path d="M1460 295 c0 -8 5 -15 10 -15 6 0 10 7 10 15 0 8 -4 15 -10 15 -5 0
-10 -7 -10 -15z"/>
<path d="M1429 298 c-7 -35 -6 -59 3 -50 6 6 17 8 24 5 8 -3 14 0 14 7 0 6 -4
8 -10 5 -5 -3 -10 1 -10 9 0 12 -18 34 -21 24z"/>
<path d="M723 283 c9 -2 25 -2 35 0 9 3 1 5 -18 5 -19 0 -27 -2 -17 -5z"/>
<path d="M245 270 c-3 -5 -1 -10 4 -10 6 0 11 5 11 10 0 6 -2 10 -4 10 -3 0
-8 -4 -11 -10z"/>
<path d="M896 273 c-15 -4 -16 -7 -5 -15 9 -6 1 -7 -26 -2 -50 9 -165 11 -165
3 0 -12 43 -18 59 -10 9 5 41 4 72 -1 46 -9 61 -8 92 7 20 9 44 15 52 11 8 -3
15 -1 15 4 0 10 -59 12 -94 3z"/>
<path d="M1055 270 c-3 -5 -1 -10 4 -10 6 0 11 5 11 10 0 6 -2 10 -4 10 -3 0
-8 -4 -11 -10z"/>
<path d="M1965 270 c-17 -4 -40 -12 -50 -19 -16 -10 -16 -11 -2 -7 9 3 17 2
17 -2 0 -5 24 -16 53 -27 28 -10 71 -29 95 -43 24 -13 44 -23 45 -21 1 2 10
18 20 36 9 17 17 36 17 41 0 14 -29 42 -43 42 -8 0 -7 -4 1 -12 7 -7 12 -15
12 -19 0 -9 -77 8 -110 25 -14 6 -38 9 -55 6z m35 -20 c10 -10 110 -38 110
-31 0 4 7 8 15 8 19 0 19 -16 0 -41 -13 -18 -15 -18 -42 2 -15 11 -52 28 -80
38 -54 19 -71 38 -30 32 12 -2 24 -5 27 -8z"/>
<path d="M2540 265 c14 -8 30 -14 35 -14 6 0 -1 6 -15 14 -14 8 -29 14 -35 14
-5 0 1 -6 15 -14z"/>
<path d="M1850 244 c-14 -7 -34 -14 -45 -14 -13 -1 -4 -9 25 -22 25 -12 72
-34 104 -50 33 -16 66 -27 75 -26 8 2 -28 23 -80 48 -52 24 -87 46 -77 48 9 2
40 -9 70 -24 29 -15 80 -37 113 -49 63 -22 77 -41 51 -68 -8 -8 -12 -17 -9
-21 18 -18 -21 -1 -91 39 -44 25 -82 45 -85 45 -3 0 -32 14 -64 31 -32 16 -64
28 -70 26 -7 -2 56 -37 138 -78 83 -40 153 -77 156 -82 11 -15 28 1 45 41 15
36 14 38 -7 52 -13 8 -61 31 -108 51 -46 20 -90 44 -96 53 -14 18 -12 18 -45
0z"/>
<path d="M2895 240 c-3 -5 -1 -10 4 -10 6 0 11 5 11 10 0 6 -2 10 -4 10 -3 0
-8 -4 -11 -10z"/>
<path d="M1535 211 c-36 -6 -38 -7 -15 -14 14 -3 36 -7 49 -7 13 0 62 -22 110
-48 81 -46 162 -83 179 -82 4 1 -22 15 -58 33 -36 18 -83 43 -105 57 -100 59
-119 66 -160 61z"/>
<path d="M1670 193 c1 -10 82 -59 112 -68 12 -3 0 7 -29 24 -28 17 -54 35 -58
41 -7 12 -25 14 -25 3z"/>
<path d="M1752 175 c21 -14 50 -30 65 -36 22 -8 25 -12 13 -20 -12 -8 -10 -9
6 -4 23 6 41 -10 39 -35 -1 -27 122 -61 162 -45 17 7 16 8 -2 15 -11 4 -23 3
-26 -2 -6 -10 -95 10 -117 25 -22 17 -6 18 31 2 20 -8 47 -15 59 -14 18 1 17
3 -7 8 -17 4 -51 20 -75 35 -25 15 -54 32 -65 39 -11 6 -37 22 -57 34 -51 31
-72 29 -26 -2z"/>
<path d="M2020 106 c0 -2 7 -7 16 -10 8 -3 12 -2 9 4 -6 10 -25 14 -25 6z"/>
</g>
</svg>
